{"glyphs":{"0":{"ha":729,"x_min":60,"x_max":669,"o":"m 375 706 q 592 615 515 706 q 669 356 669 524 q 588 85 669 181 q 357 -11 507 -11 q 138 80 215 -11 q 60 336 60 171 q 142 609 60 513 q 375 706 225 706 m 364 575 q 171 346 171 575 q 365 114 171 114 q 510 170 461 114 q 560 339 560 226 q 510 516 560 457 q 364 575 460 575 z "},"1":{"ha":488,"x_min":14,"x_max":333,"o":"m 333 688 l 325 288 l 332 0 l 189 0 l 197 272 l 196 542 l 26 494 l 14 503 l 14 615 l 313 703 l 333 688 z "},"2":{"ha":642,"x_min":61,"x_max":604,"o":"m 326 703 q 472 659 415 703 q 529 542 529 615 q 491 418 529 486 q 368 256 453 350 l 244 115 l 247 108 l 474 108 l 594 119 l 604 110 l 586 -7 l 433 0 l 119 0 l 68 -3 l 61 3 l 61 90 l 251 290 q 357 418 324 368 q 390 507 390 468 q 365 561 390 540 q 296 582 340 582 q 199 558 249 582 q 108 493 150 535 l 93 493 l 69 603 q 326 703 197 703 z "},"3":{"ha":583,"x_min":39,"x_max":522,"o":"m 272 704 q 435 654 374 704 q 497 522 497 604 q 464 409 497 464 q 361 318 431 354 l 361 313 q 481 245 440 292 q 522 129 522 199 q 481 -8 522 51 q 365 -101 440 -68 q 193 -133 290 -133 q 50 -121 128 -133 l 43 -4 l 53 6 q 200 -25 124 -25 q 337 13 286 -25 q 388 118 388 51 q 347 208 388 175 q 231 243 307 240 l 143 243 l 135 253 l 139 350 l 200 351 q 272 369 236 351 q 331 419 308 388 q 354 492 354 451 q 324 563 354 538 q 244 589 294 589 q 163 570 203 589 q 75 513 122 551 l 60 513 l 39 619 q 272 704 149 704 z "},"4":{"ha":681,"x_min":33,"x_max":639,"o":"m 632 92 l 507 94 l 513 -115 l 504 -126 l 396 -135 l 388 -125 l 392 94 l 147 94 l 43 92 l 33 104 l 33 196 l 379 696 l 510 696 l 506 204 l 631 204 l 639 192 l 632 92 m 157 204 l 393 204 l 393 531 l 382 531 l 157 204 z "},"5":{"ha":588,"x_min":36,"x_max":536,"o":"m 536 693 l 521 582 l 511 572 l 397 582 l 211 582 l 207 392 l 293 374 q 473 294 419 347 q 526 154 526 240 q 483 3 526 69 q 363 -99 440 -62 q 186 -136 285 -136 q 46 -121 128 -136 l 36 -1 l 47 10 q 206 -25 126 -25 q 342 18 292 -25 q 393 132 393 61 q 355 221 393 188 q 231 269 317 254 l 107 293 l 96 306 l 103 681 l 122 700 l 199 696 l 392 696 l 528 703 l 536 693 z "},"6":{"ha":660,"x_min":57,"x_max":606,"o":"m 381 492 q 546 426 486 492 q 606 254 606 360 q 572 119 606 179 q 476 23 539 58 q 325 -12 413 -12 q 125 68 193 -12 q 57 294 57 149 q 163 608 57 469 q 464 826 269 746 l 472 826 l 578 763 l 578 749 q 329 621 418 692 q 207 451 240 550 l 217 440 q 381 492 293 492 m 335 83 q 441 122 403 83 q 479 235 479 161 q 443 350 479 310 q 340 390 407 390 q 186 331 264 390 q 185 297 185 319 q 220 136 185 189 q 335 83 256 83 z "},"7":{"ha":589,"x_min":26,"x_max":550,"o":"m 174 696 l 486 696 l 549 699 l 550 594 l 297 42 l 229 -140 l 115 -110 l 107 -86 l 417 579 l 150 579 l 35 567 l 26 581 l 36 701 l 174 696 z "},"8":{"ha":669,"x_min":63,"x_max":599,"o":"m 347 824 q 513 771 453 824 q 574 626 574 718 q 540 514 574 560 q 446 431 506 468 l 446 424 q 558 345 517 389 q 599 224 599 301 q 522 52 599 115 q 317 -11 444 -11 q 130 47 197 -11 q 63 199 63 104 q 106 322 63 274 q 219 406 149 371 l 219 413 q 128 488 163 442 q 93 604 93 533 q 163 765 93 706 q 347 824 233 824 m 340 724 q 244 692 279 724 q 210 608 210 661 q 244 524 210 554 q 344 468 279 493 q 431 527 400 494 q 463 613 463 560 q 430 694 463 664 q 340 724 397 724 m 319 364 q 218 307 254 340 q 182 215 182 274 q 222 122 182 157 q 329 88 261 88 q 440 123 400 88 q 481 214 481 158 q 459 281 481 254 q 406 325 438 308 q 319 364 375 342 z "},"9":{"ha":660,"x_min":54,"x_max":603,"o":"m 279 206 q 114 272 174 206 q 54 443 54 338 q 88 578 54 518 q 184 674 121 639 q 335 710 247 710 q 535 629 467 710 q 603 403 603 549 q 497 90 603 228 q 196 -129 390 -49 l 188 -129 l 82 -65 l 82 -51 q 331 76 242 6 q 453 246 419 147 l 443 257 q 279 206 367 206 m 325 614 q 219 575 257 614 q 181 463 181 536 q 217 347 181 388 q 319 307 253 307 q 474 367 396 307 q 475 400 475 378 q 440 561 475 508 q 325 614 404 614 z "},"\r":{"ha":222,"x_min":0,"x_max":0,"o":""}," ":{"ha":222,"x_min":0,"x_max":0,"o":""},"A":{"ha":815,"x_min":15,"x_max":789,"o":"m 789 0 l 642 0 l 621 100 l 582 224 l 393 228 l 222 224 l 181 107 l 158 0 l 15 0 l 333 892 l 501 892 l 789 0 m 546 340 l 418 751 l 408 751 l 263 340 l 403 338 l 546 340 z "},"Á":{"ha":815,"x_min":15,"x_max":789,"o":"m 789 0 l 642 0 l 621 100 l 582 224 l 393 228 l 222 224 l 181 107 l 158 0 l 15 0 l 333 892 l 501 892 l 789 0 m 546 340 l 418 751 l 408 751 l 263 340 l 403 338 l 546 340 m 564 1211 l 601 1126 l 596 1113 q 313 999 493 1068 l 299 1004 l 275 1065 q 549 1214 456 1158 l 564 1211 z "},"Ă":{"ha":815,"x_min":15,"x_max":789,"o":"m 789 0 l 642 0 l 621 100 l 582 224 l 393 228 l 222 224 l 181 107 l 158 0 l 15 0 l 333 892 l 501 892 l 789 0 m 546 340 l 418 751 l 408 751 l 263 340 l 403 338 l 546 340 m 599 1139 q 527 1040 576 1075 q 408 1004 478 1004 q 291 1039 339 1004 q 221 1139 243 1074 l 257 1185 l 278 1185 q 328 1125 293 1146 q 411 1104 363 1104 q 494 1125 460 1104 q 544 1185 528 1146 l 565 1185 l 599 1139 z "},"Ắ":{"ha":815,"x_min":15,"x_max":789,"o":"m 789 0 l 642 0 l 621 100 l 582 224 l 393 228 l 222 224 l 181 107 l 158 0 l 15 0 l 333 892 l 501 892 l 789 0 m 546 340 l 418 751 l 408 751 l 263 340 l 403 338 l 546 340 m 546 1300 l 547 1288 l 408 1149 l 394 1146 l 349 1185 q 472 1344 407 1254 l 485 1347 l 546 1300 m 597 1111 q 526 1012 575 1047 q 407 976 476 976 q 290 1011 338 976 q 219 1111 242 1046 l 256 1157 l 276 1157 q 326 1097 292 1118 q 410 1076 361 1076 q 492 1097 458 1076 q 543 1157 526 1118 l 564 1157 l 597 1111 z "},"Ặ":{"ha":815,"x_min":15,"x_max":789,"o":"m 789 0 l 642 0 l 621 100 l 582 224 l 393 228 l 222 224 l 181 107 l 158 0 l 15 0 l 333 892 l 501 892 l 789 0 m 546 340 l 418 751 l 408 751 l 263 340 l 403 338 l 546 340 m 411 -86 q 465 -106 446 -86 q 485 -162 485 -126 q 464 -222 485 -200 q 407 -244 443 -244 q 351 -224 371 -244 q 331 -167 331 -203 q 352 -108 331 -131 q 411 -86 374 -86 m 599 1139 q 527 1040 576 1075 q 408 1004 478 1004 q 291 1039 339 1004 q 221 1139 243 1074 l 257 1185 l 278 1185 q 328 1125 293 1146 q 411 1104 363 1104 q 494 1125 460 1104 q 544 1185 528 1146 l 565 1185 l 599 1139 z "},"Ằ":{"ha":815,"x_min":15,"x_max":789,"o":"m 789 0 l 642 0 l 621 100 l 582 224 l 393 228 l 222 224 l 181 107 l 158 0 l 15 0 l 333 892 l 501 892 l 789 0 m 546 340 l 418 751 l 408 751 l 263 340 l 403 338 l 546 340 m 407 1149 l 268 1288 l 268 1300 l 329 1347 l 342 1344 q 465 1185 392 1276 l 421 1146 l 407 1149 m 597 1111 q 526 1012 575 1047 q 407 976 476 976 q 290 1011 338 976 q 219 1111 242 1046 l 256 1157 l 276 1157 q 326 1097 292 1118 q 410 1076 361 1076 q 492 1097 458 1076 q 543 1157 526 1118 l 564 1157 l 597 1111 z "},"Ẳ":{"ha":815,"x_min":15,"x_max":789,"o":"m 789 0 l 642 0 l 621 100 l 582 224 l 393 228 l 222 224 l 181 107 l 158 0 l 15 0 l 333 892 l 501 892 l 789 0 m 546 340 l 418 751 l 408 751 l 263 340 l 403 338 l 546 340 m 597 1111 q 526 1012 575 1047 q 407 976 476 976 q 290 1011 338 976 q 219 1111 242 1046 l 256 1157 l 276 1157 q 326 1097 292 1118 q 410 1076 361 1076 q 492 1097 458 1076 q 543 1157 526 1118 l 564 1157 l 597 1111 m 364 1224 q 416 1273 397 1248 q 436 1316 436 1297 q 425 1338 436 1331 q 397 1345 414 1345 q 356 1337 379 1345 q 313 1312 333 1328 l 288 1353 q 351 1400 317 1384 q 418 1416 385 1416 q 488 1392 461 1416 q 516 1331 516 1368 q 500 1281 516 1305 q 444 1224 484 1257 l 472 1175 l 416 1144 l 364 1224 z "},"Ẵ":{"ha":815,"x_min":15,"x_max":789,"o":"m 789 0 l 642 0 l 621 100 l 582 224 l 393 228 l 222 224 l 181 107 l 158 0 l 15 0 l 333 892 l 501 892 l 789 0 m 546 340 l 418 751 l 408 751 l 263 340 l 403 338 l 546 340 m 594 1108 q 525 1012 573 1046 q 410 977 477 977 q 297 1011 343 977 q 229 1108 250 1044 l 264 1152 l 284 1152 q 332 1094 299 1114 q 413 1074 366 1074 q 493 1094 460 1074 q 542 1152 526 1114 l 562 1152 l 594 1108 m 618 1326 l 618 1313 l 536 1213 l 523 1208 q 418 1234 503 1210 q 327 1256 346 1256 q 303 1246 314 1256 q 272 1213 292 1235 l 253 1192 l 240 1192 l 202 1234 l 202 1246 l 285 1346 l 298 1351 q 400 1325 321 1347 q 494 1303 475 1303 q 517 1313 505 1303 q 544 1341 529 1324 q 568 1367 560 1358 l 580 1367 l 618 1326 z "},"Ǎ":{"ha":815,"x_min":15,"x_max":789,"o":"m 789 0 l 642 0 l 621 100 l 582 224 l 393 228 l 222 224 l 181 107 l 158 0 l 15 0 l 333 892 l 501 892 l 789 0 m 546 340 l 418 751 l 408 751 l 263 340 l 403 338 l 546 340 m 599 1135 q 428 1001 499 1067 l 394 1001 q 222 1135 311 1075 l 247 1194 l 264 1194 l 313 1164 l 410 1103 q 532 1179 425 1113 l 557 1194 l 571 1194 l 599 1135 z "},"Â":{"ha":815,"x_min":15,"x_max":789,"o":"m 789 0 l 642 0 l 621 100 l 582 224 l 393 228 l 222 224 l 181 107 l 158 0 l 15 0 l 333 892 l 501 892 l 789 0 m 546 340 l 418 751 l 408 751 l 263 340 l 403 338 l 546 340 m 222 1075 q 393 1208 322 1143 l 426 1208 q 599 1075 510 1135 l 574 1015 l 557 1015 l 508 1046 l 411 1107 q 289 1031 396 1097 l 264 1015 l 250 1015 l 222 1075 z "},"Ấ":{"ha":815,"x_min":15,"x_max":789,"o":"m 789 0 l 642 0 l 621 100 l 582 224 l 393 228 l 222 224 l 181 107 l 158 0 l 15 0 l 333 892 l 501 892 l 789 0 m 546 340 l 418 751 l 408 751 l 263 340 l 403 338 l 546 340 m 651 1297 l 656 1285 l 547 1153 l 535 1153 l 485 1192 l 571 1329 l 583 1332 l 651 1297 m 221 1046 q 392 1179 322 1118 l 425 1179 q 597 1046 510 1107 l 571 988 l 556 988 l 410 1078 l 263 988 l 249 988 l 221 1046 z "},"Ậ":{"ha":815,"x_min":15,"x_max":789,"o":"m 789 0 l 642 0 l 621 100 l 582 224 l 393 228 l 222 224 l 181 107 l 158 0 l 15 0 l 333 892 l 501 892 l 789 0 m 546 340 l 418 751 l 408 751 l 263 340 l 403 338 l 546 340 m 411 -86 q 465 -106 446 -86 q 485 -162 485 -126 q 464 -222 485 -200 q 407 -244 443 -244 q 351 -224 371 -244 q 331 -167 331 -203 q 352 -108 331 -131 q 411 -86 374 -86 m 222 1075 q 393 1208 322 1143 l 426 1208 q 599 1075 510 1135 l 574 1015 l 557 1015 l 508 1046 l 411 1107 q 289 1031 396 1097 l 264 1015 l 250 1015 l 222 1075 z "},"Ầ":{"ha":815,"x_min":15,"x_max":789,"o":"m 789 0 l 642 0 l 621 100 l 582 224 l 393 228 l 222 224 l 181 107 l 158 0 l 15 0 l 333 892 l 501 892 l 789 0 m 546 340 l 418 751 l 408 751 l 263 340 l 403 338 l 546 340 m 446 1285 l 447 1297 l 515 1332 l 528 1329 l 617 1192 l 565 1153 l 554 1153 l 446 1285 m 221 1046 q 392 1179 322 1118 l 425 1179 q 597 1046 510 1107 l 571 988 l 556 988 l 410 1078 l 263 988 l 249 988 l 221 1046 z "},"Ẩ":{"ha":815,"x_min":15,"x_max":789,"o":"m 789 0 l 642 0 l 621 100 l 582 224 l 393 228 l 222 224 l 181 107 l 158 0 l 15 0 l 333 892 l 501 892 l 789 0 m 546 340 l 418 751 l 408 751 l 263 340 l 403 338 l 546 340 m 221 1075 q 392 1208 321 1143 l 425 1208 q 597 1075 508 1135 l 572 1015 l 556 1015 l 507 1046 l 410 1107 q 288 1031 394 1097 l 263 1015 l 249 1015 l 221 1075 m 521 1243 q 573 1291 554 1266 q 592 1334 592 1315 q 582 1356 592 1348 q 554 1363 571 1363 q 513 1354 535 1363 q 471 1330 491 1346 l 446 1371 q 508 1417 475 1401 q 575 1433 542 1433 q 645 1409 617 1433 q 672 1348 672 1385 q 656 1299 672 1323 q 600 1243 640 1276 l 628 1194 l 572 1163 l 521 1243 z "},"Ẫ":{"ha":815,"x_min":15,"x_max":789,"o":"m 789 0 l 642 0 l 621 100 l 582 224 l 393 228 l 222 224 l 181 107 l 158 0 l 15 0 l 333 892 l 501 892 l 789 0 m 546 340 l 418 751 l 408 751 l 263 340 l 403 338 l 546 340 m 222 1075 q 393 1208 322 1143 l 426 1208 q 599 1075 510 1135 l 574 1015 l 557 1015 l 508 1046 l 411 1107 q 289 1031 396 1097 l 264 1015 l 250 1015 l 222 1075 m 638 1372 l 638 1358 l 547 1251 l 533 1246 q 418 1274 511 1249 q 318 1297 339 1297 q 292 1286 304 1297 q 257 1251 279 1275 l 236 1229 l 222 1229 l 181 1274 l 181 1286 l 272 1393 l 286 1399 q 399 1371 311 1394 q 501 1347 481 1347 q 527 1358 514 1347 q 557 1388 540 1369 q 583 1415 574 1406 l 596 1415 l 638 1372 z "},"Ȁ":{"ha":815,"x_min":15,"x_max":789,"o":"m 789 0 l 642 0 l 621 100 l 582 224 l 393 228 l 222 224 l 181 107 l 158 0 l 15 0 l 333 892 l 501 892 l 789 0 m 546 340 l 418 751 l 408 751 l 263 340 l 403 338 l 546 340 m 326 996 l 314 999 q 144 1154 236 1068 l 147 1168 l 211 1213 l 224 1210 q 374 1035 274 1147 l 326 996 m 532 996 l 518 999 q 350 1154 404 1101 l 351 1168 l 417 1213 l 429 1210 q 578 1035 478 1149 l 532 996 z "},"Ä":{"ha":815,"x_min":15,"x_max":789,"o":"m 789 0 l 642 0 l 621 100 l 582 224 l 393 228 l 222 224 l 181 107 l 158 0 l 15 0 l 333 892 l 501 892 l 789 0 m 546 340 l 418 751 l 408 751 l 263 340 l 403 338 l 546 340 m 300 1174 q 351 1155 332 1174 q 369 1104 369 1136 q 349 1049 369 1069 q 296 1028 329 1028 q 243 1047 261 1028 q 225 1099 225 1065 q 245 1153 225 1133 q 300 1174 265 1174 m 528 1174 q 579 1155 561 1174 q 597 1104 597 1136 q 577 1049 597 1069 q 524 1028 557 1028 q 472 1047 490 1028 q 453 1099 453 1065 q 473 1153 453 1133 q 528 1174 493 1174 z "},"Ạ":{"ha":815,"x_min":15,"x_max":789,"o":"m 789 0 l 642 0 l 621 100 l 582 224 l 393 228 l 222 224 l 181 107 l 158 0 l 15 0 l 333 892 l 501 892 l 789 0 m 546 340 l 418 751 l 408 751 l 263 340 l 403 338 l 546 340 m 411 -86 q 465 -106 446 -86 q 485 -162 485 -126 q 464 -222 485 -200 q 407 -244 443 -244 q 351 -224 371 -244 q 331 -167 331 -203 q 352 -108 331 -131 q 411 -86 374 -86 z "},"À":{"ha":815,"x_min":15,"x_max":789,"o":"m 789 0 l 642 0 l 621 100 l 582 224 l 393 228 l 222 224 l 181 107 l 158 0 l 15 0 l 333 892 l 501 892 l 789 0 m 546 340 l 418 751 l 408 751 l 263 340 l 403 338 l 546 340 m 297 1214 q 572 1065 410 1147 l 549 1004 l 535 999 q 251 1113 354 1068 l 246 1126 l 282 1211 l 297 1214 z "},"Ả":{"ha":815,"x_min":15,"x_max":789,"o":"m 789 0 l 642 0 l 621 100 l 582 224 l 393 228 l 222 224 l 181 107 l 158 0 l 15 0 l 333 892 l 501 892 l 789 0 m 546 340 l 418 751 l 408 751 l 263 340 l 403 338 l 546 340 m 363 1042 q 417 1092 397 1067 q 438 1138 438 1118 q 426 1160 438 1153 q 397 1168 415 1168 q 354 1159 378 1168 q 310 1133 331 1150 l 283 1176 q 349 1225 314 1208 q 419 1242 385 1242 q 492 1217 464 1242 q 521 1153 521 1192 q 504 1101 521 1126 q 446 1042 488 1076 l 475 990 l 417 958 l 363 1042 z "},"Ȃ":{"ha":815,"x_min":15,"x_max":789,"o":"m 789 0 l 642 0 l 621 100 l 582 224 l 393 228 l 222 224 l 181 107 l 158 0 l 15 0 l 333 892 l 501 892 l 789 0 m 546 340 l 418 751 l 408 751 l 263 340 l 403 338 l 546 340 m 219 1054 q 286 1175 238 1131 q 413 1219 335 1219 q 535 1175 489 1219 q 599 1054 581 1131 l 561 1004 l 540 1004 q 492 1090 526 1061 q 408 1119 458 1119 q 324 1090 358 1119 q 276 1004 290 1061 l 256 1004 l 219 1054 z "},"Ā":{"ha":815,"x_min":15,"x_max":789,"o":"m 789 0 l 642 0 l 621 100 l 582 224 l 393 228 l 222 224 l 181 107 l 158 0 l 15 0 l 333 892 l 501 892 l 789 0 m 546 340 l 418 751 l 408 751 l 263 340 l 403 338 l 546 340 m 614 1138 l 607 1056 l 215 1056 l 206 1067 l 211 1147 l 603 1147 l 614 1138 z "},"Ą":{"ha":815,"x_min":15,"x_max":810,"o":"m 789 0 l 642 0 l 621 100 l 582 224 l 393 228 l 222 224 l 181 107 l 158 0 l 15 0 l 333 892 l 501 892 l 789 0 m 546 340 l 418 751 l 408 751 l 263 340 l 403 338 l 546 340 m 789 0 q 686 -106 710 -78 q 663 -154 663 -135 q 672 -176 663 -168 q 696 -185 681 -185 q 778 -139 732 -185 l 786 -140 l 810 -206 q 678 -269 751 -269 q 601 -244 631 -269 q 572 -176 572 -218 q 601 -99 572 -137 q 699 0 629 -60 l 789 0 z "},"Å":{"ha":815,"x_min":15,"x_max":789,"o":"m 789 0 l 642 0 l 621 100 l 582 224 l 393 228 l 222 224 l 181 107 l 158 0 l 15 0 l 333 892 l 501 892 l 789 0 m 546 340 l 418 751 l 408 751 l 263 340 l 403 338 l 546 340 m 410 1235 q 500 1203 468 1235 q 532 1117 532 1171 q 497 1024 532 1057 q 406 992 463 992 q 317 1024 350 992 q 285 1113 285 1056 q 317 1202 285 1169 q 410 1235 350 1235 m 407 1171 q 363 1156 378 1171 q 349 1115 349 1142 q 408 1054 349 1054 q 452 1069 436 1054 q 468 1113 468 1083 q 453 1155 468 1139 q 407 1171 438 1171 z "},"Ǻ":{"ha":815,"x_min":15,"x_max":789,"o":"m 297 1099 l 283 1164 q 578 1267 446 1214 l 592 1261 l 615 1174 l 608 1160 q 310 1092 513 1135 l 297 1099 m 789 0 l 642 0 l 621 99 l 582 221 l 393 224 l 222 219 l 181 106 l 158 0 l 15 0 l 331 856 q 294 949 294 889 q 328 1038 294 1006 q 419 1071 361 1071 q 509 1039 478 1071 q 540 953 540 1007 q 501 857 540 892 l 789 0 m 415 1007 q 357 950 357 1007 q 373 906 357 921 q 418 890 389 890 q 462 905 446 890 q 478 947 478 919 q 463 991 478 975 q 415 1007 447 1007 m 546 336 l 418 740 l 408 740 l 264 336 l 403 333 l 546 336 z "},"Ã":{"ha":815,"x_min":15,"x_max":789,"o":"m 789 0 l 642 0 l 621 100 l 582 224 l 393 228 l 222 224 l 181 107 l 158 0 l 15 0 l 333 892 l 501 892 l 789 0 m 546 340 l 418 751 l 408 751 l 263 340 l 403 338 l 546 340 m 638 1154 l 638 1142 l 547 1035 l 533 1028 q 421 1056 508 1032 q 318 1079 339 1079 q 292 1068 304 1079 q 257 1033 279 1057 l 236 1011 l 222 1011 l 179 1056 l 179 1068 l 269 1175 l 285 1181 q 399 1154 322 1175 q 500 1131 481 1131 q 528 1142 514 1131 q 558 1172 542 1154 q 582 1199 575 1190 l 596 1199 l 638 1154 z "},"Æ":{"ha":1131,"x_min":-24,"x_max":1113,"o":"m 1113 110 l 1101 0 l 594 0 l 588 100 l 554 339 l 239 261 l 160 107 l 122 0 l -24 0 l 429 892 l 988 892 l 996 879 l 985 769 l 763 776 l 635 776 l 675 481 l 961 546 l 972 536 l 982 435 l 689 371 l 724 114 l 875 114 l 1103 122 l 1113 110 m 539 449 l 497 751 l 488 751 l 306 393 l 539 449 z "},"Ǽ":{"ha":1131,"x_min":-24,"x_max":1113,"o":"m 1113 110 l 1101 0 l 594 0 l 588 100 l 554 339 l 239 261 l 160 107 l 122 0 l -24 0 l 429 892 l 988 892 l 996 879 l 985 769 l 763 776 l 635 776 l 675 481 l 961 546 l 972 536 l 982 435 l 689 371 l 724 114 l 875 114 l 1103 122 l 1113 110 m 539 449 l 497 751 l 488 751 l 306 393 l 539 449 m 847 1211 l 885 1126 l 879 1113 q 596 999 776 1068 l 582 1004 l 558 1065 q 832 1214 739 1158 l 847 1211 z "},"B":{"ha":769,"x_min":119,"x_max":719,"o":"m 536 464 q 674 391 629 444 q 719 250 719 338 q 338 -6 719 -6 q 121 0 206 -6 l 119 0 l 129 268 l 119 892 l 397 893 q 598 837 526 893 q 669 674 669 781 q 635 545 669 599 q 536 464 600 492 m 522 657 q 485 753 522 724 q 358 782 447 782 l 264 782 l 260 508 l 403 504 q 493 556 464 519 q 522 657 522 593 m 361 106 q 519 144 464 106 q 575 258 575 183 q 421 399 575 378 l 258 397 l 257 281 l 261 110 q 361 106 315 106 z "},"C":{"ha":721,"x_min":47,"x_max":694,"o":"m 454 901 q 694 840 590 901 l 668 714 l 654 710 q 449 782 561 782 q 262 699 326 782 q 197 453 197 617 q 263 197 197 285 q 449 110 328 110 q 565 130 507 110 q 671 186 622 150 l 685 178 l 674 47 q 438 -11 554 -11 q 149 106 250 -11 q 47 438 47 222 q 153 781 47 660 q 454 901 260 901 z "},"Ć":{"ha":721,"x_min":47,"x_max":694,"o":"m 454 901 q 694 840 590 901 l 668 714 l 654 710 q 449 782 561 782 q 262 699 326 782 q 197 453 197 617 q 263 197 197 285 q 449 110 328 110 q 565 130 507 110 q 671 186 622 150 l 685 178 l 674 47 q 438 -11 554 -11 q 149 106 250 -11 q 47 438 47 222 q 153 781 47 660 q 454 901 260 901 m 590 1211 l 628 1126 l 622 1113 q 339 999 519 1068 l 325 1004 l 301 1065 q 575 1214 482 1158 l 590 1211 z "},"Č":{"ha":721,"x_min":47,"x_max":694,"o":"m 454 901 q 694 840 590 901 l 668 714 l 654 710 q 449 782 561 782 q 262 699 326 782 q 197 453 197 617 q 263 197 197 285 q 449 110 328 110 q 565 130 507 110 q 671 186 622 150 l 685 178 l 674 47 q 438 -11 554 -11 q 149 106 250 -11 q 47 438 47 222 q 153 781 47 660 q 454 901 260 901 m 625 1135 q 454 1001 525 1067 l 421 1001 q 249 1135 338 1075 l 274 1194 l 290 1194 l 339 1164 l 436 1103 q 558 1179 451 1113 l 583 1194 l 597 1194 l 625 1135 z "},"Ç":{"ha":721,"x_min":47,"x_max":694,"o":"m 454 901 q 694 840 590 901 l 668 714 l 654 710 q 449 782 561 782 q 262 699 326 782 q 197 453 197 617 q 263 197 197 285 q 449 110 328 110 q 565 130 507 110 q 671 186 622 150 l 685 178 l 674 47 q 438 -11 554 -11 q 149 106 250 -11 q 47 438 47 222 q 153 781 47 660 q 454 901 260 901 m 450 -69 l 497 -97 q 540 -133 528 -114 q 553 -176 553 -151 q 519 -247 553 -219 q 432 -274 486 -274 q 325 -232 372 -274 l 338 -167 l 344 -164 q 383 -196 365 -185 q 424 -207 401 -207 q 453 -198 442 -207 q 464 -172 464 -189 q 438 -142 464 -154 l 369 -101 l 403 31 l 478 31 l 450 -69 z "},"Ḉ":{"ha":721,"x_min":47,"x_max":694,"o":"m 454 901 q 694 840 590 901 l 668 714 l 654 710 q 449 782 561 782 q 262 699 326 782 q 197 453 197 617 q 263 197 197 285 q 449 110 328 110 q 565 130 507 110 q 671 186 622 150 l 685 178 l 674 47 q 438 -11 554 -11 q 149 106 250 -11 q 47 438 47 222 q 153 781 47 660 q 454 901 260 901 m 450 -69 l 497 -97 q 540 -133 528 -114 q 553 -176 553 -151 q 519 -247 553 -219 q 432 -274 486 -274 q 325 -232 372 -274 l 338 -167 l 344 -164 q 383 -196 365 -185 q 424 -207 401 -207 q 453 -198 442 -207 q 464 -172 464 -189 q 438 -142 464 -154 l 369 -101 l 403 31 l 478 31 l 450 -69 m 590 1211 l 628 1126 l 622 1113 q 339 999 519 1068 l 325 1004 l 301 1065 q 575 1214 482 1158 l 590 1211 z "},"Ĉ":{"ha":721,"x_min":47,"x_max":694,"o":"m 454 901 q 694 840 590 901 l 668 714 l 654 710 q 449 782 561 782 q 262 699 326 782 q 197 453 197 617 q 263 197 197 285 q 449 110 328 110 q 565 130 507 110 q 671 186 622 150 l 685 178 l 674 47 q 438 -11 554 -11 q 149 106 250 -11 q 47 438 47 222 q 153 781 47 660 q 454 901 260 901 m 249 1075 q 419 1208 349 1143 l 453 1208 q 625 1075 536 1135 l 600 1015 l 583 1015 l 535 1046 l 438 1107 q 315 1031 422 1097 l 290 1015 l 276 1015 l 249 1075 z "},"Ċ":{"ha":721,"x_min":47,"x_max":694,"o":"m 454 901 q 694 840 590 901 l 668 714 l 654 710 q 449 782 561 782 q 262 699 326 782 q 197 453 197 617 q 263 197 197 285 q 449 110 328 110 q 565 130 507 110 q 671 186 622 150 l 685 178 l 674 47 q 438 -11 554 -11 q 149 106 250 -11 q 47 438 47 222 q 153 781 47 660 q 454 901 260 901 m 439 1190 q 493 1170 474 1190 q 513 1114 513 1150 q 492 1054 513 1076 q 435 1032 471 1032 q 378 1053 399 1032 q 358 1110 358 1074 q 380 1168 358 1146 q 439 1190 401 1190 z "},"D":{"ha":903,"x_min":119,"x_max":856,"o":"m 458 897 q 753 789 650 897 q 856 478 856 681 q 743 117 856 243 q 419 -8 631 -8 q 276 -6 360 -8 q 121 0 193 -4 l 119 0 l 129 268 l 119 892 l 121 892 l 458 897 m 444 106 q 640 190 572 106 q 707 446 707 275 q 642 699 707 618 q 447 781 578 781 q 265 775 371 781 l 258 281 l 263 115 q 363 108 313 111 q 444 106 413 106 z "},"Ǆ":{"ha":1647,"x_min":119,"x_max":1603,"o":"m 458 897 q 753 789 650 897 q 856 478 856 681 q 743 117 856 243 q 419 -8 631 -8 q 276 -6 360 -8 q 121 0 193 -4 l 119 0 l 129 268 l 119 892 l 121 892 l 458 897 m 444 106 q 640 190 572 106 q 707 446 707 275 q 642 699 707 618 q 447 781 578 781 q 265 775 371 781 l 258 281 l 263 115 q 363 108 313 111 q 444 106 413 106 m 1592 788 l 1117 113 l 1456 113 l 1596 124 l 1603 115 l 1590 -3 l 1411 0 l 1036 0 l 946 -4 l 946 100 l 1424 778 l 1108 778 l 965 767 l 957 775 l 968 893 l 1517 892 l 1592 893 l 1592 788 m 1464 1135 q 1293 1001 1364 1067 l 1260 1001 q 1088 1135 1176 1075 l 1113 1194 l 1129 1194 l 1178 1164 l 1275 1103 q 1397 1179 1290 1113 l 1422 1194 l 1436 1194 l 1464 1135 z "},"Ð":{"ha":935,"x_min":17,"x_max":888,"o":"m 490 897 q 785 789 682 897 q 888 478 888 681 q 775 117 888 243 q 451 -8 663 -8 q 308 -6 392 -8 q 153 0 225 -4 l 151 0 l 161 268 l 151 892 l 153 892 l 490 897 m 476 106 q 672 190 604 106 q 739 446 739 275 q 674 699 739 618 q 479 781 610 781 q 297 775 403 781 l 290 281 l 294 115 q 394 108 344 111 q 476 106 444 106 m 484 486 l 479 399 l 23 399 l 17 410 l 22 497 l 478 497 l 484 486 z "},"Ď":{"ha":903,"x_min":119,"x_max":856,"o":"m 458 897 q 753 789 650 897 q 856 478 856 681 q 743 117 856 243 q 419 -8 631 -8 q 276 -6 360 -8 q 121 0 193 -4 l 119 0 l 129 268 l 119 892 l 121 892 l 458 897 m 444 106 q 640 190 572 106 q 707 446 707 275 q 642 699 707 618 q 447 781 578 781 q 265 775 371 781 l 258 281 l 263 115 q 363 108 313 111 q 444 106 413 106 m 640 1135 q 469 1001 540 1067 l 436 1001 q 264 1135 353 1075 l 289 1194 l 306 1194 l 354 1164 l 451 1103 q 574 1179 467 1113 l 599 1194 l 613 1194 l 640 1135 z "},"Đ":{"ha":935,"x_min":17,"x_max":888,"o":"m 490 897 q 785 789 682 897 q 888 478 888 681 q 775 117 888 243 q 451 -8 663 -8 q 308 -6 392 -8 q 153 0 225 -4 l 151 0 l 161 268 l 151 892 l 153 892 l 490 897 m 476 106 q 672 190 604 106 q 739 446 739 275 q 674 699 739 618 q 479 781 610 781 q 297 775 403 781 l 290 281 l 294 115 q 394 108 344 111 q 476 106 444 106 m 484 486 l 479 399 l 23 399 l 17 410 l 22 497 l 478 497 l 484 486 z "},"Ḍ":{"ha":903,"x_min":119,"x_max":856,"o":"m 458 897 q 753 789 650 897 q 856 478 856 681 q 743 117 856 243 q 419 -8 631 -8 q 276 -6 360 -8 q 121 0 193 -4 l 119 0 l 129 268 l 119 892 l 121 892 l 458 897 m 444 106 q 640 190 572 106 q 707 446 707 275 q 642 699 707 618 q 447 781 578 781 q 265 775 371 781 l 258 281 l 263 115 q 363 108 313 111 q 444 106 413 106 m 454 -86 q 508 -106 489 -86 q 528 -162 528 -126 q 507 -222 528 -200 q 450 -244 486 -244 q 394 -224 414 -244 q 374 -167 374 -203 q 395 -108 374 -131 q 454 -86 417 -86 z "},"Ḏ":{"ha":903,"x_min":119,"x_max":856,"o":"m 458 897 q 753 789 650 897 q 856 478 856 681 q 743 117 856 243 q 419 -8 631 -8 q 276 -6 360 -8 q 121 0 193 -4 l 119 0 l 129 268 l 119 892 l 121 892 l 458 897 m 444 106 q 640 190 572 106 q 707 446 707 275 q 642 699 707 618 q 447 781 578 781 q 265 775 371 781 l 258 281 l 263 115 q 363 108 313 111 q 444 106 413 106 m 626 -147 l 619 -228 l 286 -228 l 276 -218 l 282 -137 l 617 -137 l 626 -147 z "},"ǅ":{"ha":1482,"x_min":119,"x_max":1442,"o":"m 458 897 q 753 789 650 897 q 856 478 856 681 q 743 117 856 243 q 419 -8 631 -8 q 276 -6 360 -8 q 121 0 193 -4 l 119 0 l 129 268 l 119 892 l 121 892 l 458 897 m 444 106 q 640 190 572 106 q 707 446 707 275 q 642 699 707 618 q 447 781 578 781 q 265 775 371 781 l 258 281 l 263 115 q 363 108 313 111 q 444 106 413 106 m 1089 640 l 1369 640 l 1431 642 l 1433 557 l 1094 94 l 1322 94 l 1433 106 l 1442 94 l 1431 -3 l 1288 0 l 1021 0 l 946 -3 l 944 81 l 1285 546 l 1068 546 l 961 535 l 953 546 l 963 643 l 1089 640 m 1392 917 q 1211 726 1313 842 l 1175 726 q 996 917 1075 842 l 1033 972 l 1047 972 q 1193 833 1143 889 q 1339 972 1242 885 l 1354 972 l 1392 917 z "},"E":{"ha":685,"x_min":119,"x_max":657,"o":"m 647 122 l 656 110 l 646 0 l 119 0 l 129 268 l 119 892 l 649 892 l 657 879 l 646 769 l 435 775 l 265 774 l 261 514 l 422 511 l 569 515 l 579 504 l 568 394 l 411 399 l 260 396 l 258 281 l 263 117 l 432 115 l 647 122 z "},"É":{"ha":685,"x_min":119,"x_max":657,"o":"m 647 122 l 656 110 l 646 0 l 119 0 l 129 268 l 119 892 l 649 892 l 657 879 l 646 769 l 435 775 l 265 774 l 261 514 l 422 511 l 569 515 l 579 504 l 568 394 l 411 399 l 260 396 l 258 281 l 263 117 l 432 115 l 647 122 m 540 1211 l 578 1126 l 572 1113 q 289 999 469 1068 l 275 1004 l 251 1065 q 525 1214 432 1158 l 540 1211 z "},"Ĕ":{"ha":685,"x_min":119,"x_max":657,"o":"m 647 122 l 656 110 l 646 0 l 119 0 l 129 268 l 119 892 l 649 892 l 657 879 l 646 769 l 435 775 l 265 774 l 261 514 l 422 511 l 569 515 l 579 504 l 568 394 l 411 399 l 260 396 l 258 281 l 263 117 l 432 115 l 647 122 m 575 1139 q 503 1040 553 1075 q 385 1004 454 1004 q 267 1039 315 1004 q 197 1139 219 1074 l 233 1185 l 254 1185 q 304 1125 269 1146 q 388 1104 339 1104 q 470 1125 436 1104 q 521 1185 504 1146 l 542 1185 l 575 1139 z "},"Ě":{"ha":685,"x_min":119,"x_max":657,"o":"m 647 122 l 656 110 l 646 0 l 119 0 l 129 268 l 119 892 l 649 892 l 657 879 l 646 769 l 435 775 l 265 774 l 261 514 l 422 511 l 569 515 l 579 504 l 568 394 l 411 399 l 260 396 l 258 281 l 263 117 l 432 115 l 647 122 m 575 1135 q 404 1001 475 1067 l 371 1001 q 199 1135 288 1075 l 224 1194 l 240 1194 l 289 1164 l 386 1103 q 508 1179 401 1113 l 533 1194 l 547 1194 l 575 1135 z "},"Ḝ":{"ha":685,"x_min":119,"x_max":657,"o":"m 647 122 l 656 110 l 646 0 l 119 0 l 129 268 l 119 892 l 649 892 l 657 879 l 646 769 l 435 775 l 265 774 l 261 514 l 422 511 l 569 515 l 579 504 l 568 394 l 411 399 l 260 396 l 258 281 l 263 117 l 432 115 l 647 122 m 417 -69 l 464 -97 q 507 -133 494 -114 q 519 -176 519 -151 q 486 -247 519 -219 q 399 -274 453 -274 q 292 -232 339 -274 l 304 -167 l 311 -164 q 350 -196 332 -185 q 390 -207 368 -207 q 419 -198 408 -207 q 431 -172 431 -189 q 404 -142 431 -154 l 336 -101 l 369 31 l 444 31 l 417 -69 m 575 1139 q 503 1040 553 1075 q 385 1004 454 1004 q 267 1039 315 1004 q 197 1139 219 1074 l 233 1185 l 254 1185 q 304 1125 269 1146 q 388 1104 339 1104 q 470 1125 436 1104 q 521 1185 504 1146 l 542 1185 l 575 1139 z "},"Ê":{"ha":685,"x_min":119,"x_max":657,"o":"m 647 122 l 656 110 l 646 0 l 119 0 l 129 268 l 119 892 l 649 892 l 657 879 l 646 769 l 435 775 l 265 774 l 261 514 l 422 511 l 569 515 l 579 504 l 568 394 l 411 399 l 260 396 l 258 281 l 263 117 l 432 115 l 647 122 m 199 1075 q 369 1208 299 1143 l 403 1208 q 575 1075 486 1135 l 550 1015 l 533 1015 l 485 1046 l 388 1107 q 265 1031 372 1097 l 240 1015 l 226 1015 l 199 1075 z "},"Ế":{"ha":685,"x_min":119,"x_max":657,"o":"m 647 122 l 656 110 l 646 0 l 119 0 l 129 268 l 119 892 l 649 892 l 657 879 l 646 769 l 435 775 l 265 774 l 261 514 l 422 511 l 569 515 l 579 504 l 568 394 l 411 399 l 260 396 l 258 281 l 263 117 l 432 115 l 647 122 m 628 1297 l 632 1285 l 524 1153 l 511 1153 l 461 1192 l 547 1329 l 560 1332 l 628 1297 m 197 1046 q 368 1179 299 1118 l 401 1179 q 574 1046 486 1107 l 547 988 l 532 988 l 386 1078 l 239 988 l 225 988 l 197 1046 z "},"Ệ":{"ha":685,"x_min":119,"x_max":657,"o":"m 647 122 l 656 110 l 646 0 l 119 0 l 129 268 l 119 892 l 649 892 l 657 879 l 646 769 l 435 775 l 265 774 l 261 514 l 422 511 l 569 515 l 579 504 l 568 394 l 411 399 l 260 396 l 258 281 l 263 117 l 432 115 l 647 122 m 400 -86 q 454 -106 435 -86 q 474 -162 474 -126 q 453 -222 474 -200 q 396 -244 432 -244 q 340 -224 360 -244 q 319 -167 319 -203 q 341 -108 319 -131 q 400 -86 363 -86 m 199 1075 q 369 1208 299 1143 l 403 1208 q 575 1075 486 1135 l 550 1015 l 533 1015 l 485 1046 l 388 1107 q 265 1031 372 1097 l 240 1015 l 226 1015 l 199 1075 z "},"Ề":{"ha":685,"x_min":119,"x_max":657,"o":"m 647 122 l 656 110 l 646 0 l 119 0 l 129 268 l 119 892 l 649 892 l 657 879 l 646 769 l 435 775 l 265 774 l 261 514 l 422 511 l 569 515 l 579 504 l 568 394 l 411 399 l 260 396 l 258 281 l 263 117 l 432 115 l 647 122 m 422 1285 l 424 1297 l 492 1332 l 504 1329 l 593 1192 l 542 1153 l 531 1153 l 422 1285 m 197 1046 q 368 1179 299 1118 l 401 1179 q 574 1046 486 1107 l 547 988 l 532 988 l 386 1078 l 239 988 l 225 988 l 197 1046 z "},"Ể":{"ha":685,"x_min":119,"x_max":657,"o":"m 647 122 l 656 110 l 646 0 l 119 0 l 129 268 l 119 892 l 649 892 l 657 879 l 646 769 l 435 775 l 265 774 l 261 514 l 422 511 l 569 515 l 579 504 l 568 394 l 411 399 l 260 396 l 258 281 l 263 117 l 432 115 l 647 122 m 197 1075 q 368 1208 297 1143 l 401 1208 q 574 1075 485 1135 l 549 1015 l 532 1015 l 483 1046 l 386 1107 q 264 1031 371 1097 l 239 1015 l 225 1015 l 197 1075 m 497 1243 q 550 1291 530 1266 q 569 1334 569 1315 q 558 1356 569 1348 q 530 1363 548 1363 q 489 1354 512 1363 q 447 1330 467 1346 l 422 1371 q 485 1417 451 1401 q 552 1433 518 1433 q 621 1409 594 1433 q 648 1348 648 1385 q 632 1299 648 1323 q 577 1243 616 1276 l 604 1194 l 549 1163 l 497 1243 z "},"Ễ":{"ha":685,"x_min":119,"x_max":657,"o":"m 647 122 l 656 110 l 646 0 l 119 0 l 129 268 l 119 892 l 649 892 l 657 879 l 646 769 l 435 775 l 265 774 l 261 514 l 422 511 l 569 515 l 579 504 l 568 394 l 411 399 l 260 396 l 258 281 l 263 117 l 432 115 l 647 122 m 199 1075 q 369 1208 299 1143 l 403 1208 q 575 1075 486 1135 l 550 1015 l 533 1015 l 485 1046 l 388 1107 q 265 1031 372 1097 l 240 1015 l 226 1015 l 199 1075 m 613 1372 l 613 1358 l 522 1251 l 508 1246 q 393 1274 486 1249 q 293 1297 314 1297 q 267 1286 279 1297 q 232 1251 254 1275 l 211 1229 l 197 1229 l 156 1274 l 156 1286 l 247 1393 l 261 1399 q 374 1371 286 1394 q 476 1347 456 1347 q 502 1358 489 1347 q 532 1388 515 1369 q 558 1415 549 1406 l 571 1415 l 613 1372 z "},"Ȅ":{"ha":685,"x_min":119,"x_max":657,"o":"m 647 122 l 656 110 l 646 0 l 119 0 l 129 268 l 119 892 l 649 892 l 657 879 l 646 769 l 435 775 l 265 774 l 261 514 l 422 511 l 569 515 l 579 504 l 568 394 l 411 399 l 260 396 l 258 281 l 263 117 l 432 115 l 647 122 m 303 996 l 290 999 q 121 1154 213 1068 l 124 1168 l 188 1213 l 200 1210 q 350 1035 250 1147 l 303 996 m 508 996 l 494 999 q 326 1154 381 1101 l 328 1168 l 393 1213 l 406 1210 q 554 1035 454 1149 l 508 996 z "},"Ë":{"ha":685,"x_min":119,"x_max":657,"o":"m 647 122 l 656 110 l 646 0 l 119 0 l 129 268 l 119 892 l 649 892 l 657 879 l 646 769 l 435 775 l 265 774 l 261 514 l 422 511 l 569 515 l 579 504 l 568 394 l 411 399 l 260 396 l 258 281 l 263 117 l 432 115 l 647 122 m 276 1174 q 327 1155 308 1174 q 346 1104 346 1136 q 326 1049 346 1069 q 272 1028 306 1028 q 219 1047 238 1028 q 201 1099 201 1065 q 222 1153 201 1133 q 276 1174 242 1174 m 504 1174 q 556 1155 538 1174 q 574 1104 574 1136 q 553 1049 574 1069 q 500 1028 533 1028 q 448 1047 467 1028 q 429 1099 429 1065 q 449 1153 429 1133 q 504 1174 469 1174 z "},"Ė":{"ha":685,"x_min":119,"x_max":657,"o":"m 647 122 l 656 110 l 646 0 l 119 0 l 129 268 l 119 892 l 649 892 l 657 879 l 646 769 l 435 775 l 265 774 l 261 514 l 422 511 l 569 515 l 579 504 l 568 394 l 411 399 l 260 396 l 258 281 l 263 117 l 432 115 l 647 122 m 389 1190 q 443 1170 424 1190 q 463 1114 463 1150 q 442 1054 463 1076 q 385 1032 421 1032 q 328 1053 349 1032 q 308 1110 308 1074 q 330 1168 308 1146 q 389 1190 351 1190 z "},"Ẹ":{"ha":685,"x_min":119,"x_max":657,"o":"m 647 122 l 656 110 l 646 0 l 119 0 l 129 268 l 119 892 l 649 892 l 657 879 l 646 769 l 435 775 l 265 774 l 261 514 l 422 511 l 569 515 l 579 504 l 568 394 l 411 399 l 260 396 l 258 281 l 263 117 l 432 115 l 647 122 m 400 -86 q 454 -106 435 -86 q 474 -162 474 -126 q 453 -222 474 -200 q 396 -244 432 -244 q 340 -224 360 -244 q 319 -167 319 -203 q 341 -108 319 -131 q 400 -86 363 -86 z "},"È":{"ha":685,"x_min":119,"x_max":657,"o":"m 647 122 l 656 110 l 646 0 l 119 0 l 129 268 l 119 892 l 649 892 l 657 879 l 646 769 l 435 775 l 265 774 l 261 514 l 422 511 l 569 515 l 579 504 l 568 394 l 411 399 l 260 396 l 258 281 l 263 117 l 432 115 l 647 122 m 274 1214 q 549 1065 386 1147 l 525 1004 l 511 999 q 228 1113 331 1068 l 222 1126 l 258 1211 l 274 1214 z "},"Ẻ":{"ha":685,"x_min":119,"x_max":657,"o":"m 647 122 l 656 110 l 646 0 l 119 0 l 129 268 l 119 892 l 649 892 l 657 879 l 646 769 l 435 775 l 265 774 l 261 514 l 422 511 l 569 515 l 579 504 l 568 394 l 411 399 l 260 396 l 258 281 l 263 117 l 432 115 l 647 122 m 339 1042 q 394 1092 374 1067 q 414 1138 414 1118 q 403 1160 414 1153 q 374 1168 392 1168 q 331 1159 354 1168 q 286 1133 307 1150 l 260 1176 q 326 1225 290 1208 q 396 1242 361 1242 q 469 1217 440 1242 q 497 1153 497 1192 q 481 1101 497 1126 q 422 1042 464 1076 l 451 990 l 393 958 l 339 1042 z "},"Ȇ":{"ha":685,"x_min":119,"x_max":657,"o":"m 647 122 l 656 110 l 646 0 l 119 0 l 129 268 l 119 892 l 649 892 l 657 879 l 646 769 l 435 775 l 265 774 l 261 514 l 422 511 l 569 515 l 579 504 l 568 394 l 411 399 l 260 396 l 258 281 l 263 117 l 432 115 l 647 122 m 196 1054 q 263 1175 214 1131 q 389 1219 311 1219 q 511 1175 465 1219 q 575 1054 557 1131 l 538 1004 l 517 1004 q 469 1090 503 1061 q 385 1119 435 1119 q 301 1090 335 1119 q 253 1004 267 1061 l 232 1004 l 196 1054 z "},"Ē":{"ha":685,"x_min":119,"x_max":657,"o":"m 647 122 l 656 110 l 646 0 l 119 0 l 129 268 l 119 892 l 649 892 l 657 879 l 646 769 l 435 775 l 265 774 l 261 514 l 422 511 l 569 515 l 579 504 l 568 394 l 411 399 l 260 396 l 258 281 l 263 117 l 432 115 l 647 122 m 590 1138 l 583 1056 l 192 1056 l 182 1067 l 188 1147 l 579 1147 l 590 1138 z "},"Ḗ":{"ha":685,"x_min":119,"x_max":657,"o":"m 647 122 l 656 110 l 646 0 l 119 0 l 129 268 l 119 892 l 649 892 l 657 879 l 646 769 l 435 775 l 265 774 l 261 514 l 422 511 l 569 515 l 579 504 l 568 394 l 411 399 l 260 396 l 258 281 l 263 117 l 432 115 l 647 122 m 531 1349 l 551 1260 l 543 1247 q 246 1185 408 1215 l 232 1192 l 218 1257 q 517 1356 375 1303 l 531 1349 m 547 1103 l 540 1021 l 235 1021 l 225 1032 l 231 1113 l 538 1113 l 547 1103 z "},"Ḕ":{"ha":685,"x_min":119,"x_max":657,"o":"m 647 122 l 656 110 l 646 0 l 119 0 l 129 268 l 119 892 l 649 892 l 657 879 l 646 769 l 435 775 l 265 774 l 261 514 l 422 511 l 569 515 l 579 504 l 568 394 l 411 399 l 260 396 l 258 281 l 263 117 l 432 115 l 647 122 m 526 1185 q 228 1247 374 1213 l 221 1260 l 242 1349 l 256 1356 q 553 1257 401 1301 l 540 1192 l 526 1185 m 547 1103 l 540 1021 l 235 1021 l 225 1032 l 231 1113 l 538 1113 l 547 1103 z "},"Ę":{"ha":685,"x_min":119,"x_max":657,"o":"m 647 122 l 656 110 l 646 0 l 119 0 l 129 268 l 119 892 l 649 892 l 657 879 l 646 769 l 435 775 l 265 774 l 261 514 l 422 511 l 569 515 l 579 504 l 568 394 l 411 399 l 260 396 l 258 281 l 263 117 l 432 115 l 647 122 m 492 -297 q 399 -268 433 -297 q 364 -189 364 -239 q 395 -101 364 -144 q 519 21 426 -57 l 603 21 q 485 -112 511 -78 q 458 -169 458 -146 q 504 -210 458 -210 q 606 -161 549 -210 l 614 -162 l 635 -233 q 492 -297 567 -297 z "},"Ẽ":{"ha":685,"x_min":119,"x_max":657,"o":"m 647 122 l 656 110 l 646 0 l 119 0 l 129 268 l 119 892 l 649 892 l 657 879 l 646 769 l 435 775 l 265 774 l 261 514 l 422 511 l 569 515 l 579 504 l 568 394 l 411 399 l 260 396 l 258 281 l 263 117 l 432 115 l 647 122 m 614 1154 l 614 1142 l 524 1035 l 510 1028 q 397 1056 485 1032 q 294 1079 315 1079 q 268 1068 281 1079 q 233 1033 256 1057 l 213 1011 l 199 1011 l 156 1056 l 156 1068 l 246 1175 l 261 1181 q 375 1154 299 1175 q 476 1131 457 1131 q 504 1142 490 1131 q 535 1172 518 1154 q 558 1199 551 1190 l 572 1199 l 614 1154 z "},"F":{"ha":615,"x_min":119,"x_max":628,"o":"m 265 774 l 261 493 l 401 490 l 549 494 l 558 482 l 547 374 l 389 378 l 260 376 l 258 281 l 265 0 l 119 0 l 129 268 l 119 892 l 618 892 l 628 879 l 617 767 l 408 775 l 265 774 z "},"G":{"ha":832,"x_min":47,"x_max":756,"o":"m 494 901 q 756 842 635 901 l 726 708 l 711 707 q 588 765 643 747 q 471 782 532 782 q 264 698 332 782 q 196 433 196 614 q 260 184 196 261 q 463 107 324 107 q 531 113 497 107 q 617 135 565 119 l 621 225 l 617 363 l 751 372 l 749 247 l 753 43 q 454 -11 581 -11 q 149 102 250 -11 q 47 426 47 215 q 163 779 47 657 q 494 901 279 901 z "},"Ğ":{"ha":832,"x_min":47,"x_max":756,"o":"m 494 901 q 756 842 635 901 l 726 708 l 711 707 q 588 765 643 747 q 471 782 532 782 q 264 698 332 782 q 196 433 196 614 q 260 184 196 261 q 463 107 324 107 q 531 113 497 107 q 617 135 565 119 l 621 225 l 617 363 l 751 372 l 749 247 l 753 43 q 454 -11 581 -11 q 149 102 250 -11 q 47 426 47 215 q 163 779 47 657 q 494 901 279 901 m 642 1139 q 570 1040 619 1075 q 451 1004 521 1004 q 334 1039 382 1004 q 264 1139 286 1074 l 300 1185 l 321 1185 q 371 1125 336 1146 q 454 1104 406 1104 q 537 1125 503 1104 q 588 1185 571 1146 l 608 1185 l 642 1139 z "},"Ǧ":{"ha":832,"x_min":47,"x_max":756,"o":"m 494 901 q 756 842 635 901 l 726 708 l 711 707 q 588 765 643 747 q 471 782 532 782 q 264 698 332 782 q 196 433 196 614 q 260 184 196 261 q 463 107 324 107 q 531 113 497 107 q 617 135 565 119 l 621 225 l 617 363 l 751 372 l 749 247 l 753 43 q 454 -11 581 -11 q 149 102 250 -11 q 47 426 47 215 q 163 779 47 657 q 494 901 279 901 m 642 1135 q 471 1001 542 1067 l 438 1001 q 265 1135 354 1075 l 290 1194 l 307 1194 l 356 1164 l 453 1103 q 575 1179 468 1113 l 600 1194 l 614 1194 l 642 1135 z "},"Ĝ":{"ha":832,"x_min":47,"x_max":756,"o":"m 494 901 q 756 842 635 901 l 726 708 l 711 707 q 588 765 643 747 q 471 782 532 782 q 264 698 332 782 q 196 433 196 614 q 260 184 196 261 q 463 107 324 107 q 531 113 497 107 q 617 135 565 119 l 621 225 l 617 363 l 751 372 l 749 247 l 753 43 q 454 -11 581 -11 q 149 102 250 -11 q 47 426 47 215 q 163 779 47 657 q 494 901 279 901 m 265 1075 q 436 1208 365 1143 l 469 1208 q 642 1075 553 1135 l 617 1015 l 600 1015 l 551 1046 l 454 1107 q 332 1031 439 1097 l 307 1015 l 293 1015 l 265 1075 z "},"Ģ":{"ha":832,"x_min":47,"x_max":756,"o":"m 494 901 q 756 842 635 901 l 726 708 l 711 707 q 588 765 643 747 q 471 782 532 782 q 264 698 332 782 q 196 433 196 614 q 260 184 196 261 q 463 107 324 107 q 531 113 497 107 q 617 135 565 119 l 621 225 l 617 363 l 751 372 l 749 247 l 753 43 q 454 -11 581 -11 q 149 102 250 -11 q 47 426 47 215 q 163 779 47 657 q 494 901 279 901 m 460 -68 q 514 -164 514 -107 q 379 -354 514 -257 l 338 -315 l 336 -306 q 406 -189 406 -250 q 367 -121 406 -150 l 367 -110 q 460 -68 414 -79 z "},"Ġ":{"ha":832,"x_min":47,"x_max":756,"o":"m 494 901 q 756 842 635 901 l 726 708 l 711 707 q 588 765 643 747 q 471 782 532 782 q 264 698 332 782 q 196 433 196 614 q 260 184 196 261 q 463 107 324 107 q 531 113 497 107 q 617 135 565 119 l 621 225 l 617 363 l 751 372 l 749 247 l 753 43 q 454 -11 581 -11 q 149 102 250 -11 q 47 426 47 215 q 163 779 47 657 q 494 901 279 901 m 456 1190 q 510 1170 490 1190 q 529 1114 529 1150 q 508 1054 529 1076 q 451 1032 488 1032 q 395 1053 415 1032 q 375 1110 375 1074 q 397 1168 375 1146 q 456 1190 418 1190 z "},"Ḡ":{"ha":832,"x_min":47,"x_max":756,"o":"m 494 901 q 756 842 635 901 l 726 708 l 711 707 q 588 765 643 747 q 471 782 532 782 q 264 698 332 782 q 196 433 196 614 q 260 184 196 261 q 463 107 324 107 q 531 113 497 107 q 617 135 565 119 l 621 225 l 617 363 l 751 372 l 749 247 l 753 43 q 454 -11 581 -11 q 149 102 250 -11 q 47 426 47 215 q 163 779 47 657 q 494 901 279 901 m 657 1138 l 650 1056 l 258 1056 l 249 1067 l 254 1147 l 646 1147 l 657 1138 z "},"H":{"ha":957,"x_min":124,"x_max":838,"o":"m 831 281 l 835 0 l 692 0 l 699 268 l 697 389 l 469 390 l 261 389 l 260 281 l 265 0 l 124 0 l 129 268 l 124 892 l 267 892 l 263 508 l 481 506 l 696 508 l 692 892 l 838 892 l 831 281 z "},"Ħ":{"ha":1000,"x_min":49,"x_max":953,"o":"m 851 661 l 847 281 l 851 0 l 710 0 l 717 268 l 715 389 l 488 390 l 279 389 l 278 281 l 283 0 l 140 0 l 147 268 l 143 661 l 56 661 l 49 669 l 54 753 l 142 753 l 140 892 l 285 892 l 283 753 l 711 753 l 710 892 l 854 892 l 853 753 l 946 753 l 953 744 l 947 661 l 851 661 m 713 661 l 282 661 l 281 508 l 497 506 l 714 508 l 713 661 z "},"Ḫ":{"ha":957,"x_min":124,"x_max":838,"o":"m 831 281 l 835 0 l 692 0 l 699 268 l 697 389 l 469 390 l 261 389 l 260 281 l 265 0 l 124 0 l 129 268 l 124 892 l 267 892 l 263 508 l 481 506 l 696 508 l 692 892 l 838 892 l 831 281 m 668 -128 q 601 -249 650 -204 q 475 -293 553 -293 q 353 -249 399 -293 q 289 -128 307 -204 l 326 -78 l 347 -78 q 395 -164 361 -135 q 479 -193 429 -193 q 563 -164 529 -193 q 611 -78 597 -135 l 632 -78 l 668 -128 z "},"Ĥ":{"ha":957,"x_min":124,"x_max":838,"o":"m 831 281 l 835 0 l 692 0 l 699 268 l 697 389 l 469 390 l 261 389 l 260 281 l 265 0 l 124 0 l 129 268 l 124 892 l 267 892 l 263 508 l 481 506 l 696 508 l 692 892 l 838 892 l 831 281 m 292 1075 q 463 1208 392 1143 l 496 1208 q 668 1075 579 1135 l 643 1015 l 626 1015 l 578 1046 l 481 1107 q 358 1031 465 1097 l 333 1015 l 319 1015 l 292 1075 z "},"Ḥ":{"ha":957,"x_min":124,"x_max":838,"o":"m 831 281 l 835 0 l 692 0 l 699 268 l 697 389 l 469 390 l 261 389 l 260 281 l 265 0 l 124 0 l 129 268 l 124 892 l 267 892 l 263 508 l 481 506 l 696 508 l 692 892 l 838 892 l 831 281 m 482 -86 q 536 -106 517 -86 q 556 -162 556 -126 q 535 -222 556 -200 q 478 -244 514 -244 q 422 -224 442 -244 q 401 -167 401 -203 q 423 -108 401 -131 q 482 -86 444 -86 z "},"I":{"ha":388,"x_min":119,"x_max":267,"o":"m 258 281 l 265 0 l 119 0 l 129 268 l 119 892 l 267 892 l 258 281 z "},"Ĳ":{"ha":833,"x_min":119,"x_max":714,"o":"m 258 281 l 265 0 l 119 0 l 129 268 l 119 892 l 267 892 l 258 281 m 706 294 l 708 165 q 652 -13 708 57 q 457 -144 596 -83 l 407 -65 l 407 -50 q 538 45 500 -1 q 576 165 576 92 l 576 281 l 571 781 l 408 779 l 396 790 l 404 892 l 714 892 l 706 294 z "},"Í":{"ha":388,"x_min":58,"x_max":385,"o":"m 258 281 l 265 0 l 119 0 l 129 268 l 119 892 l 267 892 l 258 281 m 347 1211 l 385 1126 l 379 1113 q 96 999 276 1068 l 82 1004 l 58 1065 q 332 1214 239 1158 l 347 1211 z "},"Ĭ":{"ha":388,"x_min":4,"x_max":382,"o":"m 258 281 l 265 0 l 119 0 l 129 268 l 119 892 l 267 892 l 258 281 m 382 1139 q 310 1040 360 1075 q 192 1004 261 1004 q 74 1039 122 1004 q 4 1139 26 1074 l 40 1185 l 61 1185 q 111 1125 76 1146 q 194 1104 146 1104 q 277 1125 243 1104 q 328 1185 311 1146 l 349 1185 l 382 1139 z "},"Ǐ":{"ha":388,"x_min":6,"x_max":382,"o":"m 258 281 l 265 0 l 119 0 l 129 268 l 119 892 l 267 892 l 258 281 m 382 1135 q 211 1001 282 1067 l 178 1001 q 6 1135 94 1075 l 31 1194 l 47 1194 l 96 1164 l 193 1103 q 315 1179 208 1113 l 340 1194 l 354 1194 l 382 1135 z "},"Î":{"ha":388,"x_min":6,"x_max":382,"o":"m 258 281 l 265 0 l 119 0 l 129 268 l 119 892 l 267 892 l 258 281 m 6 1075 q 176 1208 106 1143 l 210 1208 q 382 1075 293 1135 l 357 1015 l 340 1015 l 292 1046 l 194 1107 q 72 1031 179 1097 l 47 1015 l 33 1015 l 6 1075 z "},"Ȉ":{"ha":388,"x_min":-72,"x_max":361,"o":"m 258 281 l 265 0 l 119 0 l 129 268 l 119 892 l 267 892 l 258 281 m 110 996 l 97 999 q -72 1154 19 1068 l -69 1168 l -6 1213 l 7 1210 q 157 1035 57 1147 l 110 996 m 315 996 l 301 999 q 133 1154 188 1101 l 135 1168 l 200 1213 l 213 1210 q 361 1035 261 1149 l 315 996 z "},"Ï":{"ha":388,"x_min":42,"x_max":346,"o":"m 258 281 l 265 0 l 119 0 l 129 268 l 119 892 l 267 892 l 258 281 m 115 1172 q 163 1154 146 1172 q 181 1104 181 1136 q 161 1049 181 1069 q 110 1029 142 1029 q 59 1047 76 1029 q 42 1099 42 1065 q 61 1152 42 1132 q 115 1172 81 1172 m 279 1172 q 328 1154 310 1172 q 346 1104 346 1136 q 326 1049 346 1069 q 275 1029 307 1029 q 224 1047 242 1029 q 206 1099 206 1065 q 225 1152 206 1132 q 279 1172 244 1172 z "},"Ḯ":{"ha":388,"x_min":8,"x_max":375,"o":"m 258 281 l 265 0 l 119 0 l 129 268 l 119 892 l 267 892 l 258 281 m 335 1376 l 356 1288 l 349 1275 q 51 1213 206 1242 l 38 1219 l 24 1285 q 321 1383 192 1333 l 335 1376 m 81 1143 q 130 1125 113 1143 q 147 1075 147 1107 q 128 1023 147 1043 q 76 1003 108 1003 q 26 1021 44 1003 q 8 1071 8 1039 q 28 1123 8 1103 q 81 1143 49 1143 m 308 1143 q 358 1125 340 1143 q 375 1075 375 1107 q 356 1023 375 1043 q 304 1003 336 1003 q 254 1021 272 1003 q 236 1071 236 1039 q 256 1123 236 1103 q 308 1143 276 1143 z "},"İ":{"ha":388,"x_min":115,"x_max":269,"o":"m 258 281 l 265 0 l 119 0 l 129 268 l 119 892 l 267 892 l 258 281 m 196 1190 q 250 1170 231 1190 q 269 1114 269 1150 q 249 1054 269 1076 q 192 1032 228 1032 q 135 1053 156 1032 q 115 1110 115 1074 q 137 1168 115 1146 q 196 1190 158 1190 z "},"Ị":{"ha":388,"x_min":107,"x_max":267,"o":"m 258 281 l 265 0 l 119 0 l 129 268 l 119 892 l 267 892 l 258 281 m 188 -86 q 242 -106 222 -86 q 261 -162 261 -126 q 240 -222 261 -200 q 183 -244 219 -244 q 127 -224 147 -244 q 107 -167 107 -203 q 128 -108 107 -131 q 188 -86 150 -86 z "},"Ì":{"ha":388,"x_min":29,"x_max":356,"o":"m 258 281 l 265 0 l 119 0 l 129 268 l 119 892 l 267 892 l 258 281 m 81 1214 q 356 1065 193 1147 l 332 1004 l 318 999 q 35 1113 138 1068 l 29 1126 l 65 1211 l 81 1214 z "},"Ỉ":{"ha":388,"x_min":67,"x_max":304,"o":"m 258 281 l 265 0 l 119 0 l 129 268 l 119 892 l 267 892 l 258 281 m 146 1042 q 201 1092 181 1067 q 221 1138 221 1118 q 210 1160 221 1153 q 181 1168 199 1168 q 138 1159 161 1168 q 93 1133 114 1150 l 67 1176 q 133 1225 97 1208 q 203 1242 168 1242 q 276 1217 247 1242 q 304 1153 304 1192 q 288 1101 304 1126 q 229 1042 271 1076 l 258 990 l 200 958 l 146 1042 z "},"Ȋ":{"ha":388,"x_min":3,"x_max":382,"o":"m 258 281 l 265 0 l 119 0 l 129 268 l 119 892 l 267 892 l 258 281 m 3 1054 q 69 1175 21 1131 q 196 1219 118 1219 q 318 1175 272 1219 q 382 1054 364 1131 l 344 1004 l 324 1004 q 276 1090 310 1061 q 192 1119 242 1119 q 108 1090 142 1119 q 60 1004 74 1061 l 39 1004 l 3 1054 z "},"Ī":{"ha":388,"x_min":32,"x_max":354,"o":"m 258 281 l 265 0 l 119 0 l 129 268 l 119 892 l 267 892 l 258 281 m 354 1138 l 347 1056 l 42 1056 l 32 1067 l 38 1147 l 344 1147 l 354 1138 z "},"Į":{"ha":388,"x_min":49,"x_max":286,"o":"m 258 281 l 265 0 l 119 0 l 129 268 l 119 892 l 267 892 l 258 281 m 265 0 q 163 -106 186 -78 q 139 -154 139 -135 q 148 -176 139 -168 q 172 -185 157 -185 q 254 -139 208 -185 l 263 -140 l 286 -206 q 154 -269 228 -269 q 78 -244 107 -269 q 49 -176 49 -218 q 77 -99 49 -137 q 175 0 106 -60 l 265 0 z "},"Ĩ":{"ha":388,"x_min":-10,"x_max":394,"o":"m 258 281 l 265 0 l 119 0 l 129 268 l 119 892 l 267 892 l 258 281 m 394 1150 l 394 1138 l 314 1031 l 300 1026 q 200 1054 260 1033 q 118 1075 135 1075 q 93 1063 106 1075 q 67 1035 81 1051 q 46 1010 53 1018 l 33 1010 l -10 1053 l -10 1065 l 72 1171 l 86 1176 q 188 1149 114 1172 q 268 1128 253 1128 q 294 1140 282 1128 q 319 1169 306 1151 q 340 1194 333 1186 l 353 1194 l 394 1150 z "},"J":{"ha":446,"x_min":8,"x_max":326,"o":"m 318 294 l 321 165 q 265 -13 321 57 q 69 -144 208 -83 l 19 -65 l 19 -50 q 151 45 113 -1 q 189 165 189 92 l 189 281 l 183 781 l 21 779 l 8 790 l 17 892 l 326 892 l 318 294 z "},"Ĵ":{"ha":446,"x_min":6,"x_max":382,"o":"m 318 294 l 321 165 q 265 -13 321 57 q 69 -144 208 -83 l 19 -65 l 19 -50 q 151 45 113 -1 q 189 165 189 92 l 189 281 l 183 781 l 21 779 l 8 790 l 17 892 l 326 892 l 318 294 m 6 1075 q 176 1208 106 1143 l 210 1208 q 382 1075 293 1135 l 357 1015 l 340 1015 l 292 1046 l 194 1107 q 72 1031 179 1097 l 47 1015 l 33 1015 l 6 1075 z "},"K":{"ha":782,"x_min":121,"x_max":786,"o":"m 258 281 l 264 0 l 121 0 l 128 268 l 121 892 l 265 892 l 258 281 m 418 472 q 786 31 579 256 l 785 14 q 647 -12 724 -3 l 629 -4 q 271 465 418 254 l 271 475 l 549 811 l 604 892 l 761 892 l 418 472 z "},"Ķ":{"ha":782,"x_min":121,"x_max":786,"o":"m 258 281 l 264 0 l 121 0 l 128 268 l 121 892 l 265 892 l 258 281 m 418 472 q 786 31 579 256 l 785 14 q 647 -12 724 -3 l 629 -4 q 271 465 418 254 l 271 475 l 549 811 l 604 892 l 761 892 l 418 472 m 440 -68 q 494 -164 494 -107 q 360 -354 494 -257 l 318 -315 l 317 -306 q 386 -189 386 -250 q 347 -121 386 -150 l 347 -110 q 440 -68 394 -79 z "},"L":{"ha":588,"x_min":115,"x_max":585,"o":"m 585 107 l 574 0 l 115 0 l 125 268 l 115 892 l 263 892 l 254 281 l 257 119 l 575 119 l 585 107 z "},"Ǉ":{"ha":1029,"x_min":115,"x_max":910,"o":"m 585 107 l 574 0 l 115 0 l 125 268 l 115 892 l 263 892 l 254 281 l 257 119 l 575 119 l 585 107 m 901 294 l 904 165 q 848 -13 904 57 q 653 -144 792 -83 l 603 -65 l 603 -50 q 734 45 696 -1 q 772 165 772 92 l 772 281 l 767 781 l 604 779 l 592 790 l 600 892 l 910 892 l 901 294 z "},"Ĺ":{"ha":588,"x_min":58,"x_max":585,"o":"m 585 107 l 574 0 l 115 0 l 125 268 l 115 892 l 263 892 l 254 281 l 257 119 l 575 119 l 585 107 m 347 1211 l 385 1126 l 379 1113 q 96 999 276 1068 l 82 1004 l 58 1065 q 332 1214 239 1158 l 347 1211 z "},"Ľ":{"ha":639,"x_min":115,"x_max":585,"o":"m 585 107 l 574 0 l 115 0 l 125 268 l 115 892 l 263 892 l 254 281 l 257 119 l 575 119 l 585 107 m 453 538 l 442 547 l 444 807 l 546 814 l 556 803 l 518 547 l 453 538 z "},"Ļ":{"ha":588,"x_min":115,"x_max":585,"o":"m 585 107 l 574 0 l 115 0 l 125 268 l 115 892 l 263 892 l 254 281 l 257 119 l 575 119 l 585 107 m 361 -68 q 415 -164 415 -107 q 281 -354 415 -257 l 239 -315 l 238 -306 q 307 -189 307 -250 q 268 -121 307 -150 l 268 -110 q 361 -68 315 -79 z "},"Ŀ":{"ha":599,"x_min":115,"x_max":585,"o":"m 585 107 l 574 0 l 115 0 l 125 268 l 115 892 l 263 892 l 254 281 l 257 119 l 575 119 l 585 107 m 488 610 q 542 590 522 610 q 561 533 561 569 q 540 474 561 496 q 483 451 519 451 q 427 472 447 451 q 407 529 407 493 q 428 588 407 565 q 488 610 450 610 z "},"Ḷ":{"ha":588,"x_min":115,"x_max":585,"o":"m 585 107 l 574 0 l 115 0 l 125 268 l 115 892 l 263 892 l 254 281 l 257 119 l 575 119 l 585 107 m 329 -86 q 383 -106 364 -86 q 403 -162 403 -126 q 382 -222 403 -200 q 325 -244 361 -244 q 269 -224 289 -244 q 249 -167 249 -203 q 270 -108 249 -131 q 329 -86 292 -86 z "},"ǈ":{"ha":969,"x_min":115,"x_max":864,"o":"m 585 107 l 574 0 l 115 0 l 125 268 l 115 892 l 263 892 l 254 281 l 257 119 l 575 119 l 585 107 m 864 640 l 853 281 l 861 31 q 813 -147 861 -78 q 653 -269 765 -215 l 601 -207 l 601 -192 q 699 -103 671 -151 q 728 25 728 -56 l 729 268 l 724 547 l 601 547 l 592 557 l 600 638 l 726 638 l 858 643 l 864 640 m 774 939 q 828 919 808 939 q 847 863 847 899 q 826 803 847 825 q 769 781 806 781 q 713 801 733 781 q 693 858 693 822 q 715 917 693 894 q 774 939 736 939 z "},"Ḻ":{"ha":588,"x_min":115,"x_max":585,"o":"m 585 107 l 574 0 l 115 0 l 125 268 l 115 892 l 263 892 l 254 281 l 257 119 l 575 119 l 585 107 m 501 -147 l 494 -228 l 161 -228 l 151 -218 l 157 -137 l 492 -137 l 501 -147 z "},"Ł":{"ha":607,"x_min":8,"x_max":606,"o":"m 606 107 l 594 0 l 136 0 l 146 268 l 144 378 l 49 328 l 33 336 l 8 421 l 142 490 l 136 892 l 282 892 l 278 563 l 442 647 l 457 640 l 483 556 l 276 447 l 275 281 l 278 119 l 596 119 l 606 107 z "},"M":{"ha":1100,"x_min":74,"x_max":1024,"o":"m 1024 0 l 896 0 l 878 271 l 836 674 l 826 674 l 597 99 l 483 99 l 271 674 l 258 674 l 217 283 l 194 0 l 74 0 l 167 892 l 331 892 l 372 758 l 543 285 l 554 285 l 735 763 l 776 892 l 939 892 l 1024 0 z "},"Ṃ":{"ha":1100,"x_min":74,"x_max":1024,"o":"m 1024 0 l 896 0 l 878 271 l 836 674 l 826 674 l 597 99 l 483 99 l 271 674 l 258 674 l 217 283 l 194 0 l 74 0 l 167 892 l 331 892 l 372 758 l 543 285 l 554 285 l 735 763 l 776 892 l 939 892 l 1024 0 m 553 -86 q 607 -106 588 -86 q 626 -162 626 -126 q 606 -222 626 -200 q 549 -244 585 -244 q 492 -224 513 -244 q 472 -167 472 -203 q 494 -108 472 -131 q 553 -86 515 -86 z "},"N":{"ha":956,"x_min":121,"x_max":836,"o":"m 828 267 l 832 0 l 678 0 l 258 668 l 249 668 l 247 299 l 251 0 l 121 0 l 128 264 l 122 892 l 274 892 l 694 224 l 706 224 l 703 885 l 836 894 l 828 267 z "},"Ǌ":{"ha":1401,"x_min":121,"x_max":1282,"o":"m 828 267 l 832 0 l 678 0 l 258 668 l 249 668 l 247 299 l 251 0 l 121 0 l 128 264 l 122 892 l 274 892 l 694 224 l 706 224 l 703 885 l 836 894 l 828 267 m 1274 294 l 1276 165 q 1220 -13 1276 57 q 1025 -144 1164 -83 l 975 -65 l 975 -50 q 1106 45 1068 -1 q 1144 165 1144 92 l 1144 281 l 1139 781 l 976 779 l 964 790 l 972 892 l 1282 892 l 1274 294 z "},"Ń":{"ha":956,"x_min":121,"x_max":836,"o":"m 828 267 l 832 0 l 678 0 l 258 668 l 249 668 l 247 299 l 251 0 l 121 0 l 128 264 l 122 892 l 274 892 l 694 224 l 706 224 l 703 885 l 836 894 l 828 267 m 629 1211 l 667 1126 l 661 1113 q 378 999 558 1068 l 364 1004 l 340 1065 q 614 1214 521 1158 l 629 1211 z "},"Ň":{"ha":956,"x_min":121,"x_max":836,"o":"m 828 267 l 832 0 l 678 0 l 258 668 l 249 668 l 247 299 l 251 0 l 121 0 l 128 264 l 122 892 l 274 892 l 694 224 l 706 224 l 703 885 l 836 894 l 828 267 m 664 1135 q 493 1001 564 1067 l 460 1001 q 288 1135 376 1075 l 313 1194 l 329 1194 l 378 1164 l 475 1103 q 597 1179 490 1113 l 622 1194 l 636 1194 l 664 1135 z "},"Ņ":{"ha":956,"x_min":121,"x_max":836,"o":"m 828 267 l 832 0 l 678 0 l 258 668 l 249 668 l 247 299 l 251 0 l 121 0 l 128 264 l 122 892 l 274 892 l 694 224 l 706 224 l 703 885 l 836 894 l 828 267 m 508 -68 q 563 -164 563 -107 q 428 -354 563 -257 l 386 -315 l 385 -306 q 454 -189 454 -250 q 415 -121 454 -150 l 415 -110 q 508 -68 463 -79 z "},"Ṅ":{"ha":956,"x_min":121,"x_max":836,"o":"m 828 267 l 832 0 l 678 0 l 258 668 l 249 668 l 247 299 l 251 0 l 121 0 l 128 264 l 122 892 l 274 892 l 694 224 l 706 224 l 703 885 l 836 894 l 828 267 m 478 1190 q 532 1170 513 1190 q 551 1114 551 1150 q 531 1054 551 1076 q 474 1032 510 1032 q 417 1053 438 1032 q 397 1110 397 1074 q 419 1168 397 1146 q 478 1190 440 1190 z "},"Ṇ":{"ha":956,"x_min":121,"x_max":836,"o":"m 828 267 l 832 0 l 678 0 l 258 668 l 249 668 l 247 299 l 251 0 l 121 0 l 128 264 l 122 892 l 274 892 l 694 224 l 706 224 l 703 885 l 836 894 l 828 267 m 476 -86 q 531 -106 511 -86 q 550 -162 550 -126 q 529 -222 550 -200 q 472 -244 508 -244 q 416 -224 436 -244 q 396 -167 396 -203 q 417 -108 396 -131 q 476 -86 439 -86 z "},"Ŋ":{"ha":956,"x_min":119,"x_max":836,"o":"m 826 267 l 829 79 q 773 -99 829 -29 q 578 -229 717 -169 l 528 -151 l 528 -136 q 629 -69 592 -101 q 683 1 667 -37 l 260 668 l 249 668 l 247 299 l 254 0 l 119 0 l 129 264 l 122 892 l 275 892 l 694 231 l 706 231 l 701 885 l 836 894 l 826 267 z "},"ǋ":{"ha":1338,"x_min":121,"x_max":1232,"o":"m 828 267 l 832 0 l 678 0 l 258 668 l 249 668 l 247 299 l 251 0 l 121 0 l 128 264 l 122 892 l 274 892 l 694 224 l 706 224 l 703 885 l 836 894 l 828 267 m 1232 640 l 1221 281 l 1229 31 q 1181 -147 1229 -78 q 1021 -269 1133 -215 l 969 -207 l 969 -192 q 1067 -103 1039 -151 q 1096 25 1096 -56 l 1097 268 l 1092 547 l 969 547 l 960 557 l 968 638 l 1094 638 l 1226 643 l 1232 640 m 1142 939 q 1196 919 1176 939 q 1215 863 1215 899 q 1194 803 1215 825 q 1138 781 1174 781 q 1081 801 1101 781 q 1061 858 1061 822 q 1083 917 1061 894 q 1142 939 1104 939 z "},"Ṉ":{"ha":956,"x_min":121,"x_max":836,"o":"m 828 267 l 832 0 l 678 0 l 258 668 l 249 668 l 247 299 l 251 0 l 121 0 l 128 264 l 122 892 l 274 892 l 694 224 l 706 224 l 703 885 l 836 894 l 828 267 m 649 -147 l 642 -228 l 308 -228 l 299 -218 l 304 -137 l 639 -137 l 649 -147 z "},"Ñ":{"ha":956,"x_min":121,"x_max":836,"o":"m 828 267 l 832 0 l 678 0 l 258 668 l 249 668 l 247 299 l 251 0 l 121 0 l 128 264 l 122 892 l 274 892 l 694 224 l 706 224 l 703 885 l 836 894 l 828 267 m 703 1154 l 703 1142 l 613 1035 l 599 1028 q 486 1056 574 1032 q 383 1079 404 1079 q 357 1068 369 1079 q 322 1033 344 1057 l 301 1011 l 288 1011 l 244 1056 l 244 1068 l 335 1175 l 350 1181 q 464 1154 388 1175 q 565 1131 546 1131 q 593 1142 579 1131 q 624 1172 607 1154 q 647 1199 640 1190 l 661 1199 l 703 1154 z "},"O":{"ha":888,"x_min":47,"x_max":840,"o":"m 456 903 q 740 789 640 903 q 840 464 840 675 q 733 112 840 236 q 429 -12 626 -12 q 147 105 246 -12 q 47 438 47 222 q 153 782 47 661 q 456 903 260 903 m 444 786 q 256 705 318 786 q 194 454 194 624 q 255 184 194 269 q 442 99 315 99 q 631 181 569 99 q 692 436 692 263 q 631 702 692 618 q 444 786 571 786 z "},"Ó":{"ha":888,"x_min":47,"x_max":840,"o":"m 456 903 q 740 789 640 903 q 840 464 840 675 q 733 112 840 236 q 429 -12 626 -12 q 147 105 246 -12 q 47 438 47 222 q 153 782 47 661 q 456 903 260 903 m 444 786 q 256 705 318 786 q 194 454 194 624 q 255 184 194 269 q 442 99 315 99 q 631 181 569 99 q 692 436 692 263 q 631 702 692 618 q 444 786 571 786 m 599 1211 l 636 1126 l 631 1113 q 347 999 528 1068 l 333 1004 l 310 1065 q 583 1214 490 1158 l 599 1211 z "},"Ŏ":{"ha":888,"x_min":47,"x_max":840,"o":"m 456 903 q 740 789 640 903 q 840 464 840 675 q 733 112 840 236 q 429 -12 626 -12 q 147 105 246 -12 q 47 438 47 222 q 153 782 47 661 q 456 903 260 903 m 444 786 q 256 705 318 786 q 194 454 194 624 q 255 184 194 269 q 442 99 315 99 q 631 181 569 99 q 692 436 692 263 q 631 702 692 618 q 444 786 571 786 m 633 1139 q 562 1040 611 1075 q 443 1004 513 1004 q 326 1039 374 1004 q 256 1139 278 1074 l 292 1185 l 313 1185 q 363 1125 328 1146 q 446 1104 397 1104 q 528 1125 494 1104 q 579 1185 563 1146 l 600 1185 l 633 1139 z "},"Ǒ":{"ha":888,"x_min":47,"x_max":840,"o":"m 456 903 q 740 789 640 903 q 840 464 840 675 q 733 112 840 236 q 429 -12 626 -12 q 147 105 246 -12 q 47 438 47 222 q 153 782 47 661 q 456 903 260 903 m 444 786 q 256 705 318 786 q 194 454 194 624 q 255 184 194 269 q 442 99 315 99 q 631 181 569 99 q 692 436 692 263 q 631 702 692 618 q 444 786 571 786 m 633 1135 q 463 1001 533 1067 l 429 1001 q 257 1135 346 1075 l 282 1194 l 299 1194 l 347 1164 l 444 1103 q 567 1179 460 1113 l 592 1194 l 606 1194 l 633 1135 z "},"Ô":{"ha":888,"x_min":47,"x_max":840,"o":"m 456 903 q 740 789 640 903 q 840 464 840 675 q 733 112 840 236 q 429 -12 626 -12 q 147 105 246 -12 q 47 438 47 222 q 153 782 47 661 q 456 903 260 903 m 444 786 q 256 705 318 786 q 194 454 194 624 q 255 184 194 269 q 442 99 315 99 q 631 181 569 99 q 692 436 692 263 q 631 702 692 618 q 444 786 571 786 m 257 1075 q 428 1208 357 1143 l 461 1208 q 633 1075 544 1135 l 608 1015 l 592 1015 l 543 1046 l 446 1107 q 324 1031 431 1097 l 299 1015 l 285 1015 l 257 1075 z "},"Ố":{"ha":888,"x_min":47,"x_max":840,"o":"m 456 903 q 740 789 640 903 q 840 464 840 675 q 733 112 840 236 q 429 -12 626 -12 q 147 105 246 -12 q 47 438 47 222 q 153 782 47 661 q 456 903 260 903 m 444 786 q 256 705 318 786 q 194 454 194 624 q 255 184 194 269 q 442 99 315 99 q 631 181 569 99 q 692 436 692 263 q 631 702 692 618 q 444 786 571 786 m 686 1297 l 690 1285 l 582 1153 l 569 1153 l 519 1192 l 606 1329 l 618 1332 l 686 1297 m 256 1046 q 426 1179 357 1118 l 460 1179 q 632 1046 544 1107 l 606 988 l 590 988 l 444 1078 l 297 988 l 283 988 l 256 1046 z "},"Ộ":{"ha":888,"x_min":47,"x_max":840,"o":"m 268 1067 q 439 1200 368 1135 l 472 1200 q 644 1067 556 1126 l 619 1007 l 603 1007 l 554 1038 l 457 1099 q 335 1022 442 1089 l 310 1007 l 296 1007 l 268 1067 m 456 903 q 740 789 640 903 q 840 464 840 675 q 733 112 840 236 q 429 -12 626 -12 q 147 105 246 -12 q 47 438 47 222 q 153 782 47 661 q 456 903 260 903 m 444 786 q 256 705 318 786 q 194 454 194 624 q 255 184 194 269 q 442 99 315 99 q 631 181 569 99 q 692 436 692 263 q 631 702 692 618 q 444 786 571 786 m 446 -86 q 500 -106 481 -86 q 519 -162 519 -126 q 499 -222 519 -200 q 442 -244 478 -244 q 385 -224 406 -244 q 365 -167 365 -203 q 387 -108 365 -131 q 446 -86 408 -86 z "},"Ồ":{"ha":888,"x_min":47,"x_max":840,"o":"m 456 903 q 740 789 640 903 q 840 464 840 675 q 733 112 840 236 q 429 -12 626 -12 q 147 105 246 -12 q 47 438 47 222 q 153 782 47 661 q 456 903 260 903 m 444 786 q 256 705 318 786 q 194 454 194 624 q 255 184 194 269 q 442 99 315 99 q 631 181 569 99 q 692 436 692 263 q 631 702 692 618 q 444 786 571 786 m 481 1285 l 482 1297 l 550 1332 l 563 1329 l 651 1192 l 600 1153 l 589 1153 l 481 1285 m 256 1046 q 426 1179 357 1118 l 460 1179 q 632 1046 544 1107 l 606 988 l 590 988 l 444 1078 l 297 988 l 283 988 l 256 1046 z "},"Ổ":{"ha":888,"x_min":47,"x_max":840,"o":"m 456 903 q 740 789 640 903 q 840 464 840 675 q 733 112 840 236 q 429 -12 626 -12 q 147 105 246 -12 q 47 438 47 222 q 153 782 47 661 q 456 903 260 903 m 444 786 q 256 705 318 786 q 194 454 194 624 q 255 184 194 269 q 442 99 315 99 q 631 181 569 99 q 692 436 692 263 q 631 702 692 618 q 444 786 571 786 m 256 1075 q 426 1208 356 1143 l 460 1208 q 632 1075 543 1135 l 607 1015 l 590 1015 l 542 1046 l 444 1107 q 322 1031 429 1097 l 297 1015 l 283 1015 l 256 1075 m 556 1243 q 608 1291 589 1266 q 627 1334 627 1315 q 616 1356 627 1348 q 589 1363 606 1363 q 548 1354 570 1363 q 505 1330 525 1346 l 480 1371 q 543 1417 509 1401 q 610 1433 577 1433 q 679 1409 652 1433 q 706 1348 706 1385 q 691 1299 706 1323 q 635 1243 675 1276 l 663 1194 l 607 1163 l 556 1243 z "},"Ỗ":{"ha":888,"x_min":47,"x_max":840,"o":"m 456 903 q 740 789 640 903 q 840 464 840 675 q 733 112 840 236 q 429 -12 626 -12 q 147 105 246 -12 q 47 438 47 222 q 153 782 47 661 q 456 903 260 903 m 444 786 q 256 705 318 786 q 194 454 194 624 q 255 184 194 269 q 442 99 315 99 q 631 181 569 99 q 692 436 692 263 q 631 702 692 618 q 444 786 571 786 m 257 1075 q 428 1208 357 1143 l 461 1208 q 633 1075 544 1135 l 608 1015 l 592 1015 l 543 1046 l 446 1107 q 324 1031 431 1097 l 299 1015 l 285 1015 l 257 1075 m 672 1372 l 672 1358 l 582 1251 l 568 1246 q 453 1274 546 1249 q 353 1297 374 1297 q 326 1286 339 1297 q 292 1251 314 1275 l 271 1229 l 257 1229 l 215 1274 l 215 1286 l 307 1393 l 321 1399 q 433 1371 346 1394 q 536 1347 515 1347 q 562 1358 549 1347 q 592 1388 575 1369 q 618 1415 608 1406 l 631 1415 l 672 1372 z "},"Ȍ":{"ha":888,"x_min":47,"x_max":840,"o":"m 456 903 q 740 789 640 903 q 840 464 840 675 q 733 112 840 236 q 429 -12 626 -12 q 147 105 246 -12 q 47 438 47 222 q 153 782 47 661 q 456 903 260 903 m 444 786 q 256 705 318 786 q 194 454 194 624 q 255 184 194 269 q 442 99 315 99 q 631 181 569 99 q 692 436 692 263 q 631 702 692 618 q 444 786 571 786 m 361 996 l 349 999 q 179 1154 271 1068 l 182 1168 l 246 1213 l 258 1210 q 408 1035 308 1147 l 361 996 m 567 996 l 553 999 q 385 1154 439 1101 l 386 1168 l 451 1213 l 464 1210 q 613 1035 513 1149 l 567 996 z "},"Ö":{"ha":888,"x_min":47,"x_max":840,"o":"m 456 903 q 740 789 640 903 q 840 464 840 675 q 733 112 840 236 q 429 -12 626 -12 q 147 105 246 -12 q 47 438 47 222 q 153 782 47 661 q 456 903 260 903 m 444 786 q 256 705 318 786 q 194 454 194 624 q 255 184 194 269 q 442 99 315 99 q 631 181 569 99 q 692 436 692 263 q 631 702 692 618 q 444 786 571 786 m 335 1174 q 385 1155 367 1174 q 404 1104 404 1136 q 384 1049 404 1069 q 331 1028 364 1028 q 278 1047 296 1028 q 260 1099 260 1065 q 280 1153 260 1133 q 335 1174 300 1174 m 563 1174 q 614 1155 596 1174 q 632 1104 632 1136 q 612 1049 632 1069 q 558 1028 592 1028 q 506 1047 525 1028 q 488 1099 488 1065 q 508 1153 488 1133 q 563 1174 528 1174 z "},"Ȫ":{"ha":888,"x_min":47,"x_max":840,"o":"m 456 903 q 740 789 640 903 q 840 464 840 675 q 733 112 840 236 q 429 -12 626 -12 q 147 105 246 -12 q 47 438 47 222 q 153 782 47 661 q 456 903 260 903 m 444 786 q 256 705 318 786 q 194 454 194 624 q 255 184 194 269 q 442 99 315 99 q 631 181 569 99 q 692 436 692 263 q 631 702 692 618 q 444 786 571 786 m 626 1311 l 618 1229 l 275 1229 l 265 1240 l 272 1322 l 617 1322 l 626 1311 m 332 1143 q 381 1125 364 1143 q 399 1075 399 1107 q 379 1023 399 1043 q 328 1003 360 1003 q 278 1021 296 1003 q 260 1071 260 1039 q 280 1123 260 1103 q 332 1143 300 1143 m 560 1143 q 609 1125 592 1143 q 626 1075 626 1107 q 607 1023 626 1043 q 556 1003 588 1003 q 506 1021 524 1003 q 488 1071 488 1039 q 508 1123 488 1103 q 560 1143 528 1143 z "},"Ȱ":{"ha":888,"x_min":47,"x_max":840,"o":"m 456 903 q 740 789 640 903 q 840 464 840 675 q 733 112 840 236 q 429 -12 626 -12 q 147 105 246 -12 q 47 438 47 222 q 153 782 47 661 q 456 903 260 903 m 444 786 q 256 705 318 786 q 194 454 194 624 q 255 184 194 269 q 442 99 315 99 q 631 181 569 99 q 692 436 692 263 q 631 702 692 618 q 444 786 571 786 m 447 1158 q 501 1138 482 1158 q 521 1082 521 1118 q 500 1022 521 1044 q 443 1000 479 1000 q 387 1021 407 1000 q 367 1078 367 1042 q 388 1136 367 1114 q 447 1158 410 1158 m 606 1299 l 599 1217 l 293 1217 l 283 1228 l 289 1308 l 596 1308 l 606 1299 z "},"Ọ":{"ha":888,"x_min":47,"x_max":840,"o":"m 456 903 q 740 789 640 903 q 840 464 840 675 q 733 112 840 236 q 429 -12 626 -12 q 147 105 246 -12 q 47 438 47 222 q 153 782 47 661 q 456 903 260 903 m 444 786 q 256 705 318 786 q 194 454 194 624 q 255 184 194 269 q 442 99 315 99 q 631 181 569 99 q 692 436 692 263 q 631 702 692 618 q 444 786 571 786 m 446 -86 q 500 -106 481 -86 q 519 -162 519 -126 q 499 -222 519 -200 q 442 -244 478 -244 q 385 -224 406 -244 q 365 -167 365 -203 q 387 -108 365 -131 q 446 -86 408 -86 z "},"Ò":{"ha":888,"x_min":47,"x_max":840,"o":"m 456 903 q 740 789 640 903 q 840 464 840 675 q 733 112 840 236 q 429 -12 626 -12 q 147 105 246 -12 q 47 438 47 222 q 153 782 47 661 q 456 903 260 903 m 444 786 q 256 705 318 786 q 194 454 194 624 q 255 184 194 269 q 442 99 315 99 q 631 181 569 99 q 692 436 692 263 q 631 702 692 618 q 444 786 571 786 m 332 1214 q 607 1065 444 1147 l 583 1004 l 569 999 q 286 1113 389 1068 l 281 1126 l 317 1211 l 332 1214 z "},"Ỏ":{"ha":888,"x_min":47,"x_max":840,"o":"m 456 903 q 740 789 640 903 q 840 464 840 675 q 733 112 840 236 q 429 -12 626 -12 q 147 105 246 -12 q 47 438 47 222 q 153 782 47 661 q 456 903 260 903 m 444 786 q 256 705 318 786 q 194 454 194 624 q 255 184 194 269 q 442 99 315 99 q 631 181 569 99 q 692 436 692 263 q 631 702 692 618 q 444 786 571 786 m 397 1042 q 452 1092 432 1067 q 472 1138 472 1118 q 461 1160 472 1153 q 432 1168 450 1168 q 389 1159 413 1168 q 344 1133 365 1150 l 318 1176 q 384 1225 349 1208 q 454 1242 419 1242 q 527 1217 499 1242 q 556 1153 556 1192 q 539 1101 556 1126 q 481 1042 522 1076 l 510 990 l 451 958 l 397 1042 z "},"Ơ":{"ha":922,"x_min":53,"x_max":871,"o":"m 871 926 q 837 837 871 874 q 746 786 803 800 q 844 461 844 675 q 738 111 844 235 q 436 -12 631 -12 q 153 105 253 -12 q 53 436 53 222 q 101 688 53 583 q 237 848 149 793 q 444 903 325 903 q 534 895 496 903 q 622 874 572 888 q 694 858 674 858 q 744 874 725 858 q 763 918 763 890 q 714 1013 763 968 l 715 1026 q 783 1053 756 1053 q 844 1015 817 1053 q 871 926 871 976 m 447 99 q 635 181 574 99 q 697 435 697 263 q 638 702 697 618 q 449 786 578 786 q 261 705 322 786 q 200 453 200 624 q 260 183 200 268 q 447 99 321 99 z "},"Ớ":{"ha":922,"x_min":53,"x_max":871,"o":"m 871 926 q 837 837 871 874 q 746 786 803 800 q 844 461 844 675 q 738 111 844 235 q 436 -12 631 -12 q 153 105 253 -12 q 53 436 53 222 q 101 688 53 583 q 237 848 149 793 q 444 903 325 903 q 534 895 496 903 q 622 874 572 888 q 694 858 674 858 q 744 874 725 858 q 763 918 763 890 q 714 1013 763 968 l 715 1026 q 783 1053 756 1053 q 844 1015 817 1053 q 871 926 871 976 m 447 99 q 635 181 574 99 q 697 435 697 263 q 638 702 697 618 q 449 786 578 786 q 261 705 322 786 q 200 453 200 624 q 260 183 200 268 q 447 99 321 99 m 604 1211 l 642 1126 l 636 1113 q 353 999 533 1068 l 339 1004 l 315 1065 q 589 1214 496 1158 l 604 1211 z "},"Ợ":{"ha":894,"x_min":53,"x_max":871,"o":"m 871 926 q 837 837 871 874 q 746 786 803 800 q 844 461 844 675 q 738 111 844 235 q 436 -12 631 -12 q 153 105 253 -12 q 53 436 53 222 q 101 688 53 583 q 237 848 149 793 q 444 903 325 903 q 534 895 496 903 q 622 874 572 888 q 694 858 674 858 q 744 874 725 858 q 763 918 763 890 q 714 1013 763 968 l 715 1026 q 783 1053 756 1053 q 844 1015 817 1053 q 871 926 871 976 m 447 99 q 635 181 574 99 q 697 435 697 263 q 638 702 697 618 q 449 786 578 786 q 261 705 322 786 q 200 453 200 624 q 260 183 200 268 q 447 99 321 99 m 447 -86 q 501 -106 482 -86 q 521 -162 521 -126 q 500 -222 521 -200 q 443 -244 479 -244 q 387 -224 407 -244 q 367 -167 367 -203 q 388 -108 367 -131 q 447 -86 410 -86 z "},"Ờ":{"ha":922,"x_min":53,"x_max":871,"o":"m 871 926 q 837 837 871 874 q 746 786 803 800 q 844 461 844 675 q 738 111 844 235 q 436 -12 631 -12 q 153 105 253 -12 q 53 436 53 222 q 101 688 53 583 q 237 848 149 793 q 444 903 325 903 q 534 895 496 903 q 622 874 572 888 q 694 858 674 858 q 744 874 725 858 q 763 918 763 890 q 714 1013 763 968 l 715 1026 q 783 1053 756 1053 q 844 1015 817 1053 q 871 926 871 976 m 447 99 q 635 181 574 99 q 697 435 697 263 q 638 702 697 618 q 449 786 578 786 q 261 705 322 786 q 200 453 200 624 q 260 183 200 268 q 447 99 321 99 m 338 1214 q 613 1065 450 1147 l 589 1004 l 575 999 q 292 1113 394 1068 l 286 1126 l 322 1211 l 338 1214 z "},"Ở":{"ha":922,"x_min":53,"x_max":871,"o":"m 871 926 q 837 837 871 874 q 746 786 803 800 q 844 461 844 675 q 738 111 844 235 q 436 -12 631 -12 q 153 105 253 -12 q 53 436 53 222 q 101 688 53 583 q 237 848 149 793 q 444 903 325 903 q 534 895 496 903 q 622 874 572 888 q 694 858 674 858 q 744 874 725 858 q 763 918 763 890 q 714 1013 763 968 l 715 1026 q 783 1053 756 1053 q 844 1015 817 1053 q 871 926 871 976 m 447 99 q 635 181 574 99 q 697 435 697 263 q 638 702 697 618 q 449 786 578 786 q 261 705 322 786 q 200 453 200 624 q 260 183 200 268 q 447 99 321 99 m 403 1042 q 458 1092 438 1067 q 478 1138 478 1118 q 467 1160 478 1153 q 438 1168 456 1168 q 394 1159 418 1168 q 350 1133 371 1150 l 324 1176 q 390 1225 354 1208 q 460 1242 425 1242 q 533 1217 504 1242 q 561 1153 561 1192 q 544 1101 561 1126 q 486 1042 528 1076 l 515 990 l 457 958 l 403 1042 z "},"Ỡ":{"ha":922,"x_min":53,"x_max":871,"o":"m 871 926 q 837 837 871 874 q 746 786 803 800 q 844 461 844 675 q 738 111 844 235 q 436 -12 631 -12 q 153 105 253 -12 q 53 436 53 222 q 101 688 53 583 q 237 848 149 793 q 444 903 325 903 q 534 895 496 903 q 622 874 572 888 q 694 858 674 858 q 744 874 725 858 q 763 918 763 890 q 714 1013 763 968 l 715 1026 q 783 1053 756 1053 q 844 1015 817 1053 q 871 926 871 976 m 447 99 q 635 181 574 99 q 697 435 697 263 q 638 702 697 618 q 449 786 578 786 q 261 705 322 786 q 200 453 200 624 q 260 183 200 268 q 447 99 321 99 m 678 1154 l 678 1142 l 588 1035 l 574 1028 q 461 1056 549 1032 q 358 1079 379 1079 q 332 1068 344 1079 q 297 1033 319 1057 l 276 1011 l 263 1011 l 219 1056 l 219 1068 l 310 1175 l 325 1181 q 439 1154 363 1175 q 540 1131 521 1131 q 568 1142 554 1131 q 599 1172 582 1154 q 622 1199 615 1190 l 636 1199 l 678 1154 z "},"Ő":{"ha":888,"x_min":47,"x_max":840,"o":"m 456 903 q 740 789 640 903 q 840 464 840 675 q 733 112 840 236 q 429 -12 626 -12 q 147 105 246 -12 q 47 438 47 222 q 153 782 47 661 q 456 903 260 903 m 444 786 q 256 705 318 786 q 194 454 194 624 q 255 184 194 269 q 442 99 315 99 q 631 181 569 99 q 692 436 692 263 q 631 702 692 618 q 444 786 571 786 m 276 1035 q 425 1210 357 1126 l 439 1213 l 503 1168 l 504 1154 q 336 999 396 1051 l 322 996 l 276 1035 m 518 1076 q 631 1210 631 1210 l 642 1213 l 708 1168 l 710 1154 q 596 1049 707 1151 l 542 999 l 528 996 l 482 1035 l 518 1076 z "},"Ȏ":{"ha":888,"x_min":47,"x_max":840,"o":"m 456 903 q 740 789 640 903 q 840 464 840 675 q 733 112 840 236 q 429 -12 626 -12 q 147 105 246 -12 q 47 438 47 222 q 153 782 47 661 q 456 903 260 903 m 444 786 q 256 705 318 786 q 194 454 194 624 q 255 184 194 269 q 442 99 315 99 q 631 181 569 99 q 692 436 692 263 q 631 702 692 618 q 444 786 571 786 m 254 1054 q 321 1175 272 1131 q 447 1219 369 1219 q 569 1175 524 1219 q 633 1054 615 1131 l 596 1004 l 575 1004 q 527 1090 561 1061 q 443 1119 493 1119 q 359 1090 393 1119 q 311 1004 325 1061 l 290 1004 l 254 1054 z "},"Ō":{"ha":888,"x_min":47,"x_max":840,"o":"m 456 903 q 740 789 640 903 q 840 464 840 675 q 733 112 840 236 q 429 -12 626 -12 q 147 105 246 -12 q 47 438 47 222 q 153 782 47 661 q 456 903 260 903 m 444 786 q 256 705 318 786 q 194 454 194 624 q 255 184 194 269 q 442 99 315 99 q 631 181 569 99 q 692 436 692 263 q 631 702 692 618 q 444 786 571 786 m 649 1138 l 642 1056 l 250 1056 l 240 1067 l 246 1147 l 638 1147 l 649 1138 z "},"Ṓ":{"ha":888,"x_min":47,"x_max":840,"o":"m 456 903 q 740 789 640 903 q 840 464 840 675 q 733 112 840 236 q 429 -12 626 -12 q 147 105 246 -12 q 47 438 47 222 q 153 782 47 661 q 456 903 260 903 m 444 786 q 256 705 318 786 q 194 454 194 624 q 255 184 194 269 q 442 99 315 99 q 631 181 569 99 q 692 436 692 263 q 631 702 692 618 q 444 786 571 786 m 589 1349 l 610 1260 l 601 1247 q 304 1185 467 1215 l 290 1192 l 276 1257 q 575 1356 433 1303 l 589 1349 m 606 1103 l 599 1021 l 293 1021 l 283 1032 l 289 1113 l 596 1113 l 606 1103 z "},"Ṑ":{"ha":888,"x_min":47,"x_max":840,"o":"m 456 903 q 740 789 640 903 q 840 464 840 675 q 733 112 840 236 q 429 -12 626 -12 q 147 105 246 -12 q 47 438 47 222 q 153 782 47 661 q 456 903 260 903 m 444 786 q 256 705 318 786 q 194 454 194 624 q 255 184 194 269 q 442 99 315 99 q 631 181 569 99 q 692 436 692 263 q 631 702 692 618 q 444 786 571 786 m 585 1185 q 286 1247 432 1213 l 279 1260 l 300 1349 l 314 1356 q 611 1257 460 1301 l 599 1192 l 585 1185 m 606 1103 l 599 1021 l 293 1021 l 283 1032 l 289 1113 l 596 1113 l 606 1103 z "},"Ǫ":{"ha":888,"x_min":47,"x_max":840,"o":"m 456 903 q 740 789 640 903 q 840 464 840 675 q 733 112 840 236 q 429 -12 626 -12 q 147 105 246 -12 q 47 438 47 222 q 153 782 47 661 q 456 903 260 903 m 444 786 q 256 705 318 786 q 194 454 194 624 q 255 184 194 269 q 442 99 315 99 q 631 181 569 99 q 692 436 692 263 q 631 702 692 618 q 444 786 571 786 m 528 -275 q 435 -246 469 -275 q 400 -167 400 -217 q 431 -78 400 -122 q 556 43 463 -35 l 639 43 q 521 -90 547 -56 q 494 -147 494 -124 q 540 -187 494 -187 q 642 -139 585 -187 l 650 -140 l 671 -211 q 528 -275 603 -275 z "},"Ø":{"ha":888,"x_min":47,"x_max":840,"o":"m 683 840 q 801 692 761 788 q 840 464 840 597 q 733 112 840 236 q 429 -12 626 -12 q 292 8 354 -12 l 217 -151 l 133 -118 l 126 -106 l 201 54 q 87 207 126 110 q 47 438 47 304 q 153 782 47 661 q 456 903 260 903 q 592 883 526 903 l 651 1013 l 733 981 l 742 965 l 683 840 m 194 454 q 260 178 194 261 l 539 772 q 444 786 499 786 q 256 705 318 786 q 194 454 194 624 m 442 99 q 631 181 569 99 q 692 436 692 263 q 624 713 692 631 l 342 115 q 442 99 386 99 z "},"Ǿ":{"ha":888,"x_min":47,"x_max":840,"o":"m 683 840 q 801 692 761 788 q 840 464 840 597 q 733 112 840 236 q 429 -12 626 -12 q 292 8 354 -12 l 217 -151 l 133 -118 l 126 -106 l 201 54 q 87 207 126 110 q 47 438 47 304 q 153 782 47 661 q 456 903 260 903 q 592 883 526 903 l 651 1013 l 733 981 l 742 965 l 683 840 m 194 454 q 260 178 194 261 l 539 772 q 444 786 499 786 q 256 705 318 786 q 194 454 194 624 m 442 99 q 631 181 569 99 q 692 436 692 263 q 624 713 692 631 l 342 115 q 442 99 386 99 m 597 1213 l 635 1128 l 629 1114 q 346 1000 526 1069 l 332 1006 l 308 1067 q 582 1215 489 1160 l 597 1213 z "},"Õ":{"ha":888,"x_min":47,"x_max":840,"o":"m 456 903 q 740 789 640 903 q 840 464 840 675 q 733 112 840 236 q 429 -12 626 -12 q 147 105 246 -12 q 47 438 47 222 q 153 782 47 661 q 456 903 260 903 m 444 786 q 256 705 318 786 q 194 454 194 624 q 255 184 194 269 q 442 99 315 99 q 631 181 569 99 q 692 436 692 263 q 631 702 692 618 q 444 786 571 786 m 672 1154 l 672 1142 l 582 1035 l 568 1028 q 456 1056 543 1032 q 353 1079 374 1079 q 326 1068 339 1079 q 292 1033 314 1057 l 271 1011 l 257 1011 l 214 1056 l 214 1068 l 304 1175 l 319 1181 q 433 1154 357 1175 q 535 1131 515 1131 q 563 1142 549 1131 q 593 1172 576 1154 q 617 1199 610 1190 l 631 1199 l 672 1154 z "},"Ṍ":{"ha":888,"x_min":47,"x_max":840,"o":"m 456 903 q 740 789 640 903 q 840 464 840 675 q 733 112 840 236 q 429 -12 626 -12 q 147 105 246 -12 q 47 438 47 222 q 153 782 47 661 q 456 903 260 903 m 444 786 q 256 705 318 786 q 194 454 194 624 q 255 184 194 269 q 442 99 315 99 q 631 181 569 99 q 692 436 692 263 q 631 702 692 618 q 444 786 571 786 m 585 1369 l 606 1281 l 597 1267 l 544 1256 q 301 1206 400 1224 l 288 1213 l 274 1278 q 571 1376 433 1325 l 585 1369 m 646 1129 l 646 1117 l 565 1010 l 551 1006 q 451 1033 511 1013 q 369 1054 386 1054 q 344 1042 357 1054 q 317 1012 331 1029 q 297 988 303 994 l 285 988 l 242 1032 l 242 1044 l 324 1150 l 338 1156 q 439 1128 365 1151 q 519 1107 504 1107 q 545 1119 533 1107 q 571 1148 557 1131 q 592 1174 585 1165 l 604 1174 l 646 1129 z "},"Ṏ":{"ha":888,"x_min":47,"x_max":840,"o":"m 456 903 q 740 789 640 903 q 840 464 840 675 q 733 112 840 236 q 429 -12 626 -12 q 147 105 246 -12 q 47 438 47 222 q 153 782 47 661 q 456 903 260 903 m 444 786 q 256 705 318 786 q 194 454 194 624 q 255 184 194 269 q 442 99 315 99 q 631 181 569 99 q 692 436 692 263 q 631 702 692 618 q 444 786 571 786 m 646 1129 l 646 1117 l 565 1010 l 551 1006 q 451 1033 511 1013 q 369 1054 386 1054 q 344 1042 357 1054 q 318 1014 332 1031 q 297 989 304 997 l 285 989 l 242 1032 l 242 1044 l 324 1150 l 338 1156 q 439 1128 365 1151 q 519 1107 504 1107 q 545 1119 533 1107 q 571 1148 557 1131 q 592 1174 585 1165 l 604 1174 l 646 1129 m 335 1369 q 385 1351 367 1369 q 404 1300 404 1332 q 384 1244 404 1265 q 331 1224 364 1224 q 278 1242 296 1224 q 260 1294 260 1261 q 280 1349 260 1329 q 335 1369 300 1369 m 563 1369 q 614 1351 596 1369 q 632 1300 632 1332 q 612 1244 632 1265 q 558 1224 592 1224 q 506 1242 525 1224 q 488 1294 488 1261 q 508 1349 488 1329 q 563 1369 528 1369 z "},"Ȭ":{"ha":888,"x_min":47,"x_max":840,"o":"m 456 903 q 740 789 640 903 q 840 464 840 675 q 733 112 840 236 q 429 -12 626 -12 q 147 105 246 -12 q 47 438 47 222 q 153 782 47 661 q 456 903 260 903 m 444 786 q 256 705 318 786 q 194 454 194 624 q 255 184 194 269 q 442 99 315 99 q 631 181 569 99 q 692 436 692 263 q 631 702 692 618 q 444 786 571 786 m 646 1129 l 646 1117 l 565 1010 l 551 1006 q 451 1033 511 1013 q 369 1054 386 1054 q 344 1042 357 1054 q 318 1014 332 1031 q 297 989 304 997 l 285 989 l 242 1032 l 242 1044 l 324 1150 l 338 1156 q 439 1128 365 1151 q 519 1107 504 1107 q 545 1119 533 1107 q 571 1148 557 1131 q 592 1174 585 1165 l 604 1174 l 646 1129 m 606 1333 l 599 1251 l 293 1251 l 283 1263 l 289 1343 l 596 1343 l 606 1333 z "},"Œ":{"ha":1192,"x_min":47,"x_max":1164,"o":"m 492 908 q 621 900 540 908 q 735 892 699 892 l 1154 892 l 1164 879 l 1153 769 l 950 775 l 771 775 l 768 514 l 922 511 l 1078 515 l 1086 504 l 1075 394 l 913 399 l 765 396 l 765 275 l 767 117 l 933 115 l 1153 122 l 1163 110 l 1151 0 l 735 0 q 657 -3 700 1 q 601 -8 614 -7 q 467 -17 513 -17 q 157 103 267 -17 q 47 439 47 222 q 164 785 47 663 q 492 908 281 908 m 479 790 q 265 706 335 790 q 194 447 194 621 q 265 185 194 271 q 481 99 335 99 q 552 103 517 99 q 604 113 588 107 q 628 132 621 119 q 636 167 636 144 l 631 717 q 625 754 629 742 q 611 772 621 767 q 560 785 597 779 q 479 790 522 790 z "},"P":{"ha":742,"x_min":119,"x_max":703,"o":"m 422 893 q 630 824 557 893 q 703 626 703 756 q 610 389 703 476 q 357 301 518 301 l 258 301 l 258 281 l 265 0 l 119 0 l 129 268 l 119 892 l 422 893 m 399 413 q 515 478 475 428 q 554 614 554 529 q 512 738 554 697 q 383 781 469 778 l 265 776 l 260 415 l 399 413 z "},"Þ":{"ha":750,"x_min":121,"x_max":708,"o":"m 426 744 q 635 676 563 744 q 708 476 708 608 q 618 240 708 324 q 361 157 528 157 l 263 154 l 265 0 l 121 0 l 128 268 l 122 743 l 121 892 l 267 892 l 265 743 l 426 744 m 400 267 q 558 467 558 299 q 515 589 558 549 q 386 633 472 629 l 264 629 l 260 281 l 260 271 l 400 267 z "},"Q":{"ha":893,"x_min":47,"x_max":1019,"o":"m 1019 -175 q 954 -267 992 -232 l 942 -272 q 464 -11 675 -190 q 433 -12 454 -12 q 147 105 247 -12 q 47 438 47 222 q 153 782 47 661 q 457 903 260 903 q 741 789 642 903 q 840 461 840 675 q 777 174 840 289 q 594 15 714 60 q 1014 -158 790 -114 l 1019 -175 m 194 451 q 256 188 194 272 q 444 103 317 103 q 630 185 568 103 q 692 442 692 268 q 631 701 692 618 q 443 785 569 785 q 255 704 315 785 q 194 451 194 624 z "},"R":{"ha":792,"x_min":119,"x_max":751,"o":"m 528 357 q 751 33 622 206 l 750 17 q 613 -12 683 -6 l 596 -1 q 410 318 481 188 l 258 318 l 258 281 l 265 0 l 119 0 l 129 268 l 119 892 l 422 893 q 631 826 557 893 q 704 633 704 758 q 658 473 704 544 q 528 357 611 401 m 261 435 l 414 431 q 554 622 554 474 q 512 739 554 700 q 383 781 469 778 l 265 776 l 261 435 z "},"Ŕ":{"ha":792,"x_min":119,"x_max":751,"o":"m 528 357 q 751 33 622 206 l 750 17 q 613 -12 683 -6 l 596 -1 q 410 318 481 188 l 258 318 l 258 281 l 265 0 l 119 0 l 129 268 l 119 892 l 422 893 q 631 826 557 893 q 704 633 704 758 q 658 473 704 544 q 528 357 611 401 m 261 435 l 414 431 q 554 622 554 474 q 512 739 554 700 q 383 781 469 778 l 265 776 l 261 435 m 532 1233 l 585 1158 l 582 1144 q 331 972 472 1064 l 317 974 l 281 1029 q 518 1235 426 1147 l 532 1233 z "},"Ř":{"ha":792,"x_min":119,"x_max":751,"o":"m 528 357 q 751 33 622 206 l 750 17 q 613 -12 683 -6 l 596 -1 q 410 318 481 188 l 258 318 l 258 281 l 265 0 l 119 0 l 129 268 l 119 892 l 422 893 q 631 826 557 893 q 704 633 704 758 q 658 473 704 544 q 528 357 611 401 m 261 435 l 414 431 q 554 622 554 474 q 512 739 554 700 q 383 781 469 778 l 265 776 l 261 435 m 585 1135 q 414 1001 485 1067 l 381 1001 q 208 1135 297 1075 l 233 1194 l 250 1194 l 299 1164 l 396 1103 q 518 1179 411 1113 l 543 1194 l 557 1194 l 585 1135 z "},"Ŗ":{"ha":792,"x_min":119,"x_max":751,"o":"m 528 357 q 751 33 622 206 l 750 17 q 613 -12 683 -6 l 596 -1 q 410 318 481 188 l 258 318 l 258 281 l 265 0 l 119 0 l 129 268 l 119 892 l 422 893 q 631 826 557 893 q 704 633 704 758 q 658 473 704 544 q 528 357 611 401 m 261 435 l 414 431 q 554 622 554 474 q 512 739 554 700 q 383 781 469 778 l 265 776 l 261 435 m 431 -68 q 485 -164 485 -107 q 350 -354 485 -257 l 308 -315 l 307 -306 q 376 -189 376 -250 q 338 -121 376 -150 l 338 -110 q 431 -68 385 -79 z "},"Ȑ":{"ha":792,"x_min":119,"x_max":751,"o":"m 528 357 q 751 33 622 206 l 750 17 q 613 -12 683 -6 l 596 -1 q 410 318 481 188 l 258 318 l 258 281 l 265 0 l 119 0 l 129 268 l 119 892 l 422 893 q 631 826 557 893 q 704 633 704 758 q 658 473 704 544 q 528 357 611 401 m 261 435 l 414 431 q 554 622 554 474 q 512 739 554 700 q 383 781 469 778 l 265 776 l 261 435 m 313 996 l 300 999 q 131 1154 222 1068 l 133 1168 l 197 1213 l 210 1210 q 360 1035 260 1147 l 313 996 m 518 996 l 504 999 q 336 1154 390 1101 l 338 1168 l 403 1213 l 415 1210 q 564 1035 464 1149 l 518 996 z "},"Ṛ":{"ha":792,"x_min":119,"x_max":751,"o":"m 528 357 q 751 33 622 206 l 750 17 q 613 -12 683 -6 l 596 -1 q 410 318 481 188 l 258 318 l 258 281 l 265 0 l 119 0 l 129 268 l 119 892 l 422 893 q 631 826 557 893 q 704 633 704 758 q 658 473 704 544 q 528 357 611 401 m 261 435 l 414 431 q 554 622 554 474 q 512 739 554 700 q 383 781 469 778 l 265 776 l 261 435 m 399 -86 q 453 -106 433 -86 q 472 -162 472 -126 q 451 -222 472 -200 q 394 -244 431 -244 q 338 -224 358 -244 q 318 -167 318 -203 q 340 -108 318 -131 q 399 -86 361 -86 z "},"Ȓ":{"ha":792,"x_min":119,"x_max":751,"o":"m 528 357 q 751 33 622 206 l 750 17 q 613 -12 683 -6 l 596 -1 q 410 318 481 188 l 258 318 l 258 281 l 265 0 l 119 0 l 129 268 l 119 892 l 422 893 q 631 826 557 893 q 704 633 704 758 q 658 473 704 544 q 528 357 611 401 m 261 435 l 414 431 q 554 622 554 474 q 512 739 554 700 q 383 781 469 778 l 265 776 l 261 435 m 206 1054 q 272 1175 224 1131 q 399 1219 321 1219 q 521 1175 475 1219 q 585 1054 567 1131 l 547 1004 l 526 1004 q 478 1090 513 1061 q 394 1119 444 1119 q 310 1090 344 1119 q 263 1004 276 1061 l 242 1004 l 206 1054 z "},"Ṟ":{"ha":792,"x_min":119,"x_max":751,"o":"m 528 357 q 751 33 622 206 l 750 17 q 613 -12 683 -6 l 596 -1 q 410 318 481 188 l 258 318 l 258 281 l 265 0 l 119 0 l 129 268 l 119 892 l 422 893 q 631 826 557 893 q 704 633 704 758 q 658 473 704 544 q 528 357 611 401 m 261 435 l 414 431 q 554 622 554 474 q 512 739 554 700 q 383 781 469 778 l 265 776 l 261 435 m 571 -147 l 564 -228 l 231 -228 l 221 -218 l 226 -137 l 561 -137 l 571 -147 z "},"S":{"ha":671,"x_min":53,"x_max":617,"o":"m 381 901 q 592 857 486 901 l 568 726 l 546 718 q 454 768 501 750 q 364 786 407 786 q 256 749 296 786 q 215 661 215 711 q 256 581 215 613 q 382 510 296 550 q 503 444 457 474 q 583 367 550 415 q 617 253 617 319 q 577 120 617 181 q 466 24 538 60 q 303 -11 394 -11 q 176 4 242 -11 q 53 49 111 19 l 71 190 l 89 199 q 202 126 140 150 q 317 101 264 101 q 432 140 389 101 q 475 231 475 178 q 433 316 475 283 q 306 389 392 349 q 186 452 232 424 q 108 528 140 481 q 75 642 75 575 q 114 774 75 714 q 222 867 153 833 q 381 901 292 901 z "},"Ś":{"ha":671,"x_min":53,"x_max":617,"o":"m 381 901 q 592 857 486 901 l 568 726 l 546 718 q 454 768 501 750 q 364 786 407 786 q 256 749 296 786 q 215 661 215 711 q 256 581 215 613 q 382 510 296 550 q 503 444 457 474 q 583 367 550 415 q 617 253 617 319 q 577 120 617 181 q 466 24 538 60 q 303 -11 394 -11 q 176 4 242 -11 q 53 49 111 19 l 71 190 l 89 199 q 202 126 140 150 q 317 101 264 101 q 432 140 389 101 q 475 231 475 178 q 433 316 475 283 q 306 389 392 349 q 186 452 232 424 q 108 528 140 481 q 75 642 75 575 q 114 774 75 714 q 222 867 153 833 q 381 901 292 901 m 488 1233 l 540 1158 l 538 1144 q 286 972 428 1064 l 272 974 l 236 1029 q 474 1235 382 1147 l 488 1233 z "},"Ṥ":{"ha":671,"x_min":53,"x_max":617,"o":"m 381 901 q 592 857 486 901 l 568 726 l 546 718 q 454 768 501 750 q 364 786 407 786 q 256 749 296 786 q 215 661 215 711 q 256 581 215 613 q 382 510 296 550 q 503 444 457 474 q 583 367 550 415 q 617 253 617 319 q 577 120 617 181 q 466 24 538 60 q 303 -11 394 -11 q 176 4 242 -11 q 53 49 111 19 l 71 190 l 89 199 q 202 126 140 150 q 317 101 264 101 q 432 140 389 101 q 475 231 475 178 q 433 316 475 283 q 306 389 392 349 q 186 452 232 424 q 108 528 140 481 q 75 642 75 575 q 114 774 75 714 q 222 867 153 833 q 381 901 292 901 m 506 1211 l 543 1126 l 538 1113 q 254 999 435 1068 l 240 1004 l 217 1065 q 490 1214 397 1158 l 506 1211 m 340 1394 q 394 1374 375 1394 q 414 1318 414 1354 q 393 1258 414 1281 q 336 1236 372 1236 q 280 1257 300 1236 q 260 1314 260 1278 q 281 1372 260 1350 q 340 1394 303 1394 z "},"Ꞌ":{"ha":179,"x_min":38,"x_max":157,"o":"m 157 843 l 118 463 l 49 450 l 38 464 l 40 847 l 149 857 l 157 843 z "},"Š":{"ha":671,"x_min":53,"x_max":617,"o":"m 381 901 q 592 857 486 901 l 568 726 l 546 718 q 454 768 501 750 q 364 786 407 786 q 256 749 296 786 q 215 661 215 711 q 256 581 215 613 q 382 510 296 550 q 503 444 457 474 q 583 367 550 415 q 617 253 617 319 q 577 120 617 181 q 466 24 538 60 q 303 -11 394 -11 q 176 4 242 -11 q 53 49 111 19 l 71 190 l 89 199 q 202 126 140 150 q 317 101 264 101 q 432 140 389 101 q 475 231 475 178 q 433 316 475 283 q 306 389 392 349 q 186 452 232 424 q 108 528 140 481 q 75 642 75 575 q 114 774 75 714 q 222 867 153 833 q 381 901 292 901 m 540 1135 q 369 1001 440 1067 l 336 1001 q 164 1135 253 1075 l 189 1194 l 206 1194 l 254 1164 l 351 1103 q 474 1179 367 1113 l 499 1194 l 513 1194 l 540 1135 z "},"Ṧ":{"ha":671,"x_min":53,"x_max":617,"o":"m 381 901 q 592 857 486 901 l 568 726 l 546 718 q 454 768 501 750 q 364 786 407 786 q 256 749 296 786 q 215 661 215 711 q 256 581 215 613 q 382 510 296 550 q 503 444 457 474 q 583 367 550 415 q 617 253 617 319 q 577 120 617 181 q 466 24 538 60 q 303 -11 394 -11 q 176 4 242 -11 q 53 49 111 19 l 71 190 l 89 199 q 202 126 140 150 q 317 101 264 101 q 432 140 389 101 q 475 231 475 178 q 433 316 475 283 q 306 389 392 349 q 186 452 232 424 q 108 528 140 481 q 75 642 75 575 q 114 774 75 714 q 222 867 153 833 q 381 901 292 901 m 540 1135 q 369 1001 440 1067 l 336 1001 q 164 1135 253 1075 l 189 1194 l 206 1194 l 254 1164 l 351 1103 q 474 1179 367 1113 l 499 1194 l 513 1194 l 540 1135 m 354 1379 q 408 1359 389 1379 q 428 1303 428 1339 q 407 1243 428 1265 q 350 1221 386 1221 q 294 1242 314 1221 q 274 1299 274 1263 q 295 1357 274 1335 q 354 1379 317 1379 z "},"Ş":{"ha":671,"x_min":53,"x_max":617,"o":"m 381 901 q 592 857 486 901 l 568 726 l 546 718 q 454 768 501 750 q 364 786 407 786 q 256 749 296 786 q 215 661 215 711 q 256 581 215 613 q 382 510 296 550 q 503 444 457 474 q 583 367 550 415 q 617 253 617 319 q 577 120 617 181 q 466 24 538 60 q 303 -11 394 -11 q 176 4 242 -11 q 53 49 111 19 l 71 190 l 89 199 q 202 126 140 150 q 317 101 264 101 q 432 140 389 101 q 475 231 475 178 q 433 316 475 283 q 306 389 392 349 q 186 452 232 424 q 108 528 140 481 q 75 642 75 575 q 114 774 75 714 q 222 867 153 833 q 381 901 292 901 m 344 -69 l 392 -97 q 435 -133 422 -114 q 447 -176 447 -151 q 414 -247 447 -219 q 326 -274 381 -274 q 219 -232 267 -274 l 232 -167 l 239 -164 q 278 -196 260 -185 q 318 -207 296 -207 q 347 -198 336 -207 q 358 -172 358 -189 q 332 -142 358 -154 l 264 -101 l 297 31 l 372 31 l 344 -69 z "},"Ŝ":{"ha":671,"x_min":53,"x_max":617,"o":"m 381 901 q 592 857 486 901 l 568 726 l 546 718 q 454 768 501 750 q 364 786 407 786 q 256 749 296 786 q 215 661 215 711 q 256 581 215 613 q 382 510 296 550 q 503 444 457 474 q 583 367 550 415 q 617 253 617 319 q 577 120 617 181 q 466 24 538 60 q 303 -11 394 -11 q 176 4 242 -11 q 53 49 111 19 l 71 190 l 89 199 q 202 126 140 150 q 317 101 264 101 q 432 140 389 101 q 475 231 475 178 q 433 316 475 283 q 306 389 392 349 q 186 452 232 424 q 108 528 140 481 q 75 642 75 575 q 114 774 75 714 q 222 867 153 833 q 381 901 292 901 m 154 1035 q 335 1225 233 1110 l 371 1225 q 550 1035 471 1110 l 513 979 l 499 979 q 353 1118 403 1063 q 207 979 304 1067 l 192 979 l 154 1035 z "},"Ș":{"ha":671,"x_min":53,"x_max":617,"o":"m 381 901 q 592 857 486 901 l 568 726 l 546 718 q 454 768 501 750 q 364 786 407 786 q 256 749 296 786 q 215 661 215 711 q 256 581 215 613 q 382 510 296 550 q 503 444 457 474 q 583 367 550 415 q 617 253 617 319 q 577 120 617 181 q 466 24 538 60 q 303 -11 394 -11 q 176 4 242 -11 q 53 49 111 19 l 71 190 l 89 199 q 202 126 140 150 q 317 101 264 101 q 432 140 389 101 q 475 231 475 178 q 433 316 475 283 q 306 389 392 349 q 186 452 232 424 q 108 528 140 481 q 75 642 75 575 q 114 774 75 714 q 222 867 153 833 q 381 901 292 901 m 360 -68 q 414 -164 414 -107 q 279 -354 414 -257 l 238 -315 l 236 -306 q 306 -189 306 -250 q 267 -121 306 -150 l 267 -110 q 360 -68 314 -79 z "},"Ṡ":{"ha":671,"x_min":53,"x_max":617,"o":"m 381 901 q 592 857 486 901 l 568 726 l 546 718 q 454 768 501 750 q 364 786 407 786 q 256 749 296 786 q 215 661 215 711 q 256 581 215 613 q 382 510 296 550 q 503 444 457 474 q 583 367 550 415 q 617 253 617 319 q 577 120 617 181 q 466 24 538 60 q 303 -11 394 -11 q 176 4 242 -11 q 53 49 111 19 l 71 190 l 89 199 q 202 126 140 150 q 317 101 264 101 q 432 140 389 101 q 475 231 475 178 q 433 316 475 283 q 306 389 392 349 q 186 452 232 424 q 108 528 140 481 q 75 642 75 575 q 114 774 75 714 q 222 867 153 833 q 381 901 292 901 m 354 1190 q 408 1170 389 1190 q 428 1114 428 1150 q 407 1054 428 1076 q 350 1032 386 1032 q 294 1053 314 1032 q 274 1110 274 1074 q 295 1168 274 1146 q 354 1190 317 1190 z "},"Ṣ":{"ha":671,"x_min":53,"x_max":617,"o":"m 381 901 q 592 857 486 901 l 568 726 l 546 718 q 454 768 501 750 q 364 786 407 786 q 256 749 296 786 q 215 661 215 711 q 256 581 215 613 q 382 510 296 550 q 503 444 457 474 q 583 367 550 415 q 617 253 617 319 q 577 120 617 181 q 466 24 538 60 q 303 -11 394 -11 q 176 4 242 -11 q 53 49 111 19 l 71 190 l 89 199 q 202 126 140 150 q 317 101 264 101 q 432 140 389 101 q 475 231 475 178 q 433 316 475 283 q 306 389 392 349 q 186 452 232 424 q 108 528 140 481 q 75 642 75 575 q 114 774 75 714 q 222 867 153 833 q 381 901 292 901 m 328 -86 q 382 -106 363 -86 q 401 -162 401 -126 q 381 -222 401 -200 q 324 -244 360 -244 q 267 -224 288 -244 q 247 -167 247 -203 q 269 -108 247 -131 q 328 -86 290 -86 z "},"Ṩ":{"ha":671,"x_min":53,"x_max":617,"o":"m 381 901 q 592 857 486 901 l 568 726 l 546 718 q 454 768 501 750 q 364 786 407 786 q 256 749 296 786 q 215 661 215 711 q 256 581 215 613 q 382 510 296 550 q 503 444 457 474 q 583 367 550 415 q 617 253 617 319 q 577 120 617 181 q 466 24 538 60 q 303 -11 394 -11 q 176 4 242 -11 q 53 49 111 19 l 71 190 l 89 199 q 202 126 140 150 q 317 101 264 101 q 432 140 389 101 q 475 231 475 178 q 433 316 475 283 q 306 389 392 349 q 186 452 232 424 q 108 528 140 481 q 75 642 75 575 q 114 774 75 714 q 222 867 153 833 q 381 901 292 901 m 328 -86 q 382 -106 363 -86 q 401 -162 401 -126 q 381 -222 401 -200 q 324 -244 360 -244 q 267 -224 288 -244 q 247 -167 247 -203 q 269 -108 247 -131 q 328 -86 290 -86 m 354 1190 q 408 1170 389 1190 q 428 1114 428 1150 q 407 1054 428 1076 q 350 1032 386 1032 q 294 1053 314 1032 q 274 1110 274 1074 q 295 1168 274 1146 q 354 1190 317 1190 z "},"ẞ":{"ha":899,"x_min":93,"x_max":863,"o":"m 456 901 q 622 878 540 901 q 797 811 703 856 l 803 786 l 585 514 q 741 441 682 476 q 831 358 800 406 q 863 242 863 310 q 824 106 863 163 q 721 19 786 49 q 575 -11 656 -11 q 454 4 517 -11 q 338 49 392 19 l 357 190 l 374 199 q 480 127 424 153 q 586 101 536 101 q 683 137 646 101 q 721 226 721 172 q 651 340 721 292 q 415 440 582 388 l 408 467 l 624 743 q 449 785 532 785 q 291 733 346 785 q 235 583 236 681 l 232 281 l 238 0 l 93 0 l 103 264 l 99 583 q 140 750 97 678 q 263 862 182 822 q 456 901 344 901 z "},"Ə":{"ha":868,"x_min":68,"x_max":822,"o":"m 413 900 q 631 846 539 900 q 773 690 724 792 q 822 450 822 589 q 773 206 822 310 q 633 45 724 101 q 419 -11 542 -11 q 236 29 315 -11 q 113 144 157 69 q 68 319 68 219 q 78 417 68 358 l 99 439 l 676 442 q 604 690 676 604 q 396 776 532 776 q 259 756 328 776 q 131 696 190 735 l 114 708 l 139 836 q 413 900 271 900 m 419 100 q 583 163 518 100 q 668 338 647 225 l 217 333 l 214 303 q 270 154 214 208 q 419 100 326 100 z "},"T":{"ha":688,"x_min":26,"x_max":663,"o":"m 663 879 l 654 771 l 493 779 l 418 779 l 411 281 l 418 0 l 274 0 l 282 268 l 275 779 l 200 779 l 36 771 l 26 783 l 38 892 l 654 892 l 663 879 z "},"Ŧ":{"ha":688,"x_min":26,"x_max":663,"o":"m 418 779 l 414 476 l 556 476 l 567 467 l 560 393 l 413 393 l 411 281 l 418 0 l 274 0 l 282 268 l 281 393 l 151 393 l 142 403 l 147 476 l 279 476 l 275 779 l 200 779 l 36 771 l 26 783 l 38 892 l 654 892 l 663 879 l 654 771 l 493 779 l 418 779 z "},"Ť":{"ha":688,"x_min":26,"x_max":663,"o":"m 663 879 l 654 771 l 493 779 l 418 779 l 411 281 l 418 0 l 274 0 l 282 268 l 275 779 l 200 779 l 36 771 l 26 783 l 38 892 l 654 892 l 663 879 m 538 1135 q 367 1001 438 1067 l 333 1001 q 161 1135 250 1075 l 186 1194 l 203 1194 l 251 1164 l 349 1103 q 471 1179 364 1113 l 496 1194 l 510 1194 l 538 1135 z "},"Ţ":{"ha":688,"x_min":26,"x_max":663,"o":"m 663 879 l 654 771 l 493 779 l 418 779 l 411 281 l 418 0 l 378 0 l 358 -69 l 406 -96 q 449 -132 436 -112 q 461 -176 461 -151 q 428 -247 461 -219 q 340 -274 394 -274 q 233 -232 281 -274 l 246 -167 l 253 -164 q 292 -195 272 -185 q 333 -206 311 -206 q 362 -197 351 -206 q 372 -172 372 -189 q 346 -142 372 -154 l 278 -101 l 303 0 l 274 0 l 282 268 l 275 779 l 200 779 l 36 771 l 26 783 l 38 892 l 654 892 l 663 879 z "},"Ț":{"ha":688,"x_min":26,"x_max":663,"o":"m 663 879 l 654 771 l 493 779 l 418 779 l 411 281 l 418 0 l 274 0 l 282 268 l 275 779 l 200 779 l 36 771 l 26 783 l 38 892 l 654 892 l 663 879 m 374 -68 q 428 -164 428 -107 q 293 -354 428 -257 l 251 -315 l 250 -306 q 319 -189 319 -250 q 281 -121 319 -150 l 281 -110 q 374 -68 328 -79 z "},"Ṭ":{"ha":688,"x_min":26,"x_max":663,"o":"m 663 879 l 654 771 l 493 779 l 418 779 l 411 281 l 418 0 l 274 0 l 282 268 l 275 779 l 200 779 l 36 771 l 26 783 l 38 892 l 654 892 l 663 879 m 342 -86 q 396 -106 376 -86 q 415 -162 415 -126 q 394 -222 415 -200 q 338 -244 374 -244 q 281 -224 301 -244 q 261 -167 261 -203 q 283 -108 261 -131 q 342 -86 304 -86 z "},"Ṯ":{"ha":688,"x_min":26,"x_max":663,"o":"m 663 879 l 654 771 l 493 779 l 418 779 l 411 281 l 418 0 l 274 0 l 282 268 l 275 779 l 200 779 l 36 771 l 26 783 l 38 892 l 654 892 l 663 879 m 514 -147 l 507 -228 l 174 -228 l 164 -218 l 169 -137 l 504 -137 l 514 -147 z "},"U":{"ha":876,"x_min":93,"x_max":782,"o":"m 778 439 l 776 333 q 688 79 779 169 q 428 -11 596 -11 q 179 76 265 -11 q 96 322 93 163 l 99 446 l 96 892 l 238 892 l 232 342 q 282 168 231 225 q 438 111 333 111 q 644 328 646 111 l 638 892 l 782 892 l 778 439 z "},"Ú":{"ha":876,"x_min":96,"x_max":782,"o":"m 778 439 l 776 333 q 688 79 779 169 q 428 -11 596 -11 q 179 76 265 -11 q 96 322 93 163 l 99 446 l 96 892 l 238 892 l 232 342 q 282 168 231 225 q 438 111 333 111 q 644 328 646 111 l 638 892 l 782 892 l 778 439 m 596 1211 l 633 1126 l 628 1113 q 344 999 525 1068 l 331 1004 l 307 1065 q 581 1214 488 1158 l 596 1211 z "},"Ŭ":{"ha":876,"x_min":96,"x_max":782,"o":"m 778 439 l 776 333 q 688 79 779 169 q 428 -11 596 -11 q 179 76 265 -11 q 96 322 93 163 l 99 446 l 96 892 l 238 892 l 232 342 q 282 168 231 225 q 438 111 333 111 q 644 328 646 111 l 638 892 l 782 892 l 778 439 m 632 1150 q 565 1029 614 1074 q 439 985 517 985 q 317 1029 363 985 q 253 1150 271 1074 l 290 1200 l 311 1200 q 359 1114 325 1143 q 443 1085 393 1085 q 527 1114 493 1085 q 575 1200 561 1143 l 596 1200 l 632 1150 z "},"Ǔ":{"ha":876,"x_min":96,"x_max":782,"o":"m 778 439 l 776 333 q 688 79 779 169 q 428 -11 596 -11 q 179 76 265 -11 q 96 322 93 163 l 99 446 l 96 892 l 238 892 l 232 342 q 282 168 231 225 q 438 111 333 111 q 644 328 646 111 l 638 892 l 782 892 l 778 439 m 631 1135 q 460 1001 531 1067 l 426 1001 q 254 1135 343 1075 l 279 1194 l 296 1194 l 344 1164 l 442 1103 q 564 1179 457 1113 l 589 1194 l 603 1194 l 631 1135 z "},"Û":{"ha":876,"x_min":96,"x_max":782,"o":"m 778 439 l 776 333 q 688 79 779 169 q 428 -11 596 -11 q 179 76 265 -11 q 96 322 93 163 l 99 446 l 96 892 l 238 892 l 232 342 q 282 168 231 225 q 438 111 333 111 q 644 328 646 111 l 638 892 l 782 892 l 778 439 m 254 1075 q 425 1208 354 1143 l 458 1208 q 631 1075 542 1135 l 606 1015 l 589 1015 l 540 1046 l 443 1107 q 321 1031 428 1097 l 296 1015 l 282 1015 l 254 1075 z "},"Ȕ":{"ha":876,"x_min":96,"x_max":782,"o":"m 778 439 l 776 333 q 688 79 779 169 q 428 -11 596 -11 q 179 76 265 -11 q 96 322 93 163 l 99 446 l 96 892 l 238 892 l 232 342 q 282 168 231 225 q 438 111 333 111 q 644 328 646 111 l 638 892 l 782 892 l 778 439 m 358 996 l 346 999 q 176 1154 268 1068 l 179 1168 l 243 1213 l 256 1210 q 406 1035 306 1147 l 358 996 m 564 996 l 550 999 q 382 1154 436 1101 l 383 1168 l 449 1213 l 461 1210 q 610 1035 510 1149 l 564 996 z "},"Ü":{"ha":876,"x_min":96,"x_max":782,"o":"m 778 439 l 776 333 q 688 79 779 169 q 428 -11 596 -11 q 179 76 265 -11 q 96 322 93 163 l 99 446 l 96 892 l 238 892 l 232 342 q 282 168 231 225 q 438 111 333 111 q 644 328 646 111 l 638 892 l 782 892 l 778 439 m 332 1174 q 383 1155 364 1174 q 401 1104 401 1136 q 381 1049 401 1069 q 328 1028 361 1028 q 275 1047 293 1028 q 257 1099 257 1065 q 277 1153 257 1133 q 332 1174 297 1174 m 560 1174 q 611 1155 593 1174 q 629 1104 629 1136 q 609 1049 629 1069 q 556 1028 589 1028 q 503 1047 522 1028 q 485 1099 485 1065 q 505 1153 485 1133 q 560 1174 525 1174 z "},"Ǘ":{"ha":876,"x_min":96,"x_max":782,"o":"m 778 439 l 776 333 q 688 79 779 169 q 428 -11 596 -11 q 179 76 265 -11 q 96 322 93 163 l 99 446 l 96 892 l 238 892 l 232 342 q 282 168 231 225 q 438 111 333 111 q 644 328 646 111 l 638 892 l 782 892 l 778 439 m 583 1376 l 604 1288 l 597 1275 q 300 1213 454 1242 l 286 1219 l 272 1285 q 569 1383 440 1333 l 583 1376 m 329 1143 q 378 1125 361 1143 q 396 1075 396 1107 q 376 1023 396 1043 q 325 1003 357 1003 q 275 1021 293 1003 q 257 1071 257 1039 q 277 1123 257 1103 q 329 1143 297 1143 m 557 1143 q 606 1125 589 1143 q 624 1075 624 1107 q 604 1023 624 1043 q 553 1003 585 1003 q 503 1021 521 1003 q 485 1071 485 1039 q 505 1123 485 1103 q 557 1143 525 1143 z "},"Ǚ":{"ha":876,"x_min":96,"x_max":782,"o":"m 778 439 l 776 333 q 688 79 779 169 q 428 -11 596 -11 q 179 76 265 -11 q 96 322 93 163 l 99 446 l 96 892 l 238 892 l 232 342 q 282 168 231 225 q 438 111 333 111 q 644 328 646 111 l 638 892 l 782 892 l 778 439 m 629 1303 q 458 1169 539 1239 l 425 1169 q 253 1303 322 1254 l 278 1361 l 294 1361 l 440 1271 l 588 1361 l 601 1361 l 629 1303 m 329 1143 q 378 1125 361 1143 q 396 1075 396 1107 q 376 1023 396 1043 q 325 1003 357 1003 q 275 1021 293 1003 q 257 1071 257 1039 q 277 1123 257 1103 q 329 1143 297 1143 m 557 1143 q 606 1125 589 1143 q 624 1075 624 1107 q 604 1023 624 1043 q 553 1003 585 1003 q 503 1021 521 1003 q 485 1071 485 1039 q 505 1123 485 1103 q 557 1143 525 1143 z "},"Ǜ":{"ha":876,"x_min":96,"x_max":782,"o":"m 778 439 l 776 333 q 688 79 779 169 q 428 -11 596 -11 q 179 76 265 -11 q 96 322 93 163 l 99 446 l 96 892 l 238 892 l 232 342 q 282 168 231 225 q 438 111 333 111 q 644 328 646 111 l 638 892 l 782 892 l 778 439 m 307 1383 q 604 1285 453 1329 l 592 1219 l 578 1213 q 281 1275 415 1243 l 272 1288 l 294 1376 l 307 1383 m 329 1143 q 378 1125 361 1143 q 396 1075 396 1107 q 376 1023 396 1043 q 325 1003 357 1003 q 275 1021 293 1003 q 257 1071 257 1039 q 277 1123 257 1103 q 329 1143 297 1143 m 557 1143 q 606 1125 589 1143 q 624 1075 624 1107 q 604 1023 624 1043 q 553 1003 585 1003 q 503 1021 521 1003 q 485 1071 485 1039 q 505 1123 485 1103 q 557 1143 525 1143 z "},"Ǖ":{"ha":876,"x_min":96,"x_max":782,"o":"m 778 439 l 776 333 q 688 79 779 169 q 428 -11 596 -11 q 179 76 265 -11 q 96 322 93 163 l 99 446 l 96 892 l 238 892 l 232 342 q 282 168 231 225 q 438 111 333 111 q 644 328 646 111 l 638 892 l 782 892 l 778 439 m 624 1311 l 615 1229 l 272 1229 l 263 1240 l 269 1322 l 614 1322 l 624 1311 m 329 1143 q 378 1125 361 1143 q 396 1075 396 1107 q 376 1023 396 1043 q 325 1003 357 1003 q 275 1021 293 1003 q 257 1071 257 1039 q 277 1123 257 1103 q 329 1143 297 1143 m 557 1143 q 606 1125 589 1143 q 624 1075 624 1107 q 604 1023 624 1043 q 553 1003 585 1003 q 503 1021 521 1003 q 485 1071 485 1039 q 505 1123 485 1103 q 557 1143 525 1143 z "},"Ụ":{"ha":876,"x_min":96,"x_max":782,"o":"m 778 439 l 776 333 q 688 79 779 169 q 428 -11 596 -11 q 179 76 265 -11 q 96 322 93 163 l 99 446 l 96 892 l 238 892 l 232 342 q 282 168 231 225 q 438 111 333 111 q 644 328 646 111 l 638 892 l 782 892 l 778 439 m 438 -86 q 492 -106 472 -86 q 511 -162 511 -126 q 490 -222 511 -200 q 433 -244 469 -244 q 377 -224 397 -244 q 357 -167 357 -203 q 378 -108 357 -131 q 438 -86 400 -86 z "},"Ù":{"ha":876,"x_min":96,"x_max":782,"o":"m 778 439 l 776 333 q 688 79 779 169 q 428 -11 596 -11 q 179 76 265 -11 q 96 322 93 163 l 99 446 l 96 892 l 238 892 l 232 342 q 282 168 231 225 q 438 111 333 111 q 644 328 646 111 l 638 892 l 782 892 l 778 439 m 329 1214 q 604 1065 442 1147 l 581 1004 l 567 999 q 283 1113 386 1068 l 278 1126 l 314 1211 l 329 1214 z "},"Ủ":{"ha":876,"x_min":96,"x_max":782,"o":"m 778 439 l 776 333 q 688 79 779 169 q 428 -11 596 -11 q 179 76 265 -11 q 96 322 93 163 l 99 446 l 96 892 l 238 892 l 232 342 q 282 168 231 225 q 438 111 333 111 q 644 328 646 111 l 638 892 l 782 892 l 778 439 m 394 1042 q 449 1092 429 1067 q 469 1138 469 1118 q 458 1160 469 1153 q 429 1168 447 1168 q 386 1159 410 1168 q 342 1133 363 1150 l 315 1176 q 381 1225 346 1208 q 451 1242 417 1242 q 524 1217 496 1242 q 553 1153 553 1192 q 536 1101 553 1126 q 478 1042 519 1076 l 507 990 l 449 958 l 394 1042 z "},"Ư":{"ha":890,"x_min":93,"x_max":904,"o":"m 904 972 q 872 885 904 924 q 782 829 839 847 l 778 439 l 776 333 q 688 79 779 169 q 428 -11 596 -11 q 179 76 265 -11 q 96 322 93 163 l 99 446 l 96 892 l 238 892 l 232 342 q 282 168 231 225 q 438 111 333 111 q 644 328 646 111 l 638 892 l 704 892 q 793 961 793 892 q 749 1044 793 1006 l 753 1057 q 821 1085 790 1085 q 878 1052 851 1085 q 904 972 904 1019 z "},"Ứ":{"ha":890,"x_min":96,"x_max":904,"o":"m 904 972 q 872 885 904 924 q 782 829 839 847 l 778 439 l 776 333 q 688 79 779 169 q 428 -11 596 -11 q 179 76 265 -11 q 96 322 93 163 l 99 446 l 96 892 l 238 892 l 232 342 q 282 168 231 225 q 438 111 333 111 q 644 328 646 111 l 638 892 l 704 892 q 793 961 793 892 q 749 1044 793 1006 l 753 1057 q 821 1085 790 1085 q 878 1052 851 1085 q 904 972 904 1019 m 596 1211 l 633 1126 l 628 1113 q 344 999 525 1068 l 331 1004 l 307 1065 q 581 1214 488 1158 l 596 1211 z "},"Ự":{"ha":890,"x_min":96,"x_max":904,"o":"m 904 972 q 872 885 904 924 q 782 829 839 847 l 778 439 l 776 333 q 688 79 779 169 q 428 -11 596 -11 q 179 76 265 -11 q 96 322 93 163 l 99 446 l 96 892 l 238 892 l 232 342 q 282 168 231 225 q 438 111 333 111 q 644 328 646 111 l 638 892 l 704 892 q 793 961 793 892 q 749 1044 793 1006 l 753 1057 q 821 1085 790 1085 q 878 1052 851 1085 q 904 972 904 1019 m 440 -86 q 494 -106 475 -86 q 514 -162 514 -126 q 493 -222 514 -200 q 436 -244 472 -244 q 380 -224 400 -244 q 360 -167 360 -203 q 381 -108 360 -131 q 440 -86 403 -86 z "},"Ừ":{"ha":890,"x_min":96,"x_max":904,"o":"m 904 972 q 872 885 904 924 q 782 829 839 847 l 778 439 l 776 333 q 688 79 779 169 q 428 -11 596 -11 q 179 76 265 -11 q 96 322 93 163 l 99 446 l 96 892 l 238 892 l 232 342 q 282 168 231 225 q 438 111 333 111 q 644 328 646 111 l 638 892 l 704 892 q 793 961 793 892 q 749 1044 793 1006 l 753 1057 q 821 1085 790 1085 q 878 1052 851 1085 q 904 972 904 1019 m 329 1214 q 604 1065 442 1147 l 581 1004 l 567 999 q 283 1113 386 1068 l 278 1126 l 314 1211 l 329 1214 z "},"Ử":{"ha":890,"x_min":96,"x_max":904,"o":"m 904 972 q 872 885 904 924 q 782 829 839 847 l 778 439 l 776 333 q 688 79 779 169 q 428 -11 596 -11 q 179 76 265 -11 q 96 322 93 163 l 99 446 l 96 892 l 238 892 l 232 342 q 282 168 231 225 q 438 111 333 111 q 644 328 646 111 l 638 892 l 704 892 q 793 961 793 892 q 749 1044 793 1006 l 753 1057 q 821 1085 790 1085 q 878 1052 851 1085 q 904 972 904 1019 m 394 1042 q 449 1092 429 1067 q 469 1138 469 1118 q 458 1160 469 1153 q 429 1168 447 1168 q 386 1159 410 1168 q 342 1133 363 1150 l 315 1176 q 381 1225 346 1208 q 451 1242 417 1242 q 524 1217 496 1242 q 553 1153 553 1192 q 536 1101 553 1126 q 478 1042 519 1076 l 507 990 l 449 958 l 394 1042 z "},"Ữ":{"ha":890,"x_min":96,"x_max":904,"o":"m 904 972 q 872 885 904 924 q 782 829 839 847 l 778 439 l 776 333 q 688 79 779 169 q 428 -11 596 -11 q 179 76 265 -11 q 96 322 93 163 l 99 446 l 96 892 l 238 892 l 232 342 q 282 168 231 225 q 438 111 333 111 q 644 328 646 111 l 638 892 l 704 892 q 793 961 793 892 q 749 1044 793 1006 l 753 1057 q 821 1085 790 1085 q 878 1052 851 1085 q 904 972 904 1019 m 669 1154 l 669 1142 l 579 1035 l 565 1028 q 453 1056 540 1032 q 350 1079 371 1079 q 324 1068 336 1079 q 289 1033 311 1057 l 268 1011 l 254 1011 l 211 1056 l 211 1068 l 301 1175 l 317 1181 q 431 1154 354 1175 q 532 1131 513 1131 q 560 1142 546 1131 q 590 1172 574 1154 q 614 1199 607 1190 l 628 1199 l 669 1154 z "},"Ű":{"ha":876,"x_min":96,"x_max":782,"o":"m 778 439 l 776 333 q 688 79 779 169 q 428 -11 596 -11 q 179 76 265 -11 q 96 322 93 163 l 99 446 l 96 892 l 238 892 l 232 342 q 282 168 231 225 q 438 111 333 111 q 644 328 646 111 l 638 892 l 782 892 l 778 439 m 274 1035 q 422 1210 354 1126 l 436 1213 l 500 1168 l 501 1154 q 333 999 393 1051 l 319 996 l 274 1035 m 515 1076 q 628 1210 628 1210 l 639 1213 l 706 1168 l 707 1154 q 593 1049 704 1151 l 539 999 l 525 996 l 479 1035 l 515 1076 z "},"Ȗ":{"ha":876,"x_min":96,"x_max":782,"o":"m 778 439 l 776 333 q 688 79 779 169 q 428 -11 596 -11 q 179 76 265 -11 q 96 322 93 163 l 99 446 l 96 892 l 238 892 l 232 342 q 282 168 231 225 q 438 111 333 111 q 644 328 646 111 l 638 892 l 782 892 l 778 439 m 251 1054 q 318 1175 269 1131 q 444 1219 367 1219 q 567 1175 521 1219 q 631 1054 613 1131 l 593 1004 l 572 1004 q 524 1090 558 1061 q 440 1119 490 1119 q 356 1090 390 1119 q 308 1004 322 1061 l 288 1004 l 251 1054 z "},"Ū":{"ha":876,"x_min":96,"x_max":782,"o":"m 778 439 l 776 333 q 688 79 779 169 q 428 -11 596 -11 q 179 76 265 -11 q 96 322 93 163 l 99 446 l 96 892 l 238 892 l 232 342 q 282 168 231 225 q 438 111 333 111 q 644 328 646 111 l 638 892 l 782 892 l 778 439 m 646 1138 l 639 1056 l 247 1056 l 238 1067 l 243 1147 l 635 1147 l 646 1138 z "},"Ṻ":{"ha":876,"x_min":96,"x_max":782,"o":"m 778 439 l 776 333 q 688 79 779 169 q 428 -11 596 -11 q 179 76 265 -11 q 96 322 93 163 l 99 446 l 96 892 l 238 892 l 232 342 q 282 168 231 225 q 438 111 333 111 q 644 328 646 111 l 638 892 l 782 892 l 778 439 m 646 1138 l 639 1056 l 247 1056 l 238 1067 l 243 1147 l 635 1147 l 646 1138 m 332 1403 q 383 1384 364 1403 q 401 1333 401 1365 q 381 1278 401 1299 q 328 1257 361 1257 q 275 1276 293 1257 q 257 1328 257 1294 q 277 1383 257 1363 q 332 1403 297 1403 m 560 1403 q 611 1384 593 1403 q 629 1333 629 1365 q 609 1278 629 1299 q 556 1257 589 1257 q 503 1276 522 1257 q 485 1328 485 1294 q 505 1383 485 1363 q 560 1403 525 1403 z "},"Ų":{"ha":876,"x_min":96,"x_max":782,"o":"m 778 439 l 776 333 q 688 79 779 169 q 428 -11 596 -11 q 179 76 265 -11 q 96 322 93 163 l 99 446 l 96 892 l 238 892 l 232 342 q 282 168 231 225 q 438 111 333 111 q 644 328 646 111 l 638 892 l 782 892 l 778 439 m 540 -268 q 447 -239 482 -268 q 413 -160 413 -210 q 444 -72 413 -115 q 568 50 475 -28 l 651 50 q 533 -83 560 -49 q 507 -140 507 -117 q 553 -181 507 -181 q 654 -132 597 -181 l 663 -133 l 683 -204 q 540 -268 615 -268 z "},"Ů":{"ha":876,"x_min":96,"x_max":782,"o":"m 778 439 l 776 333 q 688 79 779 169 q 428 -11 596 -11 q 179 76 265 -11 q 96 322 93 163 l 99 446 l 96 892 l 238 892 l 232 342 q 282 168 231 225 q 438 111 333 111 q 644 328 646 111 l 638 892 l 782 892 l 778 439 m 442 1235 q 532 1203 500 1235 q 564 1117 564 1171 q 529 1024 564 1057 q 438 992 494 992 q 349 1024 382 992 q 317 1113 317 1056 q 349 1202 317 1169 q 442 1235 382 1235 m 439 1171 q 395 1156 410 1171 q 381 1115 381 1142 q 440 1054 381 1054 q 484 1069 468 1054 q 500 1113 500 1083 q 485 1155 500 1139 q 439 1171 469 1171 z "},"Ũ":{"ha":876,"x_min":96,"x_max":782,"o":"m 778 439 l 776 333 q 688 79 779 169 q 428 -11 596 -11 q 179 76 265 -11 q 96 322 93 163 l 99 446 l 96 892 l 238 892 l 232 342 q 282 168 231 225 q 438 111 333 111 q 644 328 646 111 l 638 892 l 782 892 l 778 439 m 669 1154 l 669 1142 l 579 1035 l 565 1028 q 453 1056 540 1032 q 350 1079 371 1079 q 324 1068 336 1079 q 289 1033 311 1057 l 268 1011 l 254 1011 l 211 1056 l 211 1068 l 301 1175 l 317 1181 q 431 1154 354 1175 q 532 1131 513 1131 q 560 1142 546 1131 q 590 1172 574 1154 q 614 1199 607 1190 l 628 1199 l 669 1154 z "},"Ṹ":{"ha":876,"x_min":96,"x_max":782,"o":"m 778 439 l 776 333 q 688 79 779 169 q 428 -11 596 -11 q 179 76 265 -11 q 96 322 93 163 l 99 446 l 96 892 l 238 892 l 232 342 q 282 168 231 225 q 438 111 333 111 q 644 328 646 111 l 638 892 l 782 892 l 778 439 m 582 1369 l 603 1281 l 594 1267 l 542 1256 q 299 1206 397 1224 l 285 1213 l 271 1278 q 568 1376 431 1325 l 582 1369 m 643 1129 l 643 1117 l 563 1010 l 549 1006 q 449 1033 508 1013 q 367 1054 383 1054 q 341 1042 354 1054 q 314 1012 328 1029 q 294 988 300 994 l 282 988 l 239 1032 l 239 1044 l 321 1150 l 335 1156 q 436 1128 363 1151 q 517 1107 501 1107 q 542 1119 531 1107 q 568 1148 554 1131 q 589 1174 582 1165 l 601 1174 l 643 1129 z "},"V":{"ha":796,"x_min":17,"x_max":790,"o":"m 475 0 l 306 0 l 17 892 l 164 892 l 185 790 l 389 139 l 399 139 l 625 783 l 647 892 l 790 892 l 475 0 z "},"W":{"ha":1246,"x_min":28,"x_max":1236,"o":"m 928 0 l 778 0 l 621 479 l 611 479 l 449 0 l 297 0 l 28 892 l 169 892 l 185 796 l 376 153 l 388 153 l 563 669 l 492 892 l 638 892 l 660 782 l 854 153 l 865 153 l 1081 788 l 1103 892 l 1236 892 l 928 0 z "},"Ẃ":{"ha":1246,"x_min":28,"x_max":1236,"o":"m 928 0 l 778 0 l 621 479 l 611 479 l 449 0 l 297 0 l 28 892 l 169 892 l 185 796 l 376 153 l 388 153 l 563 669 l 492 892 l 638 892 l 660 782 l 854 153 l 865 153 l 1081 788 l 1103 892 l 1236 892 l 928 0 m 768 1211 l 806 1126 l 800 1113 q 517 999 697 1068 l 503 1004 l 479 1065 q 753 1214 660 1158 l 768 1211 z "},"Ŵ":{"ha":1246,"x_min":28,"x_max":1236,"o":"m 928 0 l 778 0 l 621 479 l 611 479 l 449 0 l 297 0 l 28 892 l 169 892 l 185 796 l 376 153 l 388 153 l 563 669 l 492 892 l 638 892 l 660 782 l 854 153 l 865 153 l 1081 788 l 1103 892 l 1236 892 l 928 0 m 426 1075 q 597 1208 526 1143 l 631 1208 q 803 1075 714 1135 l 778 1015 l 761 1015 l 713 1046 l 615 1107 q 493 1031 600 1097 l 468 1015 l 454 1015 l 426 1075 z "},"Ẅ":{"ha":1246,"x_min":28,"x_max":1236,"o":"m 928 0 l 778 0 l 621 479 l 611 479 l 449 0 l 297 0 l 28 892 l 169 892 l 185 796 l 376 153 l 388 153 l 563 669 l 492 892 l 638 892 l 660 782 l 854 153 l 865 153 l 1081 788 l 1103 892 l 1236 892 l 928 0 m 504 1174 q 555 1155 536 1174 q 574 1104 574 1136 q 553 1049 574 1069 q 500 1028 533 1028 q 447 1047 465 1028 q 429 1099 429 1065 q 449 1153 429 1133 q 504 1174 469 1174 m 732 1174 q 783 1155 765 1174 q 801 1104 801 1136 q 781 1049 801 1069 q 728 1028 761 1028 q 676 1047 694 1028 q 657 1099 657 1065 q 677 1153 657 1133 q 732 1174 697 1174 z "},"Ẁ":{"ha":1246,"x_min":28,"x_max":1236,"o":"m 928 0 l 778 0 l 621 479 l 611 479 l 449 0 l 297 0 l 28 892 l 169 892 l 185 796 l 376 153 l 388 153 l 563 669 l 492 892 l 638 892 l 660 782 l 854 153 l 865 153 l 1081 788 l 1103 892 l 1236 892 l 928 0 m 501 1214 q 776 1065 614 1147 l 753 1004 l 739 999 q 456 1113 558 1068 l 450 1126 l 486 1211 l 501 1214 z "},"X":{"ha":842,"x_min":36,"x_max":810,"o":"m 511 465 l 810 0 l 636 0 l 596 79 l 414 353 l 224 71 l 186 0 l 36 0 l 331 446 l 43 892 l 215 892 l 256 814 l 425 556 l 597 817 l 635 892 l 788 892 l 511 465 z "},"Y":{"ha":751,"x_min":15,"x_max":740,"o":"m 429 256 l 435 0 l 292 0 l 299 256 l 297 310 l 15 892 l 168 892 l 186 836 l 363 463 l 374 463 l 569 833 l 592 892 l 740 892 l 431 317 l 429 256 z "},"Ý":{"ha":751,"x_min":15,"x_max":740,"o":"m 429 256 l 435 0 l 292 0 l 299 256 l 297 310 l 15 892 l 168 892 l 186 836 l 363 463 l 374 463 l 569 833 l 592 892 l 740 892 l 431 317 l 429 256 m 524 1211 l 561 1126 l 556 1113 q 272 999 453 1068 l 258 1004 l 235 1065 q 508 1214 415 1158 l 524 1211 z "},"Ŷ":{"ha":751,"x_min":15,"x_max":740,"o":"m 429 256 l 435 0 l 292 0 l 299 256 l 297 310 l 15 892 l 168 892 l 186 836 l 363 463 l 374 463 l 569 833 l 592 892 l 740 892 l 431 317 l 429 256 m 182 1075 q 353 1208 282 1143 l 386 1208 q 558 1075 469 1135 l 533 1015 l 517 1015 l 468 1046 l 371 1107 q 249 1031 356 1097 l 224 1015 l 210 1015 l 182 1075 z "},"Ÿ":{"ha":751,"x_min":15,"x_max":740,"o":"m 429 256 l 435 0 l 292 0 l 299 256 l 297 310 l 15 892 l 168 892 l 186 836 l 363 463 l 374 463 l 569 833 l 592 892 l 740 892 l 431 317 l 429 256 m 260 1174 q 310 1155 292 1174 q 329 1104 329 1136 q 309 1049 329 1069 q 256 1028 289 1028 q 203 1047 221 1028 q 185 1099 185 1065 q 205 1153 185 1133 q 260 1174 225 1174 m 488 1174 q 539 1155 521 1174 q 557 1104 557 1136 q 537 1049 557 1069 q 483 1028 517 1028 q 431 1047 450 1028 q 413 1099 413 1065 q 433 1153 413 1133 q 488 1174 453 1174 z "},"Ẏ":{"ha":751,"x_min":15,"x_max":740,"o":"m 429 256 l 435 0 l 292 0 l 299 256 l 297 310 l 15 892 l 168 892 l 186 836 l 363 463 l 374 463 l 569 833 l 592 892 l 740 892 l 431 317 l 429 256 m 372 1190 q 426 1170 407 1190 q 446 1114 446 1150 q 425 1054 446 1076 q 368 1032 404 1032 q 312 1053 332 1032 q 292 1110 292 1074 q 313 1168 292 1146 q 372 1190 335 1190 z "},"Ỵ":{"ha":751,"x_min":15,"x_max":740,"o":"m 429 256 l 435 0 l 292 0 l 299 256 l 297 310 l 15 892 l 168 892 l 186 836 l 363 463 l 374 463 l 569 833 l 592 892 l 740 892 l 431 317 l 429 256 m 367 -86 q 421 -106 401 -86 q 440 -162 440 -126 q 419 -222 440 -200 q 363 -244 399 -244 q 306 -224 326 -244 q 286 -167 286 -203 q 308 -108 286 -131 q 367 -86 329 -86 z "},"Ỳ":{"ha":751,"x_min":15,"x_max":740,"o":"m 429 256 l 435 0 l 292 0 l 299 256 l 297 310 l 15 892 l 168 892 l 186 836 l 363 463 l 374 463 l 569 833 l 592 892 l 740 892 l 431 317 l 429 256 m 257 1214 q 532 1065 369 1147 l 508 1004 l 494 999 q 211 1113 314 1068 l 206 1126 l 242 1211 l 257 1214 z "},"Ỷ":{"ha":751,"x_min":15,"x_max":740,"o":"m 429 256 l 435 0 l 292 0 l 299 256 l 297 310 l 15 892 l 168 892 l 186 836 l 363 463 l 374 463 l 569 833 l 592 892 l 740 892 l 431 317 l 429 256 m 322 1042 q 377 1092 357 1067 q 397 1138 397 1118 q 386 1160 397 1153 q 357 1168 375 1168 q 314 1159 338 1168 q 269 1133 290 1150 l 243 1176 q 309 1225 274 1208 q 379 1242 344 1242 q 452 1217 424 1242 q 481 1153 481 1192 q 464 1101 481 1126 q 406 1042 447 1076 l 435 990 l 376 958 l 322 1042 z "},"Ȳ":{"ha":751,"x_min":15,"x_max":740,"o":"m 429 256 l 435 0 l 292 0 l 299 256 l 297 310 l 15 892 l 168 892 l 186 836 l 363 463 l 374 463 l 569 833 l 592 892 l 740 892 l 431 317 l 429 256 m 574 1138 l 567 1056 l 175 1056 l 165 1067 l 171 1147 l 563 1147 l 574 1138 z "},"Ỹ":{"ha":751,"x_min":15,"x_max":740,"o":"m 429 256 l 435 0 l 292 0 l 299 256 l 297 310 l 15 892 l 168 892 l 186 836 l 363 463 l 374 463 l 569 833 l 592 892 l 740 892 l 431 317 l 429 256 m 597 1154 l 597 1142 l 507 1035 l 493 1028 q 381 1056 468 1032 q 278 1079 299 1079 q 251 1068 264 1079 q 217 1033 239 1057 l 196 1011 l 182 1011 l 139 1056 l 139 1068 l 229 1175 l 244 1181 q 358 1154 282 1175 q 460 1131 440 1131 q 488 1142 474 1131 q 518 1172 501 1154 q 542 1199 535 1190 l 556 1199 l 597 1154 z "},"Z":{"ha":744,"x_min":43,"x_max":700,"o":"m 689 788 l 214 113 l 553 113 l 693 124 l 700 115 l 688 -3 l 508 0 l 133 0 l 43 -4 l 43 100 l 521 778 l 206 778 l 63 767 l 54 775 l 65 893 l 614 892 l 689 893 l 689 788 z "},"Ź":{"ha":744,"x_min":43,"x_max":700,"o":"m 689 788 l 214 113 l 553 113 l 693 124 l 700 115 l 688 -3 l 508 0 l 133 0 l 43 -4 l 43 100 l 521 778 l 206 778 l 63 767 l 54 775 l 65 893 l 614 892 l 689 893 l 689 788 m 526 1211 l 564 1126 l 558 1113 q 275 999 456 1068 l 261 1004 l 238 1065 q 511 1214 418 1158 l 526 1211 z "},"Ž":{"ha":744,"x_min":43,"x_max":700,"o":"m 689 788 l 214 113 l 553 113 l 693 124 l 700 115 l 688 -3 l 508 0 l 133 0 l 43 -4 l 43 100 l 521 778 l 206 778 l 63 767 l 54 775 l 65 893 l 614 892 l 689 893 l 689 788 m 561 1135 q 390 1001 461 1067 l 357 1001 q 185 1135 274 1075 l 210 1194 l 226 1194 l 275 1164 l 372 1103 q 494 1179 388 1113 l 519 1194 l 533 1194 l 561 1135 z "},"Ż":{"ha":744,"x_min":43,"x_max":700,"o":"m 689 788 l 214 113 l 553 113 l 693 124 l 700 115 l 688 -3 l 508 0 l 133 0 l 43 -4 l 43 100 l 521 778 l 206 778 l 63 767 l 54 775 l 65 893 l 614 892 l 689 893 l 689 788 m 375 1190 q 429 1170 410 1190 q 449 1114 449 1150 q 428 1054 449 1076 q 371 1032 407 1032 q 315 1053 335 1032 q 294 1110 294 1074 q 316 1168 294 1146 q 375 1190 338 1190 z "},"Ẓ":{"ha":744,"x_min":43,"x_max":700,"o":"m 689 788 l 214 113 l 553 113 l 693 124 l 700 115 l 688 -3 l 508 0 l 133 0 l 43 -4 l 43 100 l 521 778 l 206 778 l 63 767 l 54 775 l 65 893 l 614 892 l 689 893 l 689 788 m 375 -86 q 429 -106 410 -86 q 449 -162 449 -126 q 428 -222 449 -200 q 371 -244 407 -244 q 315 -224 335 -244 q 294 -167 294 -203 q 316 -108 294 -131 q 375 -86 338 -86 z "},"a":{"ha":653,"x_min":51,"x_max":614,"o":"m 329 653 q 481 607 425 653 q 536 479 536 561 q 528 313 536 454 q 519 150 519 174 q 528 113 519 124 q 560 103 538 103 q 601 108 574 103 l 614 99 l 600 21 q 513 -10 560 -4 q 443 22 469 -6 q 411 93 417 49 l 401 93 q 257 -11 331 18 q 106 39 161 -10 q 51 171 51 88 q 186 325 51 294 l 406 374 l 407 449 q 381 526 407 500 q 307 553 356 553 q 213 531 260 553 q 108 464 165 510 l 97 471 l 79 569 q 329 653 201 653 m 225 249 q 189 230 200 243 q 178 189 178 217 q 201 124 178 147 q 263 100 224 100 q 401 185 328 100 l 406 292 l 225 249 z "},"á":{"ha":653,"x_min":51,"x_max":614,"o":"m 329 653 q 481 607 425 653 q 536 479 536 561 q 528 313 536 454 q 519 150 519 174 q 528 113 519 124 q 560 103 538 103 q 601 108 574 103 l 614 99 l 600 21 q 513 -10 560 -4 q 443 22 469 -6 q 411 93 417 49 l 401 93 q 257 -11 331 18 q 106 39 161 -10 q 51 171 51 88 q 186 325 51 294 l 406 374 l 407 449 q 381 526 407 500 q 307 553 356 553 q 213 531 260 553 q 108 464 165 510 l 97 471 l 79 569 q 329 653 201 653 m 225 249 q 189 230 200 243 q 178 189 178 217 q 201 124 178 147 q 263 100 224 100 q 401 185 328 100 l 406 292 l 225 249 m 451 982 l 504 907 l 501 893 q 250 721 392 813 l 236 722 l 200 778 q 438 983 346 896 l 451 982 z "},"ă":{"ha":653,"x_min":51,"x_max":614,"o":"m 329 653 q 481 607 425 653 q 536 479 536 561 q 528 313 536 454 q 519 150 519 174 q 528 113 519 124 q 560 103 538 103 q 601 108 574 103 l 614 99 l 600 21 q 513 -10 560 -4 q 443 22 469 -6 q 411 93 417 49 l 401 93 q 257 -11 331 18 q 106 39 161 -10 q 51 171 51 88 q 186 325 51 294 l 406 374 l 407 449 q 381 526 407 500 q 307 553 356 553 q 213 531 260 553 q 108 464 165 510 l 97 471 l 79 569 q 329 653 201 653 m 225 249 q 189 230 200 243 q 178 189 178 217 q 201 124 178 147 q 263 100 224 100 q 401 185 328 100 l 406 292 l 225 249 m 506 899 q 439 778 488 822 q 313 733 390 733 q 190 778 236 733 q 126 899 144 822 l 164 949 l 185 949 q 233 863 199 892 q 317 833 267 833 q 401 863 367 833 q 449 949 435 892 l 469 949 l 506 899 z "},"ắ":{"ha":653,"x_min":51,"x_max":614,"o":"m 329 653 q 481 607 425 653 q 536 479 536 561 q 528 313 536 454 q 519 150 519 174 q 528 113 519 124 q 560 103 538 103 q 601 108 574 103 l 614 99 l 600 21 q 513 -10 560 -4 q 443 22 469 -6 q 411 93 417 49 l 401 93 q 257 -11 331 18 q 106 39 161 -10 q 51 171 51 88 q 186 325 51 294 l 406 374 l 407 449 q 381 526 407 500 q 307 553 356 553 q 213 531 260 553 q 108 464 165 510 l 97 471 l 79 569 q 329 653 201 653 m 225 249 q 189 230 200 243 q 178 189 178 217 q 201 124 178 147 q 263 100 224 100 q 401 185 328 100 l 406 292 l 225 249 m 451 1049 l 453 1036 l 314 897 l 300 894 l 254 933 q 378 1093 313 1003 l 390 1096 l 451 1049 m 503 860 q 431 760 481 796 q 313 725 382 725 q 195 760 243 725 q 125 860 147 794 l 161 906 l 182 906 q 232 846 197 867 q 315 825 267 825 q 398 846 364 825 q 449 906 432 867 l 469 906 l 503 860 z "},"ặ":{"ha":653,"x_min":51,"x_max":614,"o":"m 514 899 q 447 778 496 822 q 321 733 399 733 q 199 778 244 733 q 135 899 153 822 l 172 949 l 193 949 q 241 863 207 892 q 325 833 275 833 q 409 863 375 833 q 457 949 443 892 l 478 949 l 514 899 m 329 653 q 481 607 425 653 q 536 479 536 561 q 528 313 536 454 q 519 150 519 174 q 528 113 519 124 q 560 103 538 103 q 601 108 574 103 l 614 99 l 600 21 q 513 -10 560 -4 q 443 22 469 -6 q 411 93 417 49 l 401 93 q 257 -11 331 18 q 106 39 161 -10 q 51 171 51 88 q 186 325 51 294 l 406 374 l 407 449 q 381 526 407 500 q 307 553 356 553 q 213 531 260 553 q 108 464 165 510 l 97 471 l 79 569 q 329 653 201 653 m 225 249 q 189 230 200 243 q 178 189 178 217 q 201 124 178 147 q 263 100 224 100 q 401 185 328 100 l 406 292 l 225 249 m 318 -86 q 372 -106 353 -86 q 392 -162 392 -126 q 371 -222 392 -200 q 314 -244 350 -244 q 258 -224 278 -244 q 238 -167 238 -203 q 259 -108 238 -131 q 318 -86 281 -86 z "},"ằ":{"ha":653,"x_min":51,"x_max":614,"o":"m 329 653 q 481 607 425 653 q 536 479 536 561 q 528 313 536 454 q 519 150 519 174 q 528 113 519 124 q 560 103 538 103 q 601 108 574 103 l 614 99 l 600 21 q 513 -10 560 -4 q 443 22 469 -6 q 411 93 417 49 l 401 93 q 257 -11 331 18 q 106 39 161 -10 q 51 171 51 88 q 186 325 51 294 l 406 374 l 407 449 q 381 526 407 500 q 307 553 356 553 q 213 531 260 553 q 108 464 165 510 l 97 471 l 79 569 q 329 653 201 653 m 225 249 q 189 230 200 243 q 178 189 178 217 q 201 124 178 147 q 263 100 224 100 q 401 185 328 100 l 406 292 l 225 249 m 313 897 l 174 1036 l 174 1049 l 235 1096 l 247 1093 q 371 933 297 1025 l 326 894 l 313 897 m 503 860 q 431 760 481 796 q 313 725 382 725 q 195 760 243 725 q 125 860 147 794 l 161 906 l 182 906 q 232 846 197 867 q 315 825 267 825 q 398 846 364 825 q 449 906 432 867 l 469 906 l 503 860 z "},"ẳ":{"ha":653,"x_min":51,"x_max":614,"o":"m 329 653 q 481 607 425 653 q 536 479 536 561 q 528 313 536 454 q 519 150 519 174 q 528 113 519 124 q 560 103 538 103 q 601 108 574 103 l 614 99 l 600 21 q 513 -10 560 -4 q 443 22 469 -6 q 411 93 417 49 l 401 93 q 257 -11 331 18 q 106 39 161 -10 q 51 171 51 88 q 186 325 51 294 l 406 374 l 407 449 q 381 526 407 500 q 307 553 356 553 q 213 531 260 553 q 108 464 165 510 l 97 471 l 79 569 q 329 653 201 653 m 225 249 q 189 230 200 243 q 178 189 178 217 q 201 124 178 147 q 263 100 224 100 q 401 185 328 100 l 406 292 l 225 249 m 503 860 q 431 760 481 796 q 313 725 382 725 q 195 760 243 725 q 125 860 147 794 l 161 906 l 182 906 q 232 846 197 867 q 315 825 267 825 q 398 846 364 825 q 449 906 432 867 l 469 906 l 503 860 m 269 973 q 322 1021 303 997 q 341 1065 341 1046 q 331 1086 341 1079 q 303 1094 320 1094 q 261 1085 284 1094 q 219 1061 239 1076 l 194 1102 q 257 1148 223 1132 q 324 1164 291 1164 q 394 1140 367 1164 q 421 1079 421 1116 q 405 1030 421 1054 q 349 973 389 1006 l 377 923 l 321 893 l 269 973 z "},"ẵ":{"ha":653,"x_min":51,"x_max":614,"o":"m 329 653 q 481 607 425 653 q 536 479 536 561 q 528 313 536 454 q 519 150 519 174 q 528 113 519 124 q 560 103 538 103 q 601 108 574 103 l 614 99 l 600 21 q 513 -10 560 -4 q 443 22 469 -6 q 411 93 417 49 l 401 93 q 257 -11 331 18 q 106 39 161 -10 q 51 171 51 88 q 186 325 51 294 l 406 374 l 407 449 q 381 526 407 500 q 307 553 356 553 q 213 531 260 553 q 108 464 165 510 l 97 471 l 79 569 q 329 653 201 653 m 225 249 q 189 230 200 243 q 178 189 178 217 q 201 124 178 147 q 263 100 224 100 q 401 185 328 100 l 406 292 l 225 249 m 500 856 q 431 760 478 794 q 316 726 383 726 q 202 759 248 726 q 134 856 156 793 l 169 901 l 189 901 q 238 843 204 863 q 318 823 271 823 q 398 843 365 823 q 447 901 431 863 l 468 901 l 500 856 m 523 1075 l 523 1062 l 441 962 l 429 956 q 324 982 408 959 q 233 1005 252 1005 q 209 994 220 1005 q 177 962 197 984 l 158 941 l 145 941 l 108 982 l 108 994 l 191 1095 l 204 1100 q 306 1074 226 1096 q 399 1052 381 1052 q 423 1062 411 1052 q 450 1089 435 1072 q 474 1115 465 1106 l 485 1115 l 523 1075 z "},"ǎ":{"ha":653,"x_min":51,"x_max":614,"o":"m 329 653 q 481 607 425 653 q 536 479 536 561 q 528 313 536 454 q 519 150 519 174 q 528 113 519 124 q 560 103 538 103 q 601 108 574 103 l 614 99 l 600 21 q 513 -10 560 -4 q 443 22 469 -6 q 411 93 417 49 l 401 93 q 257 -11 331 18 q 106 39 161 -10 q 51 171 51 88 q 186 325 51 294 l 406 374 l 407 449 q 381 526 407 500 q 307 553 356 553 q 213 531 260 553 q 108 464 165 510 l 97 471 l 79 569 q 329 653 201 653 m 225 249 q 189 230 200 243 q 178 189 178 217 q 201 124 178 147 q 263 100 224 100 q 401 185 328 100 l 406 292 l 225 249 m 514 917 q 333 726 435 842 l 297 726 q 118 917 197 842 l 156 972 l 169 972 q 315 833 265 889 q 461 972 364 885 l 476 972 l 514 917 z "},"â":{"ha":653,"x_min":51,"x_max":614,"o":"m 329 653 q 481 607 425 653 q 536 479 536 561 q 528 313 536 454 q 519 150 519 174 q 528 113 519 124 q 560 103 538 103 q 601 108 574 103 l 614 99 l 600 21 q 513 -10 560 -4 q 443 22 469 -6 q 411 93 417 49 l 401 93 q 257 -11 331 18 q 106 39 161 -10 q 51 171 51 88 q 186 325 51 294 l 406 374 l 407 449 q 381 526 407 500 q 307 553 356 553 q 213 531 260 553 q 108 464 165 510 l 97 471 l 79 569 q 329 653 201 653 m 225 249 q 189 230 200 243 q 178 189 178 217 q 201 124 178 147 q 263 100 224 100 q 401 185 328 100 l 406 292 l 225 249 m 118 783 q 299 974 197 858 l 335 974 q 514 783 435 858 l 476 728 l 463 728 q 317 867 367 811 q 171 728 268 815 l 156 728 l 118 783 z "},"ấ":{"ha":653,"x_min":51,"x_max":614,"o":"m 329 653 q 481 607 425 653 q 536 479 536 561 q 528 313 536 454 q 519 150 519 174 q 528 113 519 124 q 560 103 538 103 q 601 108 574 103 l 614 99 l 600 21 q 513 -10 560 -4 q 443 22 469 -6 q 411 93 417 49 l 401 93 q 257 -11 331 18 q 106 39 161 -10 q 51 171 51 88 q 186 325 51 294 l 406 374 l 407 449 q 381 526 407 500 q 307 553 356 553 q 213 531 260 553 q 108 464 165 510 l 97 471 l 79 569 q 329 653 201 653 m 225 249 q 189 230 200 243 q 178 189 178 217 q 201 124 178 147 q 263 100 224 100 q 401 185 328 100 l 406 292 l 225 249 m 557 1046 l 561 1033 l 453 901 l 440 901 l 390 940 l 476 1078 l 489 1081 l 557 1046 m 126 794 q 297 928 228 867 l 331 928 q 503 794 415 856 l 476 736 l 461 736 l 315 826 l 168 736 l 154 736 l 126 794 z "},"ậ":{"ha":653,"x_min":51,"x_max":614,"o":"m 329 653 q 481 607 425 653 q 536 479 536 561 q 528 313 536 454 q 519 150 519 174 q 528 113 519 124 q 560 103 538 103 q 601 108 574 103 l 614 99 l 600 21 q 513 -10 560 -4 q 443 22 469 -6 q 411 93 417 49 l 401 93 q 257 -11 331 18 q 106 39 161 -10 q 51 171 51 88 q 186 325 51 294 l 406 374 l 407 449 q 381 526 407 500 q 307 553 356 553 q 213 531 260 553 q 108 464 165 510 l 97 471 l 79 569 q 329 653 201 653 m 225 249 q 189 230 200 243 q 178 189 178 217 q 201 124 178 147 q 263 100 224 100 q 401 185 328 100 l 406 292 l 225 249 m 318 -86 q 372 -106 353 -86 q 392 -162 392 -126 q 371 -222 392 -200 q 314 -244 350 -244 q 258 -224 278 -244 q 238 -167 238 -203 q 259 -108 238 -131 q 318 -86 281 -86 m 118 783 q 299 974 197 858 l 335 974 q 514 783 435 858 l 476 728 l 463 728 q 317 867 367 811 q 171 728 268 815 l 156 728 l 118 783 z "},"ầ":{"ha":653,"x_min":51,"x_max":614,"o":"m 329 653 q 481 607 425 653 q 536 479 536 561 q 528 313 536 454 q 519 150 519 174 q 528 113 519 124 q 560 103 538 103 q 601 108 574 103 l 614 99 l 600 21 q 513 -10 560 -4 q 443 22 469 -6 q 411 93 417 49 l 401 93 q 257 -11 331 18 q 106 39 161 -10 q 51 171 51 88 q 186 325 51 294 l 406 374 l 407 449 q 381 526 407 500 q 307 553 356 553 q 213 531 260 553 q 108 464 165 510 l 97 471 l 79 569 q 329 653 201 653 m 225 249 q 189 230 200 243 q 178 189 178 217 q 201 124 178 147 q 263 100 224 100 q 401 185 328 100 l 406 292 l 225 249 m 351 1033 l 353 1046 l 421 1081 l 433 1078 l 522 940 l 471 901 l 460 901 l 351 1033 m 126 794 q 297 928 228 867 l 331 928 q 503 794 415 856 l 476 736 l 461 736 l 315 826 l 168 736 l 154 736 l 126 794 z "},"ẩ":{"ha":653,"x_min":51,"x_max":614,"o":"m 329 653 q 481 607 425 653 q 536 479 536 561 q 528 313 536 454 q 519 150 519 174 q 528 113 519 124 q 560 103 538 103 q 601 108 574 103 l 614 99 l 600 21 q 513 -10 560 -4 q 443 22 469 -6 q 411 93 417 49 l 401 93 q 257 -11 331 18 q 106 39 161 -10 q 51 171 51 88 q 186 325 51 294 l 406 374 l 407 449 q 381 526 407 500 q 307 553 356 553 q 213 531 260 553 q 108 464 165 510 l 97 471 l 79 569 q 329 653 201 653 m 225 249 q 189 230 200 243 q 178 189 178 217 q 201 124 178 147 q 263 100 224 100 q 401 185 328 100 l 406 292 l 225 249 m 126 824 q 297 957 226 892 l 331 957 q 503 824 414 883 l 478 764 l 461 764 l 413 794 l 315 856 q 193 779 300 846 l 168 764 l 154 764 l 126 824 m 426 991 q 479 1039 460 1015 q 498 1082 498 1064 q 487 1104 498 1097 q 460 1112 477 1112 q 419 1103 441 1112 q 376 1078 396 1094 l 351 1119 q 414 1166 380 1150 q 481 1182 448 1182 q 550 1158 523 1182 q 577 1097 577 1134 q 561 1048 577 1072 q 506 991 545 1024 l 534 942 l 478 912 l 426 991 z "},"ẫ":{"ha":653,"x_min":51,"x_max":614,"o":"m 329 653 q 481 607 425 653 q 536 479 536 561 q 528 313 536 454 q 519 150 519 174 q 528 113 519 124 q 560 103 538 103 q 601 108 574 103 l 614 99 l 600 21 q 513 -10 560 -4 q 443 22 469 -6 q 411 93 417 49 l 401 93 q 257 -11 331 18 q 106 39 161 -10 q 51 171 51 88 q 186 325 51 294 l 406 374 l 407 449 q 381 526 407 500 q 307 553 356 553 q 213 531 260 553 q 108 464 165 510 l 97 471 l 79 569 q 329 653 201 653 m 225 249 q 189 230 200 243 q 178 189 178 217 q 201 124 178 147 q 263 100 224 100 q 401 185 328 100 l 406 292 l 225 249 m 128 824 q 299 957 228 892 l 332 957 q 504 824 415 883 l 479 764 l 463 764 l 414 794 l 317 856 q 194 779 301 846 l 169 764 l 156 764 l 128 824 m 543 1121 l 543 1107 l 453 1000 l 439 994 q 324 1022 417 997 q 224 1046 244 1046 q 197 1035 210 1046 q 163 1000 185 1024 l 142 978 l 128 978 l 86 1022 l 86 1035 l 178 1142 l 192 1147 q 304 1119 217 1143 q 407 1096 386 1096 q 433 1107 419 1096 q 463 1136 446 1118 q 489 1164 479 1154 l 501 1164 l 543 1121 z "},"ȁ":{"ha":653,"x_min":51,"x_max":614,"o":"m 329 653 q 481 607 425 653 q 536 479 536 561 q 528 313 536 454 q 519 150 519 174 q 528 113 519 124 q 560 103 538 103 q 601 108 574 103 l 614 99 l 600 21 q 513 -10 560 -4 q 443 22 469 -6 q 411 93 417 49 l 401 93 q 257 -11 331 18 q 106 39 161 -10 q 51 171 51 88 q 186 325 51 294 l 406 374 l 407 449 q 381 526 407 500 q 307 553 356 553 q 213 531 260 553 q 108 464 165 510 l 97 471 l 79 569 q 329 653 201 653 m 225 249 q 189 230 200 243 q 178 189 178 217 q 201 124 178 147 q 263 100 224 100 q 401 185 328 100 l 406 292 l 225 249 m 321 761 q 140 985 238 857 l 128 986 l 64 939 l 61 926 q 263 724 126 857 l 275 721 l 321 761 m 524 761 q 343 985 451 842 l 331 986 l 265 939 l 265 926 q 465 724 347 840 l 479 721 l 524 761 z "},"ä":{"ha":653,"x_min":51,"x_max":614,"o":"m 329 653 q 481 607 425 653 q 536 479 536 561 q 528 313 536 454 q 519 150 519 174 q 528 113 519 124 q 560 103 538 103 q 601 108 574 103 l 614 99 l 600 21 q 513 -10 560 -4 q 443 22 469 -6 q 411 93 417 49 l 401 93 q 257 -11 331 18 q 106 39 161 -10 q 51 171 51 88 q 186 325 51 294 l 406 374 l 407 449 q 381 526 407 500 q 307 553 356 553 q 213 531 260 553 q 108 464 165 510 l 97 471 l 79 569 q 329 653 201 653 m 225 249 q 189 230 200 243 q 178 189 178 217 q 201 124 178 147 q 263 100 224 100 q 401 185 328 100 l 406 292 l 225 249 m 206 922 q 256 903 238 922 q 275 853 275 885 q 255 797 275 818 q 201 776 235 776 q 149 795 167 776 q 131 847 131 814 q 151 902 131 882 q 206 922 171 922 m 433 922 q 485 903 467 922 q 503 853 503 885 q 483 797 503 818 q 429 776 463 776 q 377 795 396 776 q 358 847 358 814 q 378 902 358 882 q 433 922 399 922 z "},"ạ":{"ha":653,"x_min":51,"x_max":614,"o":"m 329 653 q 481 607 425 653 q 536 479 536 561 q 528 313 536 454 q 519 150 519 174 q 528 113 519 124 q 560 103 538 103 q 601 108 574 103 l 614 99 l 600 21 q 513 -10 560 -4 q 443 22 469 -6 q 411 93 417 49 l 401 93 q 257 -11 331 18 q 106 39 161 -10 q 51 171 51 88 q 186 325 51 294 l 406 374 l 407 449 q 381 526 407 500 q 307 553 356 553 q 213 531 260 553 q 108 464 165 510 l 97 471 l 79 569 q 329 653 201 653 m 225 249 q 189 230 200 243 q 178 189 178 217 q 201 124 178 147 q 263 100 224 100 q 401 185 328 100 l 406 292 l 225 249 m 318 -86 q 372 -106 353 -86 q 392 -162 392 -126 q 371 -222 392 -200 q 314 -244 350 -244 q 258 -224 278 -244 q 238 -167 238 -203 q 259 -108 238 -131 q 318 -86 281 -86 z "},"à":{"ha":653,"x_min":51,"x_max":614,"o":"m 329 653 q 481 607 425 653 q 536 479 536 561 q 528 313 536 454 q 519 150 519 174 q 528 113 519 124 q 560 103 538 103 q 601 108 574 103 l 614 99 l 600 21 q 513 -10 560 -4 q 443 22 469 -6 q 411 93 417 49 l 401 93 q 257 -11 331 18 q 106 39 161 -10 q 51 171 51 88 q 186 325 51 294 l 406 374 l 407 449 q 381 526 407 500 q 307 553 356 553 q 213 531 260 553 q 108 464 165 510 l 97 471 l 79 569 q 329 653 201 653 m 225 249 q 189 230 200 243 q 178 189 178 217 q 201 124 178 147 q 263 100 224 100 q 401 185 328 100 l 406 292 l 225 249 m 229 983 q 467 778 321 896 l 431 722 l 417 721 q 165 893 275 813 l 163 907 l 215 982 l 229 983 z "},"ả":{"ha":653,"x_min":51,"x_max":614,"o":"m 329 653 q 481 607 425 653 q 536 479 536 561 q 528 313 536 454 q 519 150 519 174 q 528 113 519 124 q 560 103 538 103 q 601 108 574 103 l 614 99 l 600 21 q 513 -10 560 -4 q 443 22 469 -6 q 411 93 417 49 l 401 93 q 257 -11 331 18 q 106 39 161 -10 q 51 171 51 88 q 186 325 51 294 l 406 374 l 407 449 q 381 526 407 500 q 307 553 356 553 q 213 531 260 553 q 108 464 165 510 l 97 471 l 79 569 q 329 653 201 653 m 225 249 q 189 230 200 243 q 178 189 178 217 q 201 124 178 147 q 263 100 224 100 q 401 185 328 100 l 406 292 l 225 249 m 268 790 q 323 841 303 815 q 343 886 343 867 q 332 909 343 901 q 303 917 321 917 q 260 908 283 917 q 215 882 236 899 l 189 925 q 255 974 219 957 q 325 990 290 990 q 398 965 369 990 q 426 901 426 940 q 410 850 426 875 q 351 790 393 825 l 381 739 l 322 707 l 268 790 z "},"ȃ":{"ha":653,"x_min":51,"x_max":614,"o":"m 329 653 q 481 607 425 653 q 536 479 536 561 q 528 313 536 454 q 519 150 519 174 q 528 113 519 124 q 560 103 538 103 q 601 108 574 103 l 614 99 l 600 21 q 513 -10 560 -4 q 443 22 469 -6 q 411 93 417 49 l 401 93 q 257 -11 331 18 q 106 39 161 -10 q 51 171 51 88 q 186 325 51 294 l 406 374 l 407 449 q 381 526 407 500 q 307 553 356 553 q 213 531 260 553 q 108 464 165 510 l 97 471 l 79 569 q 329 653 201 653 m 225 249 q 189 230 200 243 q 178 189 178 217 q 201 124 178 147 q 263 100 224 100 q 401 185 328 100 l 406 292 l 225 249 m 125 803 q 192 924 143 879 q 318 968 240 968 q 440 924 394 968 q 504 803 486 879 l 467 753 l 446 753 q 398 839 432 810 q 314 868 364 868 q 230 839 264 868 q 182 753 196 810 l 161 753 l 125 803 z "},"ā":{"ha":653,"x_min":51,"x_max":614,"o":"m 329 653 q 481 607 425 653 q 536 479 536 561 q 528 313 536 454 q 519 150 519 174 q 528 113 519 124 q 560 103 538 103 q 601 108 574 103 l 614 99 l 600 21 q 513 -10 560 -4 q 443 22 469 -6 q 411 93 417 49 l 401 93 q 257 -11 331 18 q 106 39 161 -10 q 51 171 51 88 q 186 325 51 294 l 406 374 l 407 449 q 381 526 407 500 q 307 553 356 553 q 213 531 260 553 q 108 464 165 510 l 97 471 l 79 569 q 329 653 201 653 m 225 249 q 189 230 200 243 q 178 189 178 217 q 201 124 178 147 q 263 100 224 100 q 401 185 328 100 l 406 292 l 225 249 m 519 886 l 513 804 l 121 804 l 111 815 l 117 896 l 508 896 l 519 886 z "},"ą":{"ha":653,"x_min":51,"x_max":632,"o":"m 329 653 q 481 607 425 653 q 536 479 536 561 q 528 313 536 454 q 519 150 519 174 q 528 113 519 124 q 560 103 538 103 q 601 108 574 103 l 614 99 l 600 21 q 513 -10 560 -4 q 443 22 469 -6 q 411 93 417 49 l 401 93 q 257 -11 331 18 q 106 39 161 -10 q 51 171 51 88 q 186 325 51 294 l 406 374 l 407 449 q 381 526 407 500 q 307 553 356 553 q 213 531 260 553 q 108 464 165 510 l 97 471 l 79 569 q 329 653 201 653 m 225 249 q 189 230 200 243 q 178 189 178 217 q 201 124 178 147 q 263 100 224 100 q 401 185 328 100 l 406 292 l 225 249 m 489 -297 q 396 -268 431 -297 q 361 -189 361 -239 q 392 -101 361 -144 q 517 21 424 -57 l 600 21 q 482 -112 508 -78 q 456 -169 456 -146 q 501 -210 456 -210 q 603 -161 546 -210 l 611 -162 l 632 -233 q 489 -297 564 -297 z "},"å":{"ha":653,"x_min":51,"x_max":614,"o":"m 329 653 q 481 607 425 653 q 536 479 536 561 q 528 313 536 454 q 519 150 519 174 q 528 113 519 124 q 560 103 538 103 q 601 108 574 103 l 614 99 l 600 21 q 513 -10 560 -4 q 443 22 469 -6 q 411 93 417 49 l 401 93 q 257 -11 331 18 q 106 39 161 -10 q 51 171 51 88 q 186 325 51 294 l 406 374 l 407 449 q 381 526 407 500 q 307 553 356 553 q 213 531 260 553 q 108 464 165 510 l 97 471 l 79 569 q 329 653 201 653 m 225 249 q 189 230 200 243 q 178 189 178 217 q 201 124 178 147 q 263 100 224 100 q 401 185 328 100 l 406 292 l 225 249 m 315 983 q 406 951 374 983 q 438 865 438 919 q 403 773 438 806 q 311 740 368 740 q 223 772 256 740 q 190 861 190 804 q 223 951 190 918 q 315 983 256 983 m 313 919 q 269 905 283 919 q 254 864 254 890 q 314 803 254 803 q 358 817 342 803 q 374 861 374 832 q 358 903 374 888 q 313 919 343 919 z "},"ǻ":{"ha":653,"x_min":51,"x_max":614,"o":"m 329 653 q 481 607 425 653 q 536 479 536 561 q 528 313 536 454 q 519 150 519 174 q 528 113 519 124 q 560 103 538 103 q 601 108 574 103 l 614 99 l 600 21 q 513 -10 560 -4 q 443 22 469 -6 q 411 93 417 49 l 401 93 q 257 -11 331 18 q 106 39 161 -10 q 51 171 51 88 q 186 325 51 294 l 406 374 l 407 449 q 381 526 407 500 q 307 553 356 553 q 213 531 260 553 q 108 464 165 510 l 97 471 l 79 569 q 329 653 201 653 m 225 249 q 189 230 200 243 q 178 189 178 217 q 201 124 178 147 q 263 100 224 100 q 401 185 328 100 l 406 292 l 225 249 m 315 983 q 406 951 374 983 q 438 865 438 919 q 403 773 438 806 q 311 740 368 740 q 223 772 256 740 q 190 861 190 804 q 223 951 190 918 q 315 983 256 983 m 313 919 q 269 905 283 919 q 254 864 254 890 q 314 803 254 803 q 358 817 342 803 q 374 861 374 832 q 358 903 374 888 q 313 919 343 919 m 185 1129 l 236 1051 l 232 1037 q -30 880 138 977 l -44 883 l -77 939 q 170 1129 87 1060 l 185 1129 z "},"ã":{"ha":653,"x_min":51,"x_max":614,"o":"m 329 653 q 481 607 425 653 q 536 479 536 561 q 528 313 536 454 q 519 150 519 174 q 528 113 519 124 q 560 103 538 103 q 601 108 574 103 l 614 99 l 600 21 q 513 -10 560 -4 q 443 22 469 -6 q 411 93 417 49 l 401 93 q 257 -11 331 18 q 106 39 161 -10 q 51 171 51 88 q 186 325 51 294 l 406 374 l 407 449 q 381 526 407 500 q 307 553 356 553 q 213 531 260 553 q 108 464 165 510 l 97 471 l 79 569 q 329 653 201 653 m 225 249 q 189 230 200 243 q 178 189 178 217 q 201 124 178 147 q 263 100 224 100 q 401 185 328 100 l 406 292 l 225 249 m 543 903 l 543 890 l 453 783 l 439 776 q 326 804 414 781 q 224 828 244 828 q 197 817 210 828 q 163 782 185 806 l 142 760 l 128 760 l 85 804 l 85 817 l 175 924 l 190 929 q 304 903 228 924 q 406 879 386 879 q 433 891 419 879 q 464 921 447 903 q 488 947 481 939 l 501 947 l 543 903 z "},"æ":{"ha":951,"x_min":49,"x_max":917,"o":"m 683 651 q 854 580 792 651 q 911 375 917 508 l 897 356 l 514 300 q 690 93 525 93 q 781 109 733 93 q 869 153 828 125 l 883 144 l 864 35 q 774 0 824 13 q 679 -12 725 -12 q 542 21 601 -12 q 447 118 482 54 q 265 -11 371 29 q 107 38 165 -10 q 49 171 49 86 q 83 278 49 236 q 183 329 117 319 l 399 360 l 399 449 q 300 553 399 553 q 106 464 218 553 l 94 471 l 75 569 q 317 653 194 653 q 423 629 381 653 q 486 565 465 606 q 574 629 522 607 q 683 651 625 651 m 665 556 q 557 505 601 556 q 513 382 513 454 l 513 378 l 785 422 q 751 521 783 486 q 665 556 719 556 m 263 101 q 329 121 297 101 q 411 190 361 140 q 400 282 401 250 l 238 253 q 190 231 204 247 q 175 185 175 214 q 199 123 175 144 q 263 101 222 101 z "},"ǽ":{"ha":951,"x_min":49,"x_max":911,"o":"m 683 651 q 854 580 792 651 q 911 375 917 508 l 897 356 l 514 300 q 690 93 525 93 q 781 109 733 93 q 869 153 828 125 l 883 144 l 864 35 q 774 0 824 13 q 679 -12 725 -12 q 542 21 601 -12 q 447 118 482 54 q 265 -11 371 29 q 107 38 165 -10 q 49 171 49 86 q 83 278 49 236 q 183 329 117 319 l 399 360 l 399 449 q 300 553 399 553 q 106 464 218 553 l 94 471 l 75 569 q 317 653 194 653 q 423 629 381 653 q 486 565 465 606 q 574 629 522 607 q 683 651 625 651 m 665 556 q 557 505 601 556 q 513 382 513 454 l 513 378 l 785 422 q 751 521 783 486 q 665 556 719 556 m 263 101 q 329 121 297 101 q 411 190 361 140 q 400 282 401 250 l 238 253 q 190 231 204 247 q 175 185 175 214 q 199 123 175 144 q 263 101 222 101 m 617 982 l 669 907 l 667 893 q 415 721 557 813 l 401 722 l 365 778 q 603 983 511 896 l 617 982 z "},"b":{"ha":719,"x_min":106,"x_max":667,"o":"m 418 647 q 603 567 539 647 q 667 340 667 486 q 585 79 667 171 q 357 -12 503 -12 q 215 19 286 -12 l 126 -17 l 106 -3 l 115 267 l 107 964 l 249 975 l 243 551 l 251 551 q 332 610 294 589 q 418 647 369 632 m 363 85 q 489 142 443 85 q 535 317 535 200 q 499 477 535 421 q 394 533 463 533 q 242 450 321 533 l 239 283 l 243 122 q 363 85 306 85 z "},"c":{"ha":535,"x_min":51,"x_max":515,"o":"m 344 653 q 435 643 389 653 q 515 617 481 633 l 492 499 l 478 493 q 342 536 404 536 q 226 481 268 536 q 185 325 185 425 q 228 159 185 218 q 350 100 271 100 q 499 142 419 100 l 511 133 l 497 19 q 328 -12 413 -12 q 124 74 197 -12 q 51 314 51 161 q 129 563 51 472 q 344 653 207 653 z "},"ć":{"ha":535,"x_min":51,"x_max":518,"o":"m 344 653 q 435 643 389 653 q 515 617 481 633 l 492 499 l 478 493 q 342 536 404 536 q 226 481 268 536 q 185 325 185 425 q 228 159 185 218 q 350 100 271 100 q 499 142 419 100 l 511 133 l 497 19 q 328 -12 413 -12 q 124 74 197 -12 q 51 314 51 161 q 129 563 51 472 q 344 653 207 653 m 465 982 l 518 907 l 515 893 q 264 721 406 813 l 250 722 l 214 778 q 451 983 360 896 l 465 982 z "},"č":{"ha":535,"x_min":51,"x_max":528,"o":"m 344 653 q 435 643 389 653 q 515 617 481 633 l 492 499 l 478 493 q 342 536 404 536 q 226 481 268 536 q 185 325 185 425 q 228 159 185 218 q 350 100 271 100 q 499 142 419 100 l 511 133 l 497 19 q 328 -12 413 -12 q 124 74 197 -12 q 51 314 51 161 q 129 563 51 472 q 344 653 207 653 m 528 917 q 347 726 449 842 l 311 726 q 132 917 211 842 l 169 972 l 183 972 q 329 833 279 889 q 475 972 378 885 l 490 972 l 528 917 z "},"ç":{"ha":535,"x_min":51,"x_max":515,"o":"m 344 653 q 435 643 389 653 q 515 617 481 633 l 492 499 l 478 493 q 342 536 404 536 q 226 481 268 536 q 185 325 185 425 q 228 159 185 218 q 350 100 271 100 q 499 142 419 100 l 511 133 l 497 19 q 328 -12 413 -12 q 124 74 197 -12 q 51 314 51 161 q 129 563 51 472 q 344 653 207 653 m 344 -69 l 392 -97 q 435 -133 422 -114 q 447 -176 447 -151 q 414 -247 447 -219 q 326 -274 381 -274 q 219 -232 267 -274 l 232 -167 l 239 -164 q 278 -196 260 -185 q 318 -207 296 -207 q 347 -198 336 -207 q 358 -172 358 -189 q 332 -142 358 -154 l 264 -101 l 297 31 l 372 31 l 344 -69 z "},"ḉ":{"ha":535,"x_min":51,"x_max":518,"o":"m 344 653 q 435 643 389 653 q 515 617 481 633 l 492 499 l 478 493 q 342 536 404 536 q 226 481 268 536 q 185 325 185 425 q 228 159 185 218 q 350 100 271 100 q 499 142 419 100 l 511 133 l 497 19 q 328 -12 413 -12 q 124 74 197 -12 q 51 314 51 161 q 129 563 51 472 q 344 653 207 653 m 344 -69 l 392 -97 q 435 -133 422 -114 q 447 -176 447 -151 q 414 -247 447 -219 q 326 -274 381 -274 q 219 -232 267 -274 l 232 -167 l 239 -164 q 278 -196 260 -185 q 318 -207 296 -207 q 347 -198 336 -207 q 358 -172 358 -189 q 332 -142 358 -154 l 264 -101 l 297 31 l 372 31 l 344 -69 m 465 982 l 518 907 l 515 893 q 264 721 406 813 l 250 722 l 214 778 q 451 983 360 896 l 465 982 z "},"ĉ":{"ha":535,"x_min":51,"x_max":528,"o":"m 344 653 q 435 643 389 653 q 515 617 481 633 l 492 499 l 478 493 q 342 536 404 536 q 226 481 268 536 q 185 325 185 425 q 228 159 185 218 q 350 100 271 100 q 499 142 419 100 l 511 133 l 497 19 q 328 -12 413 -12 q 124 74 197 -12 q 51 314 51 161 q 129 563 51 472 q 344 653 207 653 m 132 783 q 313 974 211 858 l 349 974 q 528 783 449 858 l 490 728 l 476 728 q 331 867 381 811 q 185 728 282 815 l 169 728 l 132 783 z "},"ċ":{"ha":535,"x_min":51,"x_max":515,"o":"m 344 653 q 435 643 389 653 q 515 617 481 633 l 492 499 l 478 493 q 342 536 404 536 q 226 481 268 536 q 185 325 185 425 q 228 159 185 218 q 350 100 271 100 q 499 142 419 100 l 511 133 l 497 19 q 328 -12 413 -12 q 124 74 197 -12 q 51 314 51 161 q 129 563 51 472 q 344 653 207 653 m 332 939 q 386 919 367 939 q 406 863 406 899 q 385 803 406 825 q 328 781 364 781 q 272 801 292 781 q 251 858 251 822 q 273 917 251 894 q 332 939 294 939 z "},"d":{"ha":724,"x_min":51,"x_max":699,"o":"m 603 282 l 607 149 q 615 113 608 122 q 643 103 622 103 q 686 108 658 103 l 699 99 l 685 21 q 597 -10 644 -4 q 527 20 554 -6 q 493 88 500 46 l 482 88 q 410 31 442 53 q 339 -8 378 10 q 126 77 200 -8 q 51 318 51 163 q 135 565 51 478 q 367 651 218 651 q 475 640 415 651 l 472 964 l 613 975 l 603 282 m 353 554 q 228 500 274 554 q 183 339 183 446 q 225 167 183 226 q 342 107 267 107 q 408 124 376 107 q 476 181 440 140 l 479 269 l 475 522 q 353 554 408 554 z "},"ð":{"ha":683,"x_min":54,"x_max":626,"o":"m 421 822 q 574 603 522 725 q 626 343 626 482 q 551 80 626 172 q 335 -12 475 -12 q 128 72 203 -12 q 54 311 54 157 q 129 552 54 467 q 342 638 204 638 q 436 625 392 638 q 317 767 392 703 l 151 678 l 138 683 l 108 744 l 246 818 q 86 900 169 865 l 86 918 l 171 982 l 179 982 q 356 876 279 936 l 514 961 l 526 957 l 556 894 l 421 822 m 344 82 q 465 142 426 82 q 503 332 503 203 q 488 488 503 414 q 349 542 426 542 q 178 311 178 542 q 221 139 178 196 q 344 82 264 82 z "},"ď":{"ha":808,"x_min":51,"x_max":818,"o":"m 603 282 l 607 149 q 615 113 608 122 q 643 103 622 103 q 686 108 658 103 l 699 99 l 685 21 q 597 -10 644 -4 q 527 20 554 -6 q 493 88 500 46 l 482 88 q 410 31 442 53 q 339 -8 378 10 q 126 77 200 -8 q 51 318 51 163 q 135 565 51 478 q 367 651 218 651 q 475 640 415 651 l 472 964 l 613 975 l 603 282 m 818 889 l 781 633 l 715 624 l 704 633 l 707 893 l 808 899 l 818 889 m 353 554 q 228 500 274 554 q 183 339 183 446 q 225 167 183 226 q 342 107 267 107 q 408 124 376 107 q 476 181 440 140 l 479 269 l 475 522 q 353 554 408 554 z "},"đ":{"ha":728,"x_min":51,"x_max":715,"o":"m 610 765 l 603 282 l 607 149 q 615 113 608 122 q 643 103 622 103 q 686 108 658 103 l 699 99 l 685 21 q 597 -10 644 -4 q 527 20 554 -6 q 493 88 500 46 l 482 88 q 410 31 442 53 q 339 -8 378 10 q 126 77 200 -8 q 51 318 51 163 q 135 565 51 478 q 367 651 218 651 q 475 640 415 651 l 474 765 l 307 765 l 297 775 l 304 847 l 474 847 l 472 964 l 613 975 l 611 847 l 704 847 l 715 836 l 708 765 l 610 765 m 479 269 l 475 522 q 353 554 408 554 q 228 500 274 554 q 183 339 183 446 q 225 167 183 226 q 342 107 267 107 q 408 124 376 107 q 476 181 440 140 l 479 269 z "},"ḍ":{"ha":724,"x_min":51,"x_max":699,"o":"m 603 282 l 607 149 q 615 113 608 122 q 643 103 622 103 q 686 108 658 103 l 699 99 l 685 21 q 597 -10 644 -4 q 527 20 554 -6 q 493 88 500 46 l 482 88 q 410 31 442 53 q 339 -8 378 10 q 126 77 200 -8 q 51 318 51 163 q 135 565 51 478 q 367 651 218 651 q 475 640 415 651 l 472 964 l 613 975 l 603 282 m 353 554 q 228 500 274 554 q 183 339 183 446 q 225 167 183 226 q 342 107 267 107 q 408 124 376 107 q 476 181 440 140 l 479 269 l 475 522 q 353 554 408 554 m 367 -86 q 421 -106 401 -86 q 440 -162 440 -126 q 419 -222 440 -200 q 363 -244 399 -244 q 306 -224 326 -244 q 286 -167 286 -203 q 308 -108 286 -131 q 367 -86 329 -86 z "},"ḏ":{"ha":724,"x_min":51,"x_max":699,"o":"m 603 282 l 607 149 q 615 113 608 122 q 643 103 622 103 q 686 108 658 103 l 699 99 l 685 21 q 597 -10 644 -4 q 527 20 554 -6 q 493 88 500 46 l 482 88 q 410 31 442 53 q 339 -8 378 10 q 126 77 200 -8 q 51 318 51 163 q 135 565 51 478 q 367 651 218 651 q 475 640 415 651 l 472 964 l 613 975 l 603 282 m 353 554 q 228 500 274 554 q 183 339 183 446 q 225 167 183 226 q 342 107 267 107 q 408 124 376 107 q 476 181 440 140 l 479 269 l 475 522 q 353 554 408 554 m 539 -147 l 532 -228 l 199 -228 l 189 -218 l 194 -137 l 529 -137 l 539 -147 z "},"ǆ":{"ha":1303,"x_min":51,"x_max":1263,"o":"m 603 282 l 607 149 q 615 113 608 122 q 643 103 622 103 q 686 108 658 103 l 699 99 l 685 21 q 597 -10 644 -4 q 527 20 554 -6 q 493 88 500 46 l 482 88 q 410 31 442 53 q 339 -8 378 10 q 126 77 200 -8 q 51 318 51 163 q 135 565 51 478 q 367 651 218 651 q 475 640 415 651 l 472 964 l 613 975 l 603 282 m 353 554 q 228 500 274 554 q 183 339 183 446 q 225 167 183 226 q 342 107 267 107 q 408 124 376 107 q 476 181 440 140 l 479 269 l 475 522 q 353 554 408 554 m 910 640 l 1190 640 l 1251 642 l 1254 557 l 915 94 l 1143 94 l 1254 106 l 1263 94 l 1251 -3 l 1108 0 l 842 0 l 767 -3 l 765 81 l 1106 546 l 889 546 l 782 535 l 774 546 l 783 643 l 910 640 m 1213 917 q 1032 726 1133 842 l 996 726 q 817 917 896 842 l 854 972 l 868 972 q 1014 833 964 889 q 1160 972 1063 885 l 1175 972 l 1213 917 z "},"e":{"ha":646,"x_min":51,"x_max":593,"o":"m 571 314 l 181 313 q 232 152 182 207 q 374 97 282 97 q 561 154 469 97 l 575 146 l 554 32 q 357 -12 453 -12 q 133 76 214 -12 q 51 317 51 164 q 132 561 51 471 q 350 651 213 651 q 530 588 467 651 q 593 407 593 524 q 586 331 593 375 l 571 314 m 465 424 q 435 522 465 489 q 349 556 406 556 q 243 515 285 556 q 188 399 201 474 l 463 404 l 465 424 z "},"é":{"ha":646,"x_min":51,"x_max":593,"o":"m 571 314 l 181 313 q 232 152 182 207 q 374 97 282 97 q 561 154 469 97 l 575 146 l 554 32 q 357 -12 453 -12 q 133 76 214 -12 q 51 317 51 164 q 132 561 51 471 q 350 651 213 651 q 530 588 467 651 q 593 407 593 524 q 586 331 593 375 l 571 314 m 465 424 q 435 522 465 489 q 349 556 406 556 q 243 515 285 556 q 188 399 201 474 l 463 404 l 465 424 m 471 982 l 524 907 l 521 893 q 269 721 411 813 l 256 722 l 219 778 q 457 983 365 896 l 471 982 z "},"ĕ":{"ha":646,"x_min":51,"x_max":593,"o":"m 571 314 l 181 313 q 232 152 182 207 q 374 97 282 97 q 561 154 469 97 l 575 146 l 554 32 q 357 -12 453 -12 q 133 76 214 -12 q 51 317 51 164 q 132 561 51 471 q 350 651 213 651 q 530 588 467 651 q 593 407 593 524 q 586 331 593 375 l 571 314 m 465 424 q 435 522 465 489 q 349 556 406 556 q 243 515 285 556 q 188 399 201 474 l 463 404 l 465 424 m 525 899 q 458 778 507 822 q 332 733 410 733 q 210 778 256 733 q 146 899 164 822 l 183 949 l 204 949 q 252 863 218 892 q 336 833 286 833 q 420 863 386 833 q 468 949 454 892 l 489 949 l 525 899 z "},"ě":{"ha":646,"x_min":51,"x_max":593,"o":"m 571 314 l 181 313 q 232 152 182 207 q 374 97 282 97 q 561 154 469 97 l 575 146 l 554 32 q 357 -12 453 -12 q 133 76 214 -12 q 51 317 51 164 q 132 561 51 471 q 350 651 213 651 q 530 588 467 651 q 593 407 593 524 q 586 331 593 375 l 571 314 m 465 424 q 435 522 465 489 q 349 556 406 556 q 243 515 285 556 q 188 399 201 474 l 463 404 l 465 424 m 533 917 q 353 726 454 842 l 317 726 q 138 917 217 842 l 175 972 l 189 972 q 335 833 285 889 q 481 972 383 885 l 496 972 l 533 917 z "},"ḝ":{"ha":646,"x_min":51,"x_max":593,"o":"m 571 314 l 181 313 q 232 152 182 207 q 374 97 282 97 q 561 154 469 97 l 575 146 l 554 32 q 357 -12 453 -12 q 133 76 214 -12 q 51 317 51 164 q 132 561 51 471 q 350 651 213 651 q 530 588 467 651 q 593 407 593 524 q 586 331 593 375 l 571 314 m 465 424 q 435 522 465 489 q 349 556 406 556 q 243 515 285 556 q 188 399 201 474 l 463 404 l 465 424 m 371 -69 l 418 -97 q 461 -133 449 -114 q 474 -176 474 -151 q 440 -247 474 -219 q 353 -274 407 -274 q 246 -232 293 -274 l 258 -167 l 265 -164 q 304 -196 286 -185 q 344 -207 322 -207 q 374 -198 363 -207 q 385 -172 385 -189 q 358 -142 385 -154 l 290 -101 l 324 31 l 399 31 l 371 -69 m 525 899 q 458 778 507 822 q 332 733 410 733 q 210 778 256 733 q 146 899 164 822 l 183 949 l 204 949 q 252 863 218 892 q 336 833 286 833 q 420 863 386 833 q 468 949 454 892 l 489 949 l 525 899 z "},"ê":{"ha":646,"x_min":51,"x_max":593,"o":"m 571 314 l 181 313 q 232 152 182 207 q 374 97 282 97 q 561 154 469 97 l 575 146 l 554 32 q 357 -12 453 -12 q 133 76 214 -12 q 51 317 51 164 q 132 561 51 471 q 350 651 213 651 q 530 588 467 651 q 593 407 593 524 q 586 331 593 375 l 571 314 m 465 424 q 435 522 465 489 q 349 556 406 556 q 243 515 285 556 q 188 399 201 474 l 463 404 l 465 424 m 138 783 q 318 974 217 858 l 354 974 q 533 783 454 858 l 496 728 l 482 728 q 336 867 386 811 q 190 728 288 815 l 175 728 l 138 783 z "},"ế":{"ha":646,"x_min":51,"x_max":593,"o":"m 571 314 l 181 313 q 232 152 182 207 q 374 97 282 97 q 561 154 469 97 l 575 146 l 554 32 q 357 -12 453 -12 q 133 76 214 -12 q 51 317 51 164 q 132 561 51 471 q 350 651 213 651 q 530 588 467 651 q 593 407 593 524 q 586 331 593 375 l 571 314 m 465 424 q 435 522 465 489 q 349 556 406 556 q 243 515 285 556 q 188 399 201 474 l 463 404 l 465 424 m 576 1046 l 581 1033 l 472 901 l 460 901 l 410 940 l 496 1078 l 508 1081 l 576 1046 m 146 794 q 317 928 247 867 l 350 928 q 522 794 435 856 l 496 736 l 481 736 l 335 826 l 188 736 l 174 736 l 146 794 z "},"ệ":{"ha":646,"x_min":51,"x_max":593,"o":"m 571 314 l 181 313 q 232 152 182 207 q 374 97 282 97 q 561 154 469 97 l 575 146 l 554 32 q 357 -12 453 -12 q 133 76 214 -12 q 51 317 51 164 q 132 561 51 471 q 350 651 213 651 q 530 588 467 651 q 593 407 593 524 q 586 331 593 375 l 571 314 m 465 424 q 435 522 465 489 q 349 556 406 556 q 243 515 285 556 q 188 399 201 474 l 463 404 l 465 424 m 354 -86 q 408 -106 389 -86 q 428 -162 428 -126 q 407 -222 428 -200 q 350 -244 386 -244 q 294 -224 314 -244 q 274 -167 274 -203 q 295 -108 274 -131 q 354 -86 317 -86 m 138 783 q 318 974 217 858 l 354 974 q 533 783 454 858 l 496 728 l 482 728 q 336 867 386 811 q 190 728 288 815 l 175 728 l 138 783 z "},"ề":{"ha":646,"x_min":51,"x_max":593,"o":"m 571 314 l 181 313 q 232 152 182 207 q 374 97 282 97 q 561 154 469 97 l 575 146 l 554 32 q 357 -12 453 -12 q 133 76 214 -12 q 51 317 51 164 q 132 561 51 471 q 350 651 213 651 q 530 588 467 651 q 593 407 593 524 q 586 331 593 375 l 571 314 m 465 424 q 435 522 465 489 q 349 556 406 556 q 243 515 285 556 q 188 399 201 474 l 463 404 l 465 424 m 371 1033 l 372 1046 l 440 1081 l 453 1078 l 542 940 l 490 901 l 479 901 l 371 1033 m 146 794 q 317 928 247 867 l 350 928 q 522 794 435 856 l 496 736 l 481 736 l 335 826 l 188 736 l 174 736 l 146 794 z "},"ể":{"ha":646,"x_min":51,"x_max":597,"o":"m 571 314 l 181 313 q 232 152 182 207 q 374 97 282 97 q 561 154 469 97 l 575 146 l 554 32 q 357 -12 453 -12 q 133 76 214 -12 q 51 317 51 164 q 132 561 51 471 q 350 651 213 651 q 530 588 467 651 q 593 407 593 524 q 586 331 593 375 l 571 314 m 465 424 q 435 522 465 489 q 349 556 406 556 q 243 515 285 556 q 188 399 201 474 l 463 404 l 465 424 m 146 824 q 317 957 246 892 l 350 957 q 522 824 433 883 l 497 764 l 481 764 l 432 794 l 335 856 q 213 779 319 846 l 188 764 l 174 764 l 146 824 m 446 991 q 498 1039 479 1015 q 517 1082 517 1064 q 507 1104 517 1097 q 479 1112 496 1112 q 438 1103 460 1112 q 396 1078 416 1094 l 371 1119 q 433 1166 400 1150 q 500 1182 467 1182 q 570 1158 542 1182 q 597 1097 597 1134 q 581 1048 597 1072 q 525 991 565 1024 l 553 942 l 497 912 l 446 991 z "},"ễ":{"ha":646,"x_min":51,"x_max":593,"o":"m 571 314 l 181 313 q 232 152 182 207 q 374 97 282 97 q 561 154 469 97 l 575 146 l 554 32 q 357 -12 453 -12 q 133 76 214 -12 q 51 317 51 164 q 132 561 51 471 q 350 651 213 651 q 530 588 467 651 q 593 407 593 524 q 586 331 593 375 l 571 314 m 465 424 q 435 522 465 489 q 349 556 406 556 q 243 515 285 556 q 188 399 201 474 l 463 404 l 465 424 m 147 824 q 318 957 247 892 l 351 957 q 524 824 435 883 l 499 764 l 482 764 l 433 794 l 336 856 q 214 779 321 846 l 189 764 l 175 764 l 147 824 m 563 1121 l 563 1107 l 472 1000 l 458 994 q 343 1022 436 997 q 243 1046 264 1046 q 217 1035 229 1046 q 182 1000 204 1024 l 161 978 l 147 978 l 106 1022 l 106 1035 l 197 1142 l 211 1147 q 324 1119 236 1143 q 426 1096 406 1096 q 452 1107 439 1096 q 482 1136 465 1118 q 508 1164 499 1154 l 521 1164 l 563 1121 z "},"ȅ":{"ha":646,"x_min":51,"x_max":593,"o":"m 571 314 l 181 313 q 232 152 182 207 q 374 97 282 97 q 561 154 469 97 l 575 146 l 554 32 q 357 -12 453 -12 q 133 76 214 -12 q 51 317 51 164 q 132 561 51 471 q 350 651 213 651 q 530 588 467 651 q 593 407 593 524 q 586 331 593 375 l 571 314 m 465 424 q 435 522 465 489 q 349 556 406 556 q 243 515 285 556 q 188 399 201 474 l 463 404 l 465 424 m 340 761 q 160 985 257 857 l 147 986 l 83 939 l 81 926 q 282 724 146 857 l 294 721 l 340 761 m 543 761 q 363 985 471 842 l 350 986 l 285 939 l 285 926 q 485 724 367 840 l 499 721 l 543 761 z "},"ë":{"ha":646,"x_min":51,"x_max":593,"o":"m 571 314 l 181 313 q 232 152 182 207 q 374 97 282 97 q 561 154 469 97 l 575 146 l 554 32 q 357 -12 453 -12 q 133 76 214 -12 q 51 317 51 164 q 132 561 51 471 q 350 651 213 651 q 530 588 467 651 q 593 407 593 524 q 586 331 593 375 l 571 314 m 465 424 q 435 522 465 489 q 349 556 406 556 q 243 515 285 556 q 188 399 201 474 l 463 404 l 465 424 m 225 922 q 276 903 257 922 q 294 853 294 885 q 274 797 294 818 q 221 776 254 776 q 168 795 186 776 q 150 847 150 814 q 170 902 150 882 q 225 922 190 922 m 453 922 q 504 903 486 922 q 522 853 522 885 q 502 797 522 818 q 449 776 482 776 q 397 795 415 776 q 378 847 378 814 q 398 902 378 882 q 453 922 418 922 z "},"ė":{"ha":646,"x_min":51,"x_max":593,"o":"m 571 314 l 181 313 q 232 152 182 207 q 374 97 282 97 q 561 154 469 97 l 575 146 l 554 32 q 357 -12 453 -12 q 133 76 214 -12 q 51 317 51 164 q 132 561 51 471 q 350 651 213 651 q 530 588 467 651 q 593 407 593 524 q 586 331 593 375 l 571 314 m 465 424 q 435 522 465 489 q 349 556 406 556 q 243 515 285 556 q 188 399 201 474 l 463 404 l 465 424 m 338 939 q 392 919 372 939 q 411 863 411 899 q 390 803 411 825 q 333 781 369 781 q 277 801 297 781 q 257 858 257 822 q 278 917 257 894 q 338 939 300 939 z "},"ẹ":{"ha":646,"x_min":51,"x_max":593,"o":"m 571 314 l 181 313 q 232 152 182 207 q 374 97 282 97 q 561 154 469 97 l 575 146 l 554 32 q 357 -12 453 -12 q 133 76 214 -12 q 51 317 51 164 q 132 561 51 471 q 350 651 213 651 q 530 588 467 651 q 593 407 593 524 q 586 331 593 375 l 571 314 m 465 424 q 435 522 465 489 q 349 556 406 556 q 243 515 285 556 q 188 399 201 474 l 463 404 l 465 424 m 354 -86 q 408 -106 389 -86 q 428 -162 428 -126 q 407 -222 428 -200 q 350 -244 386 -244 q 294 -224 314 -244 q 274 -167 274 -203 q 295 -108 274 -131 q 354 -86 317 -86 z "},"è":{"ha":646,"x_min":51,"x_max":593,"o":"m 571 314 l 181 313 q 232 152 182 207 q 374 97 282 97 q 561 154 469 97 l 575 146 l 554 32 q 357 -12 453 -12 q 133 76 214 -12 q 51 317 51 164 q 132 561 51 471 q 350 651 213 651 q 530 588 467 651 q 593 407 593 524 q 586 331 593 375 l 571 314 m 465 424 q 435 522 465 489 q 349 556 406 556 q 243 515 285 556 q 188 399 201 474 l 463 404 l 465 424 m 249 983 q 486 778 340 896 l 450 722 l 436 721 q 185 893 294 813 l 182 907 l 235 982 l 249 983 z "},"ẻ":{"ha":646,"x_min":51,"x_max":593,"o":"m 571 314 l 181 313 q 232 152 182 207 q 374 97 282 97 q 561 154 469 97 l 575 146 l 554 32 q 357 -12 453 -12 q 133 76 214 -12 q 51 317 51 164 q 132 561 51 471 q 350 651 213 651 q 530 588 467 651 q 593 407 593 524 q 586 331 593 375 l 571 314 m 465 424 q 435 522 465 489 q 349 556 406 556 q 243 515 285 556 q 188 399 201 474 l 463 404 l 465 424 m 288 790 q 342 841 322 815 q 363 886 363 867 q 351 909 363 901 q 322 917 340 917 q 279 908 303 917 q 235 882 256 899 l 208 925 q 274 974 239 957 q 344 990 310 990 q 417 965 389 990 q 446 901 446 940 q 429 850 446 875 q 371 790 413 825 l 400 739 l 342 707 l 288 790 z "},"ȇ":{"ha":646,"x_min":51,"x_max":593,"o":"m 571 314 l 181 313 q 232 152 182 207 q 374 97 282 97 q 561 154 469 97 l 575 146 l 554 32 q 357 -12 453 -12 q 133 76 214 -12 q 51 317 51 164 q 132 561 51 471 q 350 651 213 651 q 530 588 467 651 q 593 407 593 524 q 586 331 593 375 l 571 314 m 465 424 q 435 522 465 489 q 349 556 406 556 q 243 515 285 556 q 188 399 201 474 l 463 404 l 465 424 m 144 803 q 211 924 163 879 q 338 968 260 968 q 460 924 414 968 q 524 803 506 879 l 486 753 l 465 753 q 417 839 451 810 q 333 868 383 868 q 249 839 283 868 q 201 753 215 810 l 181 753 l 144 803 z "},"ē":{"ha":646,"x_min":51,"x_max":593,"o":"m 571 314 l 181 313 q 232 152 182 207 q 374 97 282 97 q 561 154 469 97 l 575 146 l 554 32 q 357 -12 453 -12 q 133 76 214 -12 q 51 317 51 164 q 132 561 51 471 q 350 651 213 651 q 530 588 467 651 q 593 407 593 524 q 586 331 593 375 l 571 314 m 465 424 q 435 522 465 489 q 349 556 406 556 q 243 515 285 556 q 188 399 201 474 l 463 404 l 465 424 m 539 886 l 532 804 l 140 804 l 131 815 l 136 896 l 528 896 l 539 886 z "},"ḗ":{"ha":646,"x_min":51,"x_max":593,"o":"m 571 314 l 181 313 q 232 152 182 207 q 374 97 282 97 q 561 154 469 97 l 575 146 l 554 32 q 357 -12 453 -12 q 133 76 214 -12 q 51 317 51 164 q 132 561 51 471 q 350 651 213 651 q 530 588 467 651 q 593 407 593 524 q 586 331 593 375 l 571 314 m 465 424 q 435 522 465 489 q 349 556 406 556 q 243 515 285 556 q 188 399 201 474 l 463 404 l 465 424 m 479 1097 l 500 1008 l 492 996 q 194 933 357 964 l 181 940 l 167 1006 q 465 1104 324 1051 l 479 1097 m 496 851 l 489 769 l 183 769 l 174 781 l 179 861 l 486 861 l 496 851 z "},"ḕ":{"ha":646,"x_min":51,"x_max":593,"o":"m 571 314 l 181 313 q 232 152 182 207 q 374 97 282 97 q 561 154 469 97 l 575 146 l 554 32 q 357 -12 453 -12 q 133 76 214 -12 q 51 317 51 164 q 132 561 51 471 q 350 651 213 651 q 530 588 467 651 q 593 407 593 524 q 586 331 593 375 l 571 314 m 465 424 q 435 522 465 489 q 349 556 406 556 q 243 515 285 556 q 188 399 201 474 l 463 404 l 465 424 m 475 933 q 176 996 322 961 l 169 1008 l 190 1097 l 204 1104 q 501 1006 350 1050 l 489 940 l 475 933 m 496 851 l 489 769 l 183 769 l 174 781 l 179 861 l 486 861 l 496 851 z "},"ę":{"ha":646,"x_min":51,"x_max":593,"o":"m 571 314 l 181 313 q 232 152 182 207 q 374 97 282 97 q 561 154 469 97 l 575 146 l 554 32 q 357 -12 453 -12 q 133 76 214 -12 q 51 317 51 164 q 132 561 51 471 q 350 651 213 651 q 530 588 467 651 q 593 407 593 524 q 586 331 593 375 l 571 314 m 465 424 q 435 522 465 489 q 349 556 406 556 q 243 515 285 556 q 188 399 201 474 l 463 404 l 465 424 m 443 -286 q 350 -257 385 -286 q 315 -178 315 -228 q 347 -90 315 -133 q 471 32 378 -46 l 554 32 q 436 -101 463 -67 q 410 -158 410 -135 q 456 -199 410 -199 q 557 -150 500 -199 l 565 -151 l 586 -222 q 443 -286 518 -286 z "},"ẽ":{"ha":646,"x_min":51,"x_max":593,"o":"m 571 314 l 181 313 q 232 152 182 207 q 374 97 282 97 q 561 154 469 97 l 575 146 l 554 32 q 357 -12 453 -12 q 133 76 214 -12 q 51 317 51 164 q 132 561 51 471 q 350 651 213 651 q 530 588 467 651 q 593 407 593 524 q 586 331 593 375 l 571 314 m 465 424 q 435 522 465 489 q 349 556 406 556 q 243 515 285 556 q 188 399 201 474 l 463 404 l 465 424 m 563 903 l 563 890 l 472 783 l 458 776 q 346 804 433 781 q 243 828 264 828 q 217 817 229 828 q 182 782 204 806 l 161 760 l 147 760 l 104 804 l 104 817 l 194 924 l 210 929 q 324 903 247 924 q 425 879 406 879 q 453 891 439 879 q 483 921 467 903 q 507 947 500 939 l 521 947 l 563 903 z "},"ə":{"ha":646,"x_min":53,"x_max":594,"o":"m 289 653 q 513 565 432 653 q 594 324 594 476 q 514 79 594 169 q 296 -11 433 -11 q 116 53 179 -11 q 53 233 53 117 q 60 310 53 265 l 75 326 l 465 328 q 414 488 464 433 q 272 543 364 543 q 85 486 176 543 l 71 494 l 92 608 q 289 653 193 653 m 297 85 q 403 126 361 85 q 458 242 444 167 l 183 236 l 181 217 q 210 118 181 151 q 297 85 240 85 z "},"f":{"ha":436,"x_min":44,"x_max":508,"o":"m 396 978 q 508 965 450 978 l 500 858 l 490 850 q 383 876 431 876 q 307 847 333 876 q 279 757 281 817 l 278 638 l 442 638 l 446 628 l 438 547 l 276 547 l 272 282 l 282 0 l 140 0 l 149 269 l 146 547 l 50 547 l 44 556 l 51 638 l 146 638 l 144 733 q 209 915 143 851 q 396 978 275 978 z "},"g":{"ha":683,"x_min":71,"x_max":688,"o":"m 688 572 q 568 546 649 560 l 565 540 q 592 433 592 496 q 521 270 592 331 q 329 210 450 210 q 244 218 285 210 q 222 194 228 204 q 215 172 215 183 q 251 133 215 144 q 363 111 286 122 q 494 88 442 101 q 585 40 547 74 q 624 -51 624 7 q 583 -162 624 -112 q 473 -241 543 -212 q 317 -269 403 -269 q 135 -218 200 -269 q 71 -83 71 -167 q 121 -24 92 -50 q 190 29 150 3 l 190 36 q 115 80 142 53 q 89 153 89 107 q 178 238 125 204 l 178 244 q 106 316 131 271 q 82 422 82 361 q 152 588 82 528 q 342 649 222 649 q 469 625 414 649 q 675 674 572 642 l 688 665 l 688 572 m 335 300 q 433 335 399 300 q 467 433 467 369 q 435 525 467 493 q 340 557 403 557 q 241 524 275 557 q 207 429 207 492 q 240 333 207 367 q 335 300 272 300 m 501 -78 q 478 -31 501 -47 q 421 -6 454 -14 q 324 11 388 1 q 281 17 293 14 q 214 -37 236 -11 q 192 -92 192 -64 q 228 -153 192 -129 q 333 -178 265 -178 q 454 -150 407 -178 q 501 -78 501 -122 z "},"ğ":{"ha":683,"x_min":71,"x_max":688,"o":"m 688 572 q 568 546 649 560 l 565 540 q 592 433 592 496 q 521 270 592 331 q 329 210 450 210 q 244 218 285 210 q 222 194 228 204 q 215 172 215 183 q 251 133 215 144 q 363 111 286 122 q 494 88 442 101 q 585 40 547 74 q 624 -51 624 7 q 583 -162 624 -112 q 473 -241 543 -212 q 317 -269 403 -269 q 135 -218 200 -269 q 71 -83 71 -167 q 121 -24 92 -50 q 190 29 150 3 l 190 36 q 115 80 142 53 q 89 153 89 107 q 178 238 125 204 l 178 244 q 106 316 131 271 q 82 422 82 361 q 152 588 82 528 q 342 649 222 649 q 469 625 414 649 q 675 674 572 642 l 688 665 l 688 572 m 335 300 q 433 335 399 300 q 467 433 467 369 q 435 525 467 493 q 340 557 403 557 q 241 524 275 557 q 207 429 207 492 q 240 333 207 367 q 335 300 272 300 m 501 -78 q 478 -31 501 -47 q 421 -6 454 -14 q 324 11 388 1 q 281 17 293 14 q 214 -37 236 -11 q 192 -92 192 -64 q 228 -153 192 -129 q 333 -178 265 -178 q 454 -150 407 -178 q 501 -78 501 -122 m 536 886 q 469 765 518 810 q 343 721 421 721 q 221 765 267 721 q 157 886 175 810 l 194 936 l 215 936 q 263 850 229 879 q 347 821 297 821 q 431 850 397 821 q 479 936 465 879 l 500 936 l 536 886 z "},"ǧ":{"ha":683,"x_min":71,"x_max":688,"o":"m 688 572 q 568 546 649 560 l 565 540 q 592 433 592 496 q 521 270 592 331 q 329 210 450 210 q 244 218 285 210 q 222 194 228 204 q 215 172 215 183 q 251 133 215 144 q 363 111 286 122 q 494 88 442 101 q 585 40 547 74 q 624 -51 624 7 q 583 -162 624 -112 q 473 -241 543 -212 q 317 -269 403 -269 q 135 -218 200 -269 q 71 -83 71 -167 q 121 -24 92 -50 q 190 29 150 3 l 190 36 q 115 80 142 53 q 89 153 89 107 q 178 238 125 204 l 178 244 q 106 316 131 271 q 82 422 82 361 q 152 588 82 528 q 342 649 222 649 q 469 625 414 649 q 675 674 572 642 l 688 665 l 688 572 m 335 300 q 433 335 399 300 q 467 433 467 369 q 435 525 467 493 q 340 557 403 557 q 241 524 275 557 q 207 429 207 492 q 240 333 207 367 q 335 300 272 300 m 501 -78 q 478 -31 501 -47 q 421 -6 454 -14 q 324 11 388 1 q 281 17 293 14 q 214 -37 236 -11 q 192 -92 192 -64 q 228 -153 192 -129 q 333 -178 265 -178 q 454 -150 407 -178 q 501 -78 501 -122 m 544 904 q 364 714 465 829 l 328 714 q 149 904 228 829 l 186 960 l 200 960 q 346 821 296 876 q 492 960 394 872 l 507 960 l 544 904 z "},"ĝ":{"ha":683,"x_min":71,"x_max":688,"o":"m 688 572 q 568 546 649 560 l 565 540 q 592 433 592 496 q 521 270 592 331 q 329 210 450 210 q 244 218 285 210 q 222 194 228 204 q 215 172 215 183 q 251 133 215 144 q 363 111 286 122 q 494 88 442 101 q 585 40 547 74 q 624 -51 624 7 q 583 -162 624 -112 q 473 -241 543 -212 q 317 -269 403 -269 q 135 -218 200 -269 q 71 -83 71 -167 q 121 -24 92 -50 q 190 29 150 3 l 190 36 q 115 80 142 53 q 89 153 89 107 q 178 238 125 204 l 178 244 q 106 316 131 271 q 82 422 82 361 q 152 588 82 528 q 342 649 222 649 q 469 625 414 649 q 675 674 572 642 l 688 665 l 688 572 m 335 300 q 433 335 399 300 q 467 433 467 369 q 435 525 467 493 q 340 557 403 557 q 241 524 275 557 q 207 429 207 492 q 240 333 207 367 q 335 300 272 300 m 501 -78 q 478 -31 501 -47 q 421 -6 454 -14 q 324 11 388 1 q 281 17 293 14 q 214 -37 236 -11 q 192 -92 192 -64 q 228 -153 192 -129 q 333 -178 265 -178 q 454 -150 407 -178 q 501 -78 501 -122 m 149 771 q 329 961 228 846 l 365 961 q 544 771 465 846 l 507 715 l 493 715 q 347 854 397 799 q 201 715 299 803 l 186 715 l 149 771 z "},"ģ":{"ha":683,"x_min":71,"x_max":688,"o":"m 335 719 q 282 762 299 736 q 265 825 265 788 q 369 1014 265 914 l 417 982 l 418 972 q 365 864 365 915 q 415 783 365 808 l 415 772 q 335 719 376 739 m 688 572 q 568 546 649 560 l 565 540 q 592 433 592 496 q 521 270 592 331 q 329 210 450 210 q 244 218 285 210 q 222 194 228 204 q 215 172 215 183 q 251 133 215 144 q 363 111 286 122 q 494 88 442 101 q 585 40 547 74 q 624 -51 624 7 q 583 -162 624 -112 q 473 -241 543 -212 q 317 -269 403 -269 q 135 -218 200 -269 q 71 -83 71 -167 q 121 -24 92 -50 q 190 29 150 3 l 190 36 q 115 80 142 53 q 89 153 89 107 q 178 238 125 204 l 178 244 q 106 316 131 271 q 82 422 82 361 q 152 588 82 528 q 342 649 222 649 q 469 625 414 649 q 675 674 572 642 l 688 665 l 688 572 m 335 300 q 433 335 399 300 q 467 433 467 369 q 435 525 467 493 q 340 557 403 557 q 241 524 275 557 q 207 429 207 492 q 240 333 207 367 q 335 300 272 300 m 501 -78 q 478 -31 501 -47 q 421 -6 454 -14 q 324 11 388 1 q 281 17 293 14 q 214 -37 236 -11 q 192 -92 192 -64 q 228 -153 192 -129 q 333 -178 265 -178 q 454 -150 407 -178 q 501 -78 501 -122 z "},"ġ":{"ha":683,"x_min":71,"x_max":688,"o":"m 688 572 q 568 546 649 560 l 565 540 q 592 433 592 496 q 521 270 592 331 q 329 210 450 210 q 244 218 285 210 q 222 194 228 204 q 215 172 215 183 q 251 133 215 144 q 363 111 286 122 q 494 88 442 101 q 585 40 547 74 q 624 -51 624 7 q 583 -162 624 -112 q 473 -241 543 -212 q 317 -269 403 -269 q 135 -218 200 -269 q 71 -83 71 -167 q 121 -24 92 -50 q 190 29 150 3 l 190 36 q 115 80 142 53 q 89 153 89 107 q 178 238 125 204 l 178 244 q 106 316 131 271 q 82 422 82 361 q 152 588 82 528 q 342 649 222 649 q 469 625 414 649 q 675 674 572 642 l 688 665 l 688 572 m 335 300 q 433 335 399 300 q 467 433 467 369 q 435 525 467 493 q 340 557 403 557 q 241 524 275 557 q 207 429 207 492 q 240 333 207 367 q 335 300 272 300 m 501 -78 q 478 -31 501 -47 q 421 -6 454 -14 q 324 11 388 1 q 281 17 293 14 q 214 -37 236 -11 q 192 -92 192 -64 q 228 -153 192 -129 q 333 -178 265 -178 q 454 -150 407 -178 q 501 -78 501 -122 m 349 926 q 403 906 383 926 q 422 850 422 886 q 401 790 422 813 q 344 768 381 768 q 288 789 308 768 q 268 846 268 810 q 290 904 268 882 q 349 926 311 926 z "},"ḡ":{"ha":683,"x_min":71,"x_max":688,"o":"m 688 572 q 568 546 649 560 l 565 540 q 592 433 592 496 q 521 270 592 331 q 329 210 450 210 q 244 218 285 210 q 222 194 228 204 q 215 172 215 183 q 251 133 215 144 q 363 111 286 122 q 494 88 442 101 q 585 40 547 74 q 624 -51 624 7 q 583 -162 624 -112 q 473 -241 543 -212 q 317 -269 403 -269 q 135 -218 200 -269 q 71 -83 71 -167 q 121 -24 92 -50 q 190 29 150 3 l 190 36 q 115 80 142 53 q 89 153 89 107 q 178 238 125 204 l 178 244 q 106 316 131 271 q 82 422 82 361 q 152 588 82 528 q 342 649 222 649 q 469 625 414 649 q 675 674 572 642 l 688 665 l 688 572 m 335 300 q 433 335 399 300 q 467 433 467 369 q 435 525 467 493 q 340 557 403 557 q 241 524 275 557 q 207 429 207 492 q 240 333 207 367 q 335 300 272 300 m 501 -78 q 478 -31 501 -47 q 421 -6 454 -14 q 324 11 388 1 q 281 17 293 14 q 214 -37 236 -11 q 192 -92 192 -64 q 228 -153 192 -129 q 333 -178 265 -178 q 454 -150 407 -178 q 501 -78 501 -122 m 550 874 l 543 792 l 151 792 l 142 803 l 147 883 l 539 883 l 550 874 z "},"h":{"ha":729,"x_min":106,"x_max":639,"o":"m 506 421 q 481 503 507 474 q 407 533 456 533 q 240 450 328 533 l 238 282 l 247 0 l 106 0 l 115 269 l 107 964 l 249 975 l 242 550 l 250 550 q 421 649 332 622 q 583 600 528 649 q 636 461 638 551 l 633 281 l 639 0 l 497 0 l 506 421 z "},"ħ":{"ha":724,"x_min":4,"x_max":636,"o":"m 503 421 q 478 503 504 474 q 404 533 453 533 q 238 450 324 533 l 235 282 l 244 0 l 103 0 l 111 269 l 107 744 l 14 744 l 4 754 l 10 822 l 106 822 l 104 964 l 246 975 l 243 822 l 429 822 l 439 813 l 435 744 l 242 744 l 239 550 l 247 550 q 418 649 329 622 q 580 600 525 649 q 633 461 635 551 l 629 281 l 636 0 l 493 0 l 503 421 z "},"ḫ":{"ha":729,"x_min":106,"x_max":639,"o":"m 506 421 q 481 503 507 474 q 407 533 456 533 q 240 450 328 533 l 238 282 l 247 0 l 106 0 l 115 269 l 107 964 l 249 975 l 242 550 l 250 550 q 421 649 332 622 q 583 600 528 649 q 636 461 638 551 l 633 281 l 639 0 l 497 0 l 506 421 m 554 -128 q 488 -249 536 -204 q 361 -293 439 -293 q 239 -249 285 -293 q 175 -128 193 -204 l 213 -78 l 233 -78 q 281 -164 247 -135 q 365 -193 315 -193 q 449 -164 415 -193 q 497 -78 483 -135 l 518 -78 l 554 -128 z "},"ĥ":{"ha":729,"x_min":-14,"x_max":639,"o":"m 506 421 q 481 503 507 474 q 407 533 456 533 q 240 450 328 533 l 238 282 l 247 0 l 106 0 l 115 269 l 107 964 l 249 975 l 242 550 l 250 550 q 421 649 332 622 q 583 600 528 649 q 636 461 638 551 l 633 281 l 639 0 l 497 0 l 506 421 m -14 1085 q 157 1218 86 1153 l 190 1218 q 363 1085 274 1144 l 338 1025 l 321 1025 l 272 1056 l 175 1117 q 53 1040 160 1107 l 28 1025 l 14 1025 l -14 1085 z "},"ḥ":{"ha":729,"x_min":106,"x_max":639,"o":"m 506 421 q 481 503 507 474 q 407 533 456 533 q 240 450 328 533 l 238 282 l 247 0 l 106 0 l 115 269 l 107 964 l 249 975 l 242 550 l 250 550 q 421 649 332 622 q 583 600 528 649 q 636 461 638 551 l 633 281 l 639 0 l 497 0 l 506 421 m 368 -86 q 422 -106 403 -86 q 442 -162 442 -126 q 421 -222 442 -200 q 364 -244 400 -244 q 308 -224 328 -244 q 288 -167 288 -203 q 309 -108 288 -131 q 368 -86 331 -86 z "},"i":{"ha":347,"x_min":94,"x_max":249,"o":"m 108 268 l 104 631 l 243 643 l 238 281 l 242 0 l 103 0 l 108 268 m 175 939 q 229 919 210 939 q 249 863 249 899 q 228 803 249 825 q 171 781 207 781 q 115 801 135 781 q 94 858 94 822 q 116 917 94 894 q 175 939 138 939 z "},"ı":{"ha":347,"x_min":103,"x_max":243,"o":"m 108 268 l 104 631 l 243 643 l 238 281 l 242 0 l 103 0 l 108 268 z "},"í":{"ha":347,"x_min":57,"x_max":361,"o":"m 108 268 l 104 631 l 243 643 l 238 281 l 242 0 l 103 0 l 108 268 m 308 982 l 361 907 l 358 893 q 107 721 249 813 l 93 722 l 57 778 q 294 983 203 896 l 308 982 z "},"ĭ":{"ha":347,"x_min":-17,"x_max":363,"o":"m 108 268 l 104 631 l 243 643 l 238 281 l 242 0 l 103 0 l 108 268 m 363 899 q 296 778 344 822 q 169 733 247 733 q 47 778 93 733 q -17 899 1 822 l 21 949 l 42 949 q 90 863 56 892 q 174 833 124 833 q 258 863 224 833 q 306 949 292 892 l 326 949 l 363 899 z "},"ǐ":{"ha":347,"x_min":-25,"x_max":371,"o":"m 108 268 l 104 631 l 243 643 l 238 281 l 242 0 l 103 0 l 108 268 m 371 917 q 190 726 292 842 l 154 726 q -25 917 54 842 l 13 972 l 26 972 q 172 833 122 889 q 318 972 221 885 l 333 972 l 371 917 z "},"î":{"ha":347,"x_min":-25,"x_max":371,"o":"m 108 268 l 104 631 l 243 643 l 238 281 l 242 0 l 103 0 l 108 268 m -25 783 q 156 974 54 858 l 192 974 q 371 783 292 858 l 333 728 l 319 728 q 174 867 224 811 q 28 728 125 815 l 13 728 l -25 783 z "},"ȉ":{"ha":347,"x_min":-82,"x_max":381,"o":"m 108 268 l 104 631 l 243 643 l 238 281 l 242 0 l 103 0 l 108 268 m 178 761 q -3 985 94 857 l -15 986 l -79 939 l -82 926 q 119 724 -17 857 l 132 721 l 178 761 m 381 761 q 200 985 308 842 l 188 986 l 122 939 l 122 926 q 322 724 204 840 l 336 721 l 381 761 z "},"ï":{"ha":347,"x_min":21,"x_max":325,"o":"m 108 268 l 104 631 l 243 643 l 238 281 l 242 0 l 103 0 l 108 268 m 94 921 q 142 903 125 921 q 160 853 160 885 q 140 798 160 818 q 89 778 121 778 q 38 796 56 778 q 21 847 21 814 q 40 901 21 881 q 94 921 60 921 m 258 921 q 307 903 289 921 q 325 853 325 885 q 306 798 325 818 q 254 778 286 778 q 203 796 221 778 q 185 847 185 814 q 204 901 185 881 q 258 921 224 921 z "},"ḯ":{"ha":347,"x_min":-14,"x_max":353,"o":"m 108 268 l 104 631 l 243 643 l 238 281 l 242 0 l 103 0 l 108 268 m 313 1117 l 333 1029 l 326 1015 q 29 953 197 986 l 15 960 l 1 1026 q 300 1125 172 1075 l 313 1117 m 58 892 q 106 874 89 892 q 124 824 124 856 q 105 772 124 792 q 54 751 86 751 q 4 769 22 751 q -14 819 -14 788 q 6 872 -14 851 q 58 892 25 892 m 286 892 q 335 874 318 892 q 353 824 353 856 q 333 772 353 792 q 282 751 314 751 q 233 769 250 751 q 215 819 215 788 q 235 872 215 851 q 286 892 254 892 z "},"ị":{"ha":347,"x_min":94,"x_max":249,"o":"m 108 268 l 104 631 l 243 643 l 238 281 l 242 0 l 103 0 l 108 268 m 175 939 q 229 919 210 939 q 249 863 249 899 q 228 803 249 825 q 171 781 207 781 q 115 801 135 781 q 94 858 94 822 q 116 917 94 894 q 175 939 138 939 m 175 -86 q 229 -106 210 -86 q 249 -162 249 -126 q 228 -222 249 -200 q 171 -244 207 -244 q 115 -224 135 -244 q 94 -167 94 -203 q 116 -108 94 -131 q 175 -86 138 -86 z "},"ì":{"ha":347,"x_min":19,"x_max":324,"o":"m 108 268 l 104 631 l 243 643 l 238 281 l 242 0 l 103 0 l 108 268 m 86 983 q 324 778 178 896 l 288 722 l 274 721 q 22 893 132 813 l 19 907 l 72 982 l 86 983 z "},"ỉ":{"ha":347,"x_min":46,"x_max":283,"o":"m 108 268 l 104 631 l 243 643 l 238 281 l 242 0 l 103 0 l 108 268 m 125 790 q 180 841 160 815 q 200 886 200 867 q 189 909 200 901 q 160 917 178 917 q 117 908 140 917 q 72 882 93 899 l 46 925 q 112 974 76 957 q 182 990 147 990 q 255 965 226 990 q 283 901 283 940 q 267 850 283 875 q 208 790 250 825 l 238 739 l 179 707 l 125 790 z "},"ȋ":{"ha":347,"x_min":-18,"x_max":361,"o":"m 108 268 l 104 631 l 243 643 l 238 281 l 242 0 l 103 0 l 108 268 m -18 803 q 49 924 0 879 q 175 968 97 968 q 297 924 251 968 q 361 803 343 879 l 324 753 l 303 753 q 255 839 289 810 q 171 868 221 868 q 87 839 121 868 q 39 753 53 810 l 18 753 l -18 803 z "},"ĳ":{"ha":729,"x_min":94,"x_max":624,"o":"m 108 268 l 104 631 l 243 643 l 238 281 l 242 0 l 103 0 l 108 268 m 175 939 q 229 919 210 939 q 249 863 249 899 q 228 803 249 825 q 171 781 207 781 q 115 801 135 781 q 94 858 94 822 q 116 917 94 894 q 175 939 138 939 m 624 640 l 613 281 l 621 31 q 573 -147 621 -78 q 413 -269 525 -215 l 361 -207 l 361 -192 q 459 -103 431 -151 q 488 25 488 -56 l 489 268 l 483 547 l 361 547 l 351 557 l 360 638 l 486 638 l 618 643 l 624 640 m 533 939 q 588 919 568 939 q 607 863 607 899 q 586 803 607 825 q 529 781 565 781 q 473 801 493 781 q 453 858 453 822 q 474 917 453 894 q 533 939 496 939 z "},"ī":{"ha":347,"x_min":11,"x_max":333,"o":"m 108 268 l 104 631 l 243 643 l 238 281 l 242 0 l 103 0 l 108 268 m 333 886 l 326 804 l 21 804 l 11 815 l 17 896 l 324 896 l 333 886 z "},"į":{"ha":347,"x_min":25,"x_max":263,"o":"m 108 268 l 104 631 l 243 643 l 238 281 l 242 0 l 103 0 l 108 268 m 175 939 q 229 919 210 939 q 249 863 249 899 q 228 803 249 825 q 171 781 207 781 q 115 801 135 781 q 94 858 94 822 q 116 917 94 894 q 175 939 138 939 m 242 0 q 139 -106 163 -78 q 115 -154 115 -135 q 124 -176 115 -168 q 149 -185 133 -185 q 231 -139 185 -185 l 239 -140 l 263 -206 q 131 -269 204 -269 q 54 -244 83 -269 q 25 -176 25 -218 q 53 -99 25 -137 q 151 0 82 -60 l 242 0 z "},"ĩ":{"ha":347,"x_min":-31,"x_max":374,"o":"m 108 268 l 104 631 l 243 643 l 238 281 l 242 0 l 103 0 l 108 268 m 374 899 l 374 886 l 293 779 l 279 775 q 179 803 239 782 q 97 824 114 824 q 72 812 85 824 q 46 783 60 800 q 25 758 32 767 l 13 758 l -31 801 l -31 814 l 51 919 l 65 925 q 167 897 93 921 q 247 876 232 876 q 273 888 261 876 q 299 917 285 900 q 319 943 313 935 l 332 943 l 374 899 z "},"j":{"ha":382,"x_min":4,"x_max":276,"o":"m 276 640 l 265 281 l 274 31 q 226 -147 274 -78 q 65 -269 178 -215 l 14 -207 l 14 -192 q 112 -103 83 -151 q 140 25 140 -56 l 142 268 l 136 547 l 14 547 l 4 557 l 13 638 l 139 638 l 271 643 l 276 640 m 186 939 q 240 919 221 939 q 260 863 260 899 q 239 803 260 825 q 182 781 218 781 q 126 801 146 781 q 106 858 106 822 q 127 917 106 894 q 186 939 149 939 z "},"ȷ":{"ha":382,"x_min":4,"x_max":276,"o":"m 276 640 l 265 281 l 274 31 q 226 -147 274 -78 q 65 -269 178 -215 l 14 -207 l 14 -192 q 112 -103 83 -151 q 140 25 140 -56 l 142 268 l 136 547 l 14 547 l 4 557 l 13 638 l 139 638 l 271 643 l 276 640 z "},"ĵ":{"ha":382,"x_min":-14,"x_max":382,"o":"m 276 640 l 265 281 l 274 31 q 226 -147 274 -78 q 65 -269 178 -215 l 14 -207 l 14 -192 q 112 -103 83 -151 q 140 25 140 -56 l 142 268 l 136 547 l 14 547 l 4 557 l 13 638 l 139 638 l 271 643 l 276 640 m -14 783 q 167 974 65 858 l 203 974 q 382 783 303 858 l 344 728 l 331 728 q 185 867 235 811 q 39 728 136 815 l 24 728 l -14 783 z "},"k":{"ha":656,"x_min":106,"x_max":644,"o":"m 238 282 l 247 0 l 106 0 l 115 269 l 107 964 l 249 975 l 238 282 m 396 349 q 644 25 494 208 l 644 8 q 567 -6 608 -1 q 515 -12 525 -11 l 500 -7 q 258 336 357 174 l 258 346 l 440 579 l 475 640 l 629 640 l 396 349 z "},"ķ":{"ha":656,"x_min":106,"x_max":644,"o":"m 238 282 l 247 0 l 106 0 l 115 269 l 107 964 l 249 975 l 238 282 m 396 349 q 644 25 494 208 l 644 8 q 567 -6 608 -1 q 515 -12 525 -11 l 500 -7 q 258 336 357 174 l 258 346 l 440 579 l 475 640 l 629 640 l 396 349 m 392 -68 q 446 -164 446 -107 q 311 -354 446 -257 l 269 -315 l 268 -306 q 338 -189 338 -250 q 299 -121 338 -150 l 299 -110 q 392 -68 346 -79 z "},"ĸ":{"ha":651,"x_min":100,"x_max":642,"o":"m 106 268 l 101 631 l 240 643 l 235 281 l 239 0 l 100 0 l 106 268 m 389 349 q 642 25 506 188 l 640 8 q 563 -6 604 -1 q 513 -12 521 -11 l 499 -7 q 253 336 347 185 l 253 346 l 440 579 l 475 640 l 624 640 l 389 349 z "},"l":{"ha":353,"x_min":106,"x_max":249,"o":"m 238 282 l 247 0 l 106 0 l 115 269 l 107 964 l 249 975 l 238 282 z "},"ĺ":{"ha":353,"x_min":42,"x_max":368,"o":"m 238 282 l 247 0 l 106 0 l 115 269 l 107 964 l 249 975 l 238 282 m 331 1264 l 368 1179 l 363 1165 q 79 1051 260 1121 l 65 1057 l 42 1118 q 315 1267 222 1211 l 331 1264 z "},"ľ":{"ha":429,"x_min":106,"x_max":447,"o":"m 238 282 l 247 0 l 106 0 l 115 269 l 107 964 l 249 975 l 238 282 m 447 889 l 410 635 l 346 624 l 335 633 l 338 893 l 439 900 l 447 889 z "},"ļ":{"ha":353,"x_min":88,"x_max":265,"o":"m 238 282 l 247 0 l 106 0 l 115 269 l 107 964 l 249 975 l 238 282 m 211 -68 q 265 -164 265 -107 q 131 -354 265 -257 l 89 -315 l 88 -306 q 157 -189 157 -250 q 118 -121 157 -150 l 118 -110 q 211 -68 165 -79 z "},"ŀ":{"ha":378,"x_min":106,"x_max":438,"o":"m 238 282 l 247 0 l 106 0 l 115 269 l 107 964 l 249 975 l 238 282 m 364 475 q 418 455 399 475 q 438 399 438 435 q 416 339 438 361 q 358 317 394 317 q 303 337 322 317 q 283 393 283 357 q 305 453 283 431 q 364 475 326 475 z "},"ḷ":{"ha":353,"x_min":99,"x_max":253,"o":"m 238 282 l 247 0 l 106 0 l 115 269 l 107 964 l 249 975 l 238 282 m 179 -86 q 233 -106 214 -86 q 253 -162 253 -126 q 232 -222 253 -200 q 175 -244 211 -244 q 119 -224 139 -244 q 99 -167 99 -203 q 120 -108 99 -131 q 179 -86 142 -86 z "},"ǉ":{"ha":735,"x_min":106,"x_max":629,"o":"m 238 282 l 247 0 l 106 0 l 115 269 l 107 964 l 249 975 l 238 282 m 629 640 l 618 281 l 626 31 q 578 -147 626 -78 q 418 -269 531 -215 l 367 -207 l 367 -192 q 465 -103 436 -151 q 493 25 493 -56 l 494 268 l 489 547 l 367 547 l 357 557 l 365 638 l 492 638 l 624 643 l 629 640 m 539 939 q 593 919 574 939 q 613 863 613 899 q 592 803 613 825 q 535 781 571 781 q 478 801 499 781 q 458 858 458 822 q 480 917 458 894 q 539 939 501 939 z "},"ḻ":{"ha":353,"x_min":1,"x_max":351,"o":"m 238 282 l 247 0 l 106 0 l 115 269 l 107 964 l 249 975 l 238 282 m 351 -147 l 344 -228 l 11 -228 l 1 -218 l 7 -137 l 342 -137 l 351 -147 z "},"ł":{"ha":378,"x_min":4,"x_max":375,"o":"m 250 282 l 260 0 l 118 0 l 128 269 l 126 435 l 42 392 l 33 396 l 4 483 l 125 546 l 119 964 l 261 975 l 256 604 l 338 647 l 346 644 l 375 558 l 253 493 l 250 282 z "},"m":{"ha":1115,"x_min":100,"x_max":1025,"o":"m 892 421 q 867 503 893 474 q 793 533 842 533 q 629 453 714 533 l 626 281 l 633 0 l 490 0 l 500 421 q 476 503 501 474 q 401 533 450 533 q 235 450 321 533 l 233 281 l 242 0 l 100 0 l 108 268 l 101 631 l 236 643 l 235 550 l 244 550 q 415 649 326 622 q 544 622 493 649 q 615 544 594 594 l 624 544 q 807 649 708 618 q 969 600 914 649 q 1022 461 1024 551 l 1018 281 l 1025 0 l 883 0 l 892 421 z "},"ṃ":{"ha":1115,"x_min":100,"x_max":1025,"o":"m 892 421 q 867 503 893 474 q 793 533 842 533 q 629 453 714 533 l 626 281 l 633 0 l 490 0 l 500 421 q 476 503 501 474 q 401 533 450 533 q 235 450 321 533 l 233 281 l 242 0 l 100 0 l 108 268 l 101 631 l 236 643 l 235 550 l 244 550 q 415 649 326 622 q 544 622 493 649 q 615 544 594 594 l 624 544 q 807 649 708 618 q 969 600 914 649 q 1022 461 1024 551 l 1018 281 l 1025 0 l 883 0 l 892 421 m 560 -86 q 614 -106 594 -86 q 633 -162 633 -126 q 613 -222 633 -200 q 556 -244 592 -244 q 499 -224 519 -244 q 479 -167 479 -203 q 501 -108 479 -131 q 560 -86 522 -86 z "},"n":{"ha":724,"x_min":100,"x_max":633,"o":"m 500 421 q 476 503 501 474 q 401 533 450 533 q 235 450 321 533 l 233 281 l 242 0 l 100 0 l 108 268 l 101 631 l 236 643 l 235 550 l 244 550 q 415 649 326 622 q 577 600 522 649 q 631 461 632 551 l 626 281 l 633 0 l 490 0 l 500 421 z "},"ń":{"ha":724,"x_min":100,"x_max":633,"o":"m 500 421 q 476 503 501 474 q 401 533 450 533 q 235 450 321 533 l 233 281 l 242 0 l 100 0 l 108 268 l 101 631 l 236 643 l 235 550 l 244 550 q 415 649 326 622 q 577 600 522 649 q 631 461 632 551 l 626 281 l 633 0 l 490 0 l 500 421 m 521 982 l 574 907 l 571 893 q 319 721 461 813 l 306 722 l 269 778 q 507 983 415 896 l 521 982 z "},"ň":{"ha":724,"x_min":100,"x_max":633,"o":"m 500 421 q 476 503 501 474 q 401 533 450 533 q 235 450 321 533 l 233 281 l 242 0 l 100 0 l 108 268 l 101 631 l 236 643 l 235 550 l 244 550 q 415 649 326 622 q 577 600 522 649 q 631 461 632 551 l 626 281 l 633 0 l 490 0 l 500 421 m 583 917 q 403 726 504 842 l 367 726 q 188 917 267 842 l 225 972 l 239 972 q 385 833 335 889 q 531 972 433 885 l 546 972 l 583 917 z "},"ņ":{"ha":724,"x_min":100,"x_max":633,"o":"m 500 421 q 476 503 501 474 q 401 533 450 533 q 235 450 321 533 l 233 281 l 242 0 l 100 0 l 108 268 l 101 631 l 236 643 l 235 550 l 244 550 q 415 649 326 622 q 577 600 522 649 q 631 461 632 551 l 626 281 l 633 0 l 490 0 l 500 421 m 401 -68 q 456 -164 456 -107 q 321 -354 456 -257 l 279 -315 l 278 -306 q 347 -189 347 -250 q 308 -121 347 -150 l 308 -110 q 401 -68 356 -79 z "},"ṅ":{"ha":724,"x_min":100,"x_max":633,"o":"m 500 421 q 476 503 501 474 q 401 533 450 533 q 235 450 321 533 l 233 281 l 242 0 l 100 0 l 108 268 l 101 631 l 236 643 l 235 550 l 244 550 q 415 649 326 622 q 577 600 522 649 q 631 461 632 551 l 626 281 l 633 0 l 490 0 l 500 421 m 388 939 q 442 919 422 939 q 461 863 461 899 q 440 803 461 825 q 383 781 419 781 q 327 801 347 781 q 307 858 307 822 q 328 917 307 894 q 388 939 350 939 z "},"ṇ":{"ha":724,"x_min":100,"x_max":633,"o":"m 500 421 q 476 503 501 474 q 401 533 450 533 q 235 450 321 533 l 233 281 l 242 0 l 100 0 l 108 268 l 101 631 l 236 643 l 235 550 l 244 550 q 415 649 326 622 q 577 600 522 649 q 631 461 632 551 l 626 281 l 633 0 l 490 0 l 500 421 m 369 -86 q 424 -106 404 -86 q 443 -162 443 -126 q 422 -222 443 -200 q 365 -244 401 -244 q 309 -224 329 -244 q 289 -167 289 -203 q 310 -108 289 -131 q 369 -86 332 -86 z "},"ŋ":{"ha":740,"x_min":100,"x_max":635,"o":"m 635 31 q 587 -147 635 -78 q 426 -269 539 -215 l 375 -207 l 375 -192 q 473 -103 444 -151 q 501 25 501 -56 l 500 421 q 475 503 500 474 q 401 533 450 533 q 235 450 321 533 l 233 281 l 242 0 l 100 0 l 108 268 l 101 631 l 236 643 l 235 550 l 244 550 q 415 649 326 622 q 577 600 522 649 q 631 461 632 551 l 626 281 l 635 31 z "},"ǌ":{"ha":1106,"x_min":100,"x_max":1000,"o":"m 500 421 q 476 503 501 474 q 401 533 450 533 q 235 450 321 533 l 233 281 l 242 0 l 100 0 l 108 268 l 101 631 l 236 643 l 235 550 l 244 550 q 415 649 326 622 q 577 600 522 649 q 631 461 632 551 l 626 281 l 633 0 l 490 0 l 500 421 m 1000 640 l 989 281 l 997 31 q 949 -147 997 -78 q 789 -269 901 -215 l 738 -207 l 738 -192 q 835 -103 807 -151 q 864 25 864 -56 l 865 268 l 860 547 l 738 547 l 728 557 l 736 638 l 863 638 l 994 643 l 1000 640 m 910 939 q 964 919 944 939 q 983 863 983 899 q 963 803 983 825 q 906 781 942 781 q 849 801 869 781 q 829 858 829 822 q 851 917 829 894 q 910 939 872 939 z "},"ṉ":{"ha":724,"x_min":100,"x_max":633,"o":"m 500 421 q 476 503 501 474 q 401 533 450 533 q 235 450 321 533 l 233 281 l 242 0 l 100 0 l 108 268 l 101 631 l 236 643 l 235 550 l 244 550 q 415 649 326 622 q 577 600 522 649 q 631 461 632 551 l 626 281 l 633 0 l 490 0 l 500 421 m 542 -147 l 535 -228 l 201 -228 l 192 -218 l 197 -137 l 532 -137 l 542 -147 z "},"ñ":{"ha":724,"x_min":100,"x_max":633,"o":"m 500 421 q 476 503 501 474 q 401 533 450 533 q 235 450 321 533 l 233 281 l 242 0 l 100 0 l 108 268 l 101 631 l 236 643 l 235 550 l 244 550 q 415 649 326 622 q 577 600 522 649 q 631 461 632 551 l 626 281 l 633 0 l 490 0 l 500 421 m 613 903 l 613 890 l 522 783 l 508 776 q 396 804 483 781 q 293 828 314 828 q 267 817 279 828 q 232 782 254 806 l 211 760 l 197 760 l 154 804 l 154 817 l 244 924 l 260 929 q 374 903 297 924 q 475 879 456 879 q 503 891 489 879 q 533 921 517 903 q 557 947 550 939 l 571 947 l 613 903 z "},"o":{"ha":683,"x_min":51,"x_max":631,"o":"m 350 653 q 558 569 485 653 q 631 331 631 485 q 553 76 631 165 q 332 -12 475 -12 q 124 72 197 -12 q 51 310 51 156 q 129 564 51 475 q 350 653 207 653 m 342 554 q 183 340 183 554 q 222 147 183 210 q 342 85 261 85 q 460 138 421 85 q 499 299 499 190 q 460 492 499 429 q 342 554 421 554 z "},"ó":{"ha":683,"x_min":51,"x_max":631,"o":"m 350 653 q 558 569 485 653 q 631 331 631 485 q 553 76 631 165 q 332 -12 475 -12 q 124 72 197 -12 q 51 310 51 156 q 129 564 51 475 q 350 653 207 653 m 342 554 q 183 340 183 554 q 222 147 183 210 q 342 85 261 85 q 460 138 421 85 q 499 299 499 190 q 460 492 499 429 q 342 554 421 554 m 479 982 l 532 907 l 529 893 q 278 721 419 813 l 264 722 l 228 778 q 465 983 374 896 l 479 982 z "},"ŏ":{"ha":683,"x_min":51,"x_max":631,"o":"m 350 653 q 558 569 485 653 q 631 331 631 485 q 553 76 631 165 q 332 -12 475 -12 q 124 72 197 -12 q 51 310 51 156 q 129 564 51 475 q 350 653 207 653 m 342 554 q 183 340 183 554 q 222 147 183 210 q 342 85 261 85 q 460 138 421 85 q 499 299 499 190 q 460 492 499 429 q 342 554 421 554 m 533 899 q 467 778 515 822 q 340 733 418 733 q 218 778 264 733 q 154 899 172 822 l 192 949 l 213 949 q 260 863 226 892 q 344 833 294 833 q 428 863 394 833 q 476 949 463 892 l 497 949 l 533 899 z "},"ǒ":{"ha":683,"x_min":51,"x_max":631,"o":"m 350 653 q 558 569 485 653 q 631 331 631 485 q 553 76 631 165 q 332 -12 475 -12 q 124 72 197 -12 q 51 310 51 156 q 129 564 51 475 q 350 653 207 653 m 342 554 q 183 340 183 554 q 222 147 183 210 q 342 85 261 85 q 460 138 421 85 q 499 299 499 190 q 460 492 499 429 q 342 554 421 554 m 542 917 q 361 726 463 842 l 325 726 q 146 917 225 842 l 183 972 l 197 972 q 343 833 293 889 q 489 972 392 885 l 504 972 l 542 917 z "},"ô":{"ha":683,"x_min":51,"x_max":631,"o":"m 350 653 q 558 569 485 653 q 631 331 631 485 q 553 76 631 165 q 332 -12 475 -12 q 124 72 197 -12 q 51 310 51 156 q 129 564 51 475 q 350 653 207 653 m 342 554 q 183 340 183 554 q 222 147 183 210 q 342 85 261 85 q 460 138 421 85 q 499 299 499 190 q 460 492 499 429 q 342 554 421 554 m 146 783 q 326 974 225 858 l 363 974 q 542 783 463 858 l 504 728 l 490 728 q 344 867 394 811 q 199 728 296 815 l 183 728 l 146 783 z "},"ố":{"ha":683,"x_min":51,"x_max":631,"o":"m 350 653 q 558 569 485 653 q 631 331 631 485 q 553 76 631 165 q 332 -12 475 -12 q 124 72 197 -12 q 51 310 51 156 q 129 564 51 475 q 350 653 207 653 m 342 554 q 183 340 183 554 q 222 147 183 210 q 342 85 261 85 q 460 138 421 85 q 499 299 499 190 q 460 492 499 429 q 342 554 421 554 m 585 1046 l 589 1033 l 481 901 l 468 901 l 418 940 l 504 1078 l 517 1081 l 585 1046 m 154 794 q 325 928 256 867 l 358 928 q 531 794 443 856 l 504 736 l 489 736 l 343 826 l 196 736 l 182 736 l 154 794 z "},"ộ":{"ha":683,"x_min":51,"x_max":631,"o":"m 350 653 q 558 569 485 653 q 631 331 631 485 q 553 76 631 165 q 332 -12 475 -12 q 124 72 197 -12 q 51 310 51 156 q 129 564 51 475 q 350 653 207 653 m 342 554 q 183 340 183 554 q 222 147 183 210 q 342 85 261 85 q 460 138 421 85 q 499 299 499 190 q 460 492 499 429 q 342 554 421 554 m 344 -86 q 399 -106 379 -86 q 418 -162 418 -126 q 397 -222 418 -200 q 340 -244 376 -244 q 284 -224 304 -244 q 264 -167 264 -203 q 285 -108 264 -131 q 344 -86 307 -86 m 146 783 q 326 974 225 858 l 363 974 q 542 783 463 858 l 504 728 l 490 728 q 344 867 394 811 q 199 728 296 815 l 183 728 l 146 783 z "},"ồ":{"ha":683,"x_min":51,"x_max":631,"o":"m 350 653 q 558 569 485 653 q 631 331 631 485 q 553 76 631 165 q 332 -12 475 -12 q 124 72 197 -12 q 51 310 51 156 q 129 564 51 475 q 350 653 207 653 m 342 554 q 183 340 183 554 q 222 147 183 210 q 342 85 261 85 q 460 138 421 85 q 499 299 499 190 q 460 492 499 429 q 342 554 421 554 m 379 1033 l 381 1046 l 449 1081 l 461 1078 l 550 940 l 499 901 l 488 901 l 379 1033 m 154 794 q 325 928 256 867 l 358 928 q 531 794 443 856 l 504 736 l 489 736 l 343 826 l 196 736 l 182 736 l 154 794 z "},"ổ":{"ha":683,"x_min":51,"x_max":631,"o":"m 350 653 q 558 569 485 653 q 631 331 631 485 q 553 76 631 165 q 332 -12 475 -12 q 124 72 197 -12 q 51 310 51 156 q 129 564 51 475 q 350 653 207 653 m 342 554 q 183 340 183 554 q 222 147 183 210 q 342 85 261 85 q 460 138 421 85 q 499 299 499 190 q 460 492 499 429 q 342 554 421 554 m 154 824 q 325 957 254 892 l 358 957 q 531 824 442 883 l 506 764 l 489 764 l 440 794 l 343 856 q 221 779 328 846 l 196 764 l 182 764 l 154 824 m 454 991 q 506 1039 487 1015 q 526 1082 526 1064 q 515 1104 526 1097 q 487 1112 505 1112 q 446 1103 469 1112 q 404 1078 424 1094 l 379 1119 q 442 1166 408 1150 q 508 1182 475 1182 q 578 1158 551 1182 q 605 1097 605 1134 q 589 1048 605 1072 q 534 991 573 1024 l 561 942 l 506 912 l 454 991 z "},"ỗ":{"ha":683,"x_min":51,"x_max":631,"o":"m 350 653 q 558 569 485 653 q 631 331 631 485 q 553 76 631 165 q 332 -12 475 -12 q 124 72 197 -12 q 51 310 51 156 q 129 564 51 475 q 350 653 207 653 m 342 554 q 183 340 183 554 q 222 147 183 210 q 342 85 261 85 q 460 138 421 85 q 499 299 499 190 q 460 492 499 429 q 342 554 421 554 m 156 824 q 326 957 256 892 l 360 957 q 532 824 443 883 l 507 764 l 490 764 l 442 794 l 344 856 q 222 779 329 846 l 197 764 l 183 764 l 156 824 m 571 1121 l 571 1107 l 481 1000 l 467 994 q 351 1022 444 997 q 251 1046 272 1046 q 225 1035 238 1046 q 190 1000 213 1024 l 169 978 l 156 978 l 114 1022 l 114 1035 l 206 1142 l 219 1147 q 332 1119 244 1143 q 435 1096 414 1096 q 460 1107 447 1096 q 490 1136 474 1118 q 517 1164 507 1154 l 529 1164 l 571 1121 z "},"ȍ":{"ha":683,"x_min":51,"x_max":631,"o":"m 350 653 q 558 569 485 653 q 631 331 631 485 q 553 76 631 165 q 332 -12 475 -12 q 124 72 197 -12 q 51 310 51 156 q 129 564 51 475 q 350 653 207 653 m 342 554 q 183 340 183 554 q 222 147 183 210 q 342 85 261 85 q 460 138 421 85 q 499 299 499 190 q 460 492 499 429 q 342 554 421 554 m 349 761 q 168 985 265 857 l 156 986 l 92 939 l 89 926 q 290 724 154 857 l 303 721 l 349 761 m 551 761 q 371 985 479 842 l 358 986 l 293 939 l 293 926 q 493 724 375 840 l 507 721 l 551 761 z "},"ö":{"ha":683,"x_min":51,"x_max":631,"o":"m 350 653 q 558 569 485 653 q 631 331 631 485 q 553 76 631 165 q 332 -12 475 -12 q 124 72 197 -12 q 51 310 51 156 q 129 564 51 475 q 350 653 207 653 m 342 554 q 183 340 183 554 q 222 147 183 210 q 342 85 261 85 q 460 138 421 85 q 499 299 499 190 q 460 492 499 429 q 342 554 421 554 m 233 922 q 284 903 265 922 q 303 853 303 885 q 283 797 303 818 q 229 776 263 776 q 176 795 194 776 q 158 847 158 814 q 178 902 158 882 q 233 922 199 922 m 461 922 q 513 903 494 922 q 531 853 531 885 q 510 797 531 818 q 457 776 490 776 q 405 795 424 776 q 386 847 386 814 q 406 902 386 882 q 461 922 426 922 z "},"ȫ":{"ha":683,"x_min":51,"x_max":631,"o":"m 350 653 q 558 569 485 653 q 631 331 631 485 q 553 76 631 165 q 332 -12 475 -12 q 124 72 197 -12 q 51 310 51 156 q 129 564 51 475 q 350 653 207 653 m 342 554 q 183 340 183 554 q 222 147 183 210 q 342 85 261 85 q 460 138 421 85 q 499 299 499 190 q 460 492 499 429 q 342 554 421 554 m 525 1060 l 517 978 l 174 978 l 164 989 l 171 1071 l 515 1071 l 525 1060 m 231 892 q 280 874 263 892 q 297 824 297 856 q 278 772 297 792 q 226 751 258 751 q 176 769 194 751 q 158 819 158 788 q 178 872 158 851 q 231 892 199 892 m 458 892 q 508 874 490 892 q 525 824 525 856 q 506 772 525 792 q 454 751 486 751 q 404 769 422 751 q 386 819 386 788 q 406 872 386 851 q 458 892 426 892 z "},"ȱ":{"ha":683,"x_min":51,"x_max":631,"o":"m 350 653 q 558 569 485 653 q 631 331 631 485 q 553 76 631 165 q 332 -12 475 -12 q 124 72 197 -12 q 51 310 51 156 q 129 564 51 475 q 350 653 207 653 m 342 554 q 183 340 183 554 q 222 147 183 210 q 342 85 261 85 q 460 138 421 85 q 499 299 499 190 q 460 492 499 429 q 342 554 421 554 m 346 907 q 400 887 381 907 q 419 831 419 867 q 399 771 419 793 q 342 749 378 749 q 285 769 306 749 q 265 826 265 790 q 287 885 265 863 q 346 907 308 907 m 504 1047 l 497 965 l 192 965 l 182 976 l 188 1057 l 494 1057 l 504 1047 z "},"ọ":{"ha":683,"x_min":51,"x_max":631,"o":"m 350 653 q 558 569 485 653 q 631 331 631 485 q 553 76 631 165 q 332 -12 475 -12 q 124 72 197 -12 q 51 310 51 156 q 129 564 51 475 q 350 653 207 653 m 342 554 q 183 340 183 554 q 222 147 183 210 q 342 85 261 85 q 460 138 421 85 q 499 299 499 190 q 460 492 499 429 q 342 554 421 554 m 344 -86 q 399 -106 379 -86 q 418 -162 418 -126 q 397 -222 418 -200 q 340 -244 376 -244 q 284 -224 304 -244 q 264 -167 264 -203 q 285 -108 264 -131 q 344 -86 307 -86 z "},"ò":{"ha":683,"x_min":51,"x_max":631,"o":"m 350 653 q 558 569 485 653 q 631 331 631 485 q 553 76 631 165 q 332 -12 475 -12 q 124 72 197 -12 q 51 310 51 156 q 129 564 51 475 q 350 653 207 653 m 342 554 q 183 340 183 554 q 222 147 183 210 q 342 85 261 85 q 460 138 421 85 q 499 299 499 190 q 460 492 499 429 q 342 554 421 554 m 257 983 q 494 778 349 896 l 458 722 l 444 721 q 193 893 303 813 l 190 907 l 243 982 l 257 983 z "},"ỏ":{"ha":683,"x_min":51,"x_max":631,"o":"m 350 653 q 558 569 485 653 q 631 331 631 485 q 553 76 631 165 q 332 -12 475 -12 q 124 72 197 -12 q 51 310 51 156 q 129 564 51 475 q 350 653 207 653 m 342 554 q 183 340 183 554 q 222 147 183 210 q 342 85 261 85 q 460 138 421 85 q 499 299 499 190 q 460 492 499 429 q 342 554 421 554 m 296 790 q 351 841 331 815 q 371 886 371 867 q 360 909 371 901 q 331 917 349 917 q 288 908 311 917 q 243 882 264 899 l 217 925 q 283 974 247 957 q 353 990 318 990 q 426 965 397 990 q 454 901 454 940 q 438 850 454 875 q 379 790 421 825 l 408 739 l 350 707 l 296 790 z "},"ơ":{"ha":731,"x_min":51,"x_max":706,"o":"m 706 718 q 663 613 706 657 q 557 564 619 569 q 631 329 631 479 q 553 76 631 165 q 333 -12 476 -12 q 124 72 197 -12 q 51 313 51 156 q 128 564 51 475 q 349 653 206 653 q 401 648 375 653 q 450 638 428 643 q 517 626 497 626 q 574 647 553 626 q 594 700 594 667 q 550 788 594 744 l 554 800 q 624 831 589 831 q 681 796 656 831 q 706 718 706 761 m 342 85 q 460 140 421 85 q 499 307 499 194 q 459 494 499 435 q 339 554 419 554 q 182 331 182 554 q 222 144 182 203 q 342 85 261 85 z "},"ớ":{"ha":731,"x_min":51,"x_max":706,"o":"m 706 718 q 663 613 706 657 q 557 564 619 569 q 631 329 631 479 q 553 76 631 165 q 333 -12 476 -12 q 124 72 197 -12 q 51 313 51 156 q 128 564 51 475 q 349 653 206 653 q 401 648 375 653 q 450 638 428 643 q 517 626 497 626 q 574 647 553 626 q 594 700 594 667 q 550 788 594 744 l 554 800 q 624 831 589 831 q 681 796 656 831 q 706 718 706 761 m 342 85 q 460 140 421 85 q 499 307 499 194 q 459 494 499 435 q 339 554 419 554 q 182 331 182 554 q 222 144 182 203 q 342 85 261 85 m 476 982 l 529 907 l 526 893 q 275 721 417 813 l 261 722 l 225 778 q 463 983 371 896 l 476 982 z "},"ợ":{"ha":685,"x_min":51,"x_max":706,"o":"m 706 718 q 663 613 706 657 q 557 564 619 569 q 631 329 631 479 q 553 76 631 165 q 333 -12 476 -12 q 124 72 197 -12 q 51 313 51 156 q 128 564 51 475 q 349 653 206 653 q 401 648 375 653 q 450 638 428 643 q 517 626 497 626 q 574 647 553 626 q 594 700 594 667 q 550 788 594 744 l 554 800 q 624 831 589 831 q 681 796 656 831 q 706 718 706 761 m 342 85 q 460 140 421 85 q 499 307 499 194 q 459 494 499 435 q 339 554 419 554 q 182 331 182 554 q 222 144 182 203 q 342 85 261 85 m 354 -86 q 408 -106 389 -86 q 428 -162 428 -126 q 407 -222 428 -200 q 350 -244 386 -244 q 294 -224 314 -244 q 274 -167 274 -203 q 295 -108 274 -131 q 354 -86 317 -86 z "}}}
